SplineFontDB: 3.2
FontName: DECTerminal18-Bold
FullName: DEC Terminal 18 Bold
FamilyName: DEC Terminal 18
Weight: Bold
Copyright: Copyright (c) 1991 Digital Equipment Corporation. All Rights Reserved.
UComments: "2020-2-12: Created with FontForge (http://fontforge.org)"
Version: 001.000
ItalicAngle: 0
UnderlinePosition: -100
UnderlineWidth: 50
Ascent: 714
Descent: 286
InvalidEm: 0
LayerCount: 2
Layer: 0 0 "Back" 1
Layer: 1 0 "Fore" 0
XUID: [1021 995 2011745948 9977733]
StyleMap: 0x0000
FSType: 0
OS2Version: 0
OS2_WeightWidthSlopeOnly: 0
OS2_UseTypoMetrics: 1
CreationTime: 1581564509
ModificationTime: 1581564510
OS2TypoAscent: 0
OS2TypoAOffset: 1
OS2TypoDescent: 0
OS2TypoDOffset: 1
OS2TypoLinegap: 90
OS2WinAscent: 0
OS2WinAOffset: 1
OS2WinDescent: 0
OS2WinDOffset: 1
HheadAscent: 0
HheadAOffset: 1
HheadDescent: 0
HheadDOffset: 1
DEI: 91125
Encoding: ISO8859-1
UnicodeInterp: none
NameList: AGL For New Fonts
DisplaySize: 18
AntiAlias: 1
FitToEm: 0
BeginChars: 256 195

StartChar: exclam
Encoding: 33 33 1
Width: 523
VWidth: 0
Flags: HW
LayerCount: 2
Back
Fore
SplineSet
211.640625 449.736328125 m 1
 370.370117188 449.736328125 l 1
 370.370117188 502.645507812 l 1
 211.640625 502.645507812 l 1
 211.640625 449.736328125 l 1025
211.640625 396.826171875 m 1
 370.370117188 396.826171875 l 1
 370.370117188 449.736328125 l 1
 211.640625 449.736328125 l 1
 211.640625 396.826171875 l 1025
211.640625 343.916015625 m 1
 370.370117188 343.916015625 l 1
 370.370117188 396.826171875 l 1
 211.640625 396.826171875 l 1
 211.640625 343.916015625 l 1025
211.640625 291.005859375 m 1
 370.370117188 291.005859375 l 1
 370.370117188 343.916015625 l 1
 211.640625 343.916015625 l 1
 211.640625 291.005859375 l 1025
211.640625 238.095703125 m 1
 370.370117188 238.095703125 l 1
 370.370117188 291.005859375 l 1
 211.640625 291.005859375 l 1
 211.640625 238.095703125 l 1025
211.640625 185.185546875 m 1
 370.370117188 185.185546875 l 1
 370.370117188 238.095703125 l 1
 211.640625 238.095703125 l 1
 211.640625 185.185546875 l 1025
211.640625 132.275390625 m 1
 370.370117188 132.275390625 l 1
 370.370117188 185.185546875 l 1
 211.640625 185.185546875 l 1
 211.640625 132.275390625 l 1025
211.640625 26.455078125 m 1
 370.370117188 26.455078125 l 1
 370.370117188 79.365234375 l 1
 211.640625 79.365234375 l 1
 211.640625 26.455078125 l 1025
158.73046875 -26.455078125 m 1
 423.280273438 -26.455078125 l 1
 423.280273438 26.455078125 l 1
 158.73046875 26.455078125 l 1
 158.73046875 -26.455078125 l 1025
211.640625 -79.365234375 m 1
 370.370117188 -79.365234375 l 1
 370.370117188 -26.455078125 l 1
 211.640625 -26.455078125 l 1
 211.640625 -79.365234375 l 1
EndSplineSet
EndChar

StartChar: quotedbl
Encoding: 34 34 2
Width: 523
VWidth: 0
Flags: HW
LayerCount: 2
Back
Fore
SplineSet
158.73046875 555.555664062 m 1
 264.549804688 555.555664062 l 1
 264.549804688 608.465820312 l 1
 158.73046875 608.465820312 l 1
 158.73046875 555.555664062 l 1025
370.370117188 555.555664062 m 1
 476.190429688 555.555664062 l 1
 476.190429688 608.465820312 l 1
 370.370117188 608.465820312 l 1
 370.370117188 555.555664062 l 1025
158.73046875 502.645507812 m 1
 264.549804688 502.645507812 l 1
 264.549804688 555.555664062 l 1
 158.73046875 555.555664062 l 1
 158.73046875 502.645507812 l 1025
370.370117188 502.645507812 m 1
 476.190429688 502.645507812 l 1
 476.190429688 555.555664062 l 1
 370.370117188 555.555664062 l 1
 370.370117188 502.645507812 l 1025
158.73046875 449.736328125 m 1
 264.549804688 449.736328125 l 1
 264.549804688 502.645507812 l 1
 158.73046875 502.645507812 l 1
 158.73046875 449.736328125 l 1025
370.370117188 449.736328125 m 1
 476.190429688 449.736328125 l 1
 476.190429688 502.645507812 l 1
 370.370117188 502.645507812 l 1
 370.370117188 449.736328125 l 1025
158.73046875 396.826171875 m 1
 264.549804688 396.826171875 l 1
 264.549804688 449.736328125 l 1
 158.73046875 449.736328125 l 1
 158.73046875 396.826171875 l 1025
370.370117188 396.826171875 m 1
 476.190429688 396.826171875 l 1
 476.190429688 449.736328125 l 1
 370.370117188 449.736328125 l 1
 370.370117188 396.826171875 l 1025
158.73046875 343.916015625 m 1
 264.549804688 343.916015625 l 1
 264.549804688 396.826171875 l 1
 158.73046875 396.826171875 l 1
 158.73046875 343.916015625 l 1025
370.370117188 343.916015625 m 1
 476.190429688 343.916015625 l 1
 476.190429688 396.826171875 l 1
 370.370117188 396.826171875 l 1
 370.370117188 343.916015625 l 1
EndSplineSet
EndChar

StartChar: numbersign
Encoding: 35 35 3
Width: 523
VWidth: 0
Flags: HW
LayerCount: 2
Back
Fore
SplineSet
105.8203125 449.736328125 m 1
 264.549804688 449.736328125 l 1
 264.549804688 502.645507812 l 1
 105.8203125 502.645507812 l 1
 105.8203125 449.736328125 l 1025
370.370117188 449.736328125 m 1
 529.100585938 449.736328125 l 1
 529.100585938 502.645507812 l 1
 370.370117188 502.645507812 l 1
 370.370117188 449.736328125 l 1025
105.8203125 396.826171875 m 1
 264.549804688 396.826171875 l 1
 264.549804688 449.736328125 l 1
 105.8203125 449.736328125 l 1
 105.8203125 396.826171875 l 1025
370.370117188 396.826171875 m 1
 529.100585938 396.826171875 l 1
 529.100585938 449.736328125 l 1
 370.370117188 449.736328125 l 1
 370.370117188 396.826171875 l 1025
105.8203125 343.916015625 m 1
 264.549804688 343.916015625 l 1
 264.549804688 396.826171875 l 1
 105.8203125 396.826171875 l 1
 105.8203125 343.916015625 l 1025
370.370117188 343.916015625 m 1
 529.100585938 343.916015625 l 1
 529.100585938 396.826171875 l 1
 370.370117188 396.826171875 l 1
 370.370117188 343.916015625 l 1025
105.8203125 291.005859375 m 1
 264.549804688 291.005859375 l 1
 264.549804688 343.916015625 l 1
 105.8203125 343.916015625 l 1
 105.8203125 291.005859375 l 1025
370.370117188 291.005859375 m 1
 529.100585938 291.005859375 l 1
 529.100585938 343.916015625 l 1
 370.370117188 343.916015625 l 1
 370.370117188 291.005859375 l 1025
0 238.095703125 m 1
 582.010742188 238.095703125 l 1
 582.010742188 291.005859375 l 1
 0 291.005859375 l 1
 0 238.095703125 l 1025
0 185.185546875 m 1
 582.010742188 185.185546875 l 1
 582.010742188 238.095703125 l 1
 0 238.095703125 l 1
 0 185.185546875 l 1025
105.8203125 132.275390625 m 1
 264.549804688 132.275390625 l 1
 264.549804688 185.185546875 l 1
 105.8203125 185.185546875 l 1
 105.8203125 132.275390625 l 1025
370.370117188 132.275390625 m 1
 529.100585938 132.275390625 l 1
 529.100585938 185.185546875 l 1
 370.370117188 185.185546875 l 1
 370.370117188 132.275390625 l 1025
105.8203125 79.365234375 m 1
 264.549804688 79.365234375 l 1
 264.549804688 132.275390625 l 1
 105.8203125 132.275390625 l 1
 105.8203125 79.365234375 l 1025
370.370117188 79.365234375 m 1
 529.100585938 79.365234375 l 1
 529.100585938 132.275390625 l 1
 370.370117188 132.275390625 l 1
 370.370117188 79.365234375 l 1025
0 26.455078125 m 1
 582.010742188 26.455078125 l 1
 582.010742188 79.365234375 l 1
 0 79.365234375 l 1
 0 26.455078125 l 1025
0 -26.455078125 m 1
 582.010742188 -26.455078125 l 1
 582.010742188 26.455078125 l 1
 0 26.455078125 l 1
 0 -26.455078125 l 1025
105.8203125 -79.365234375 m 1
 264.549804688 -79.365234375 l 1
 264.549804688 -26.455078125 l 1
 105.8203125 -26.455078125 l 1
 105.8203125 -79.365234375 l 1025
370.370117188 -79.365234375 m 1
 529.100585938 -79.365234375 l 1
 529.100585938 -26.455078125 l 1
 370.370117188 -26.455078125 l 1
 370.370117188 -79.365234375 l 1025
105.8203125 -132.275390625 m 1
 264.549804688 -132.275390625 l 1
 264.549804688 -79.365234375 l 1
 105.8203125 -79.365234375 l 1
 105.8203125 -132.275390625 l 1025
370.370117188 -132.275390625 m 1
 529.100585938 -132.275390625 l 1
 529.100585938 -79.365234375 l 1
 370.370117188 -79.365234375 l 1
 370.370117188 -132.275390625 l 1025
105.8203125 -185.185546875 m 1
 264.549804688 -185.185546875 l 1
 264.549804688 -132.275390625 l 1
 105.8203125 -132.275390625 l 1
 105.8203125 -185.185546875 l 1025
370.370117188 -185.185546875 m 1
 529.100585938 -185.185546875 l 1
 529.100585938 -132.275390625 l 1
 370.370117188 -132.275390625 l 1
 370.370117188 -185.185546875 l 1025
105.8203125 -238.095703125 m 1
 264.549804688 -238.095703125 l 1
 264.549804688 -185.185546875 l 1
 105.8203125 -185.185546875 l 1
 105.8203125 -238.095703125 l 1025
370.370117188 -238.095703125 m 1
 529.100585938 -238.095703125 l 1
 529.100585938 -185.185546875 l 1
 370.370117188 -185.185546875 l 1
 370.370117188 -238.095703125 l 1
EndSplineSet
EndChar

StartChar: dollar
Encoding: 36 36 4
Width: 523
VWidth: 0
Flags: HW
LayerCount: 2
Back
Fore
SplineSet
264.549804688 555.555664062 m 1
 370.370117188 555.555664062 l 1
 370.370117188 608.465820312 l 1
 264.549804688 608.465820312 l 1
 264.549804688 555.555664062 l 1025
264.549804688 502.645507812 m 1
 370.370117188 502.645507812 l 1
 370.370117188 555.555664062 l 1
 264.549804688 555.555664062 l 1
 264.549804688 502.645507812 l 1025
158.73046875 449.736328125 m 1
 370.370117188 449.736328125 l 1
 370.370117188 502.645507812 l 1
 158.73046875 502.645507812 l 1
 158.73046875 449.736328125 l 1025
423.280273438 449.736328125 m 1
 529.100585938 449.736328125 l 1
 529.100585938 502.645507812 l 1
 423.280273438 502.645507812 l 1
 423.280273438 449.736328125 l 1025
105.8203125 396.826171875 m 1
 529.100585938 396.826171875 l 1
 529.100585938 449.736328125 l 1
 105.8203125 449.736328125 l 1
 105.8203125 396.826171875 l 1025
52.91015625 343.916015625 m 1
 211.640625 343.916015625 l 1
 211.640625 396.826171875 l 1
 52.91015625 396.826171875 l 1
 52.91015625 343.916015625 l 1025
370.370117188 343.916015625 m 1
 529.100585938 343.916015625 l 1
 529.100585938 396.826171875 l 1
 370.370117188 396.826171875 l 1
 370.370117188 343.916015625 l 1025
52.91015625 291.005859375 m 1
 211.640625 291.005859375 l 1
 211.640625 343.916015625 l 1
 52.91015625 343.916015625 l 1
 52.91015625 291.005859375 l 1025
423.280273438 291.005859375 m 1
 529.100585938 291.005859375 l 1
 529.100585938 343.916015625 l 1
 423.280273438 343.916015625 l 1
 423.280273438 291.005859375 l 1025
52.91015625 238.095703125 m 1
 317.459960938 238.095703125 l 1
 317.459960938 291.005859375 l 1
 52.91015625 291.005859375 l 1
 52.91015625 238.095703125 l 1025
105.8203125 185.185546875 m 1
 423.280273438 185.185546875 l 1
 423.280273438 238.095703125 l 1
 105.8203125 238.095703125 l 1
 105.8203125 185.185546875 l 1025
264.549804688 132.275390625 m 1
 529.100585938 132.275390625 l 1
 529.100585938 185.185546875 l 1
 264.549804688 185.185546875 l 1
 264.549804688 132.275390625 l 1025
52.91015625 79.365234375 m 1
 158.73046875 79.365234375 l 1
 158.73046875 132.275390625 l 1
 52.91015625 132.275390625 l 1
 52.91015625 79.365234375 l 1025
370.370117188 79.365234375 m 1
 529.100585938 79.365234375 l 1
 529.100585938 132.275390625 l 1
 370.370117188 132.275390625 l 1
 370.370117188 79.365234375 l 1025
52.91015625 26.455078125 m 1
 211.640625 26.455078125 l 1
 211.640625 79.365234375 l 1
 52.91015625 79.365234375 l 1
 52.91015625 26.455078125 l 1025
370.370117188 26.455078125 m 1
 529.100585938 26.455078125 l 1
 529.100585938 79.365234375 l 1
 370.370117188 79.365234375 l 1
 370.370117188 26.455078125 l 1025
52.91015625 -26.455078125 m 1
 529.100585938 -26.455078125 l 1
 529.100585938 26.455078125 l 1
 52.91015625 26.455078125 l 1
 52.91015625 -26.455078125 l 1025
52.91015625 -79.365234375 m 1
 158.73046875 -79.365234375 l 1
 158.73046875 -26.455078125 l 1
 52.91015625 -26.455078125 l 1
 52.91015625 -79.365234375 l 1025
211.640625 -79.365234375 m 1
 476.190429688 -79.365234375 l 1
 476.190429688 -26.455078125 l 1
 211.640625 -26.455078125 l 1
 211.640625 -79.365234375 l 1025
211.640625 -132.275390625 m 1
 317.459960938 -132.275390625 l 1
 317.459960938 -79.365234375 l 1
 211.640625 -79.365234375 l 1
 211.640625 -132.275390625 l 1025
211.640625 -185.185546875 m 1
 317.459960938 -185.185546875 l 1
 317.459960938 -132.275390625 l 1
 211.640625 -132.275390625 l 1
 211.640625 -185.185546875 l 1025
211.640625 -238.095703125 m 1
 317.459960938 -238.095703125 l 1
 317.459960938 -185.185546875 l 1
 211.640625 -185.185546875 l 1
 211.640625 -238.095703125 l 1
EndSplineSet
EndChar

StartChar: percent
Encoding: 37 37 5
Width: 523
VWidth: 0
Flags: HW
LayerCount: 2
Back
Fore
SplineSet
105.8203125 449.736328125 m 1
 317.459960938 449.736328125 l 1
 317.459960938 502.645507812 l 1
 105.8203125 502.645507812 l 1
 105.8203125 449.736328125 l 1025
52.91015625 396.826171875 m 1
 370.370117188 396.826171875 l 1
 370.370117188 449.736328125 l 1
 52.91015625 449.736328125 l 1
 52.91015625 396.826171875 l 1025
52.91015625 343.916015625 m 1
 158.73046875 343.916015625 l 1
 158.73046875 396.826171875 l 1
 52.91015625 396.826171875 l 1
 52.91015625 343.916015625 l 1025
264.549804688 343.916015625 m 1
 370.370117188 343.916015625 l 1
 370.370117188 396.826171875 l 1
 264.549804688 396.826171875 l 1
 264.549804688 343.916015625 l 1025
52.91015625 291.005859375 m 1
 370.370117188 291.005859375 l 1
 370.370117188 343.916015625 l 1
 52.91015625 343.916015625 l 1
 52.91015625 291.005859375 l 1025
476.190429688 291.005859375 m 1
 582.010742188 291.005859375 l 1
 582.010742188 343.916015625 l 1
 476.190429688 343.916015625 l 1
 476.190429688 291.005859375 l 1025
105.8203125 238.095703125 m 1
 317.459960938 238.095703125 l 1
 317.459960938 291.005859375 l 1
 105.8203125 291.005859375 l 1
 105.8203125 238.095703125 l 1025
370.370117188 238.095703125 m 1
 529.100585938 238.095703125 l 1
 529.100585938 291.005859375 l 1
 370.370117188 291.005859375 l 1
 370.370117188 238.095703125 l 1025
264.549804688 185.185546875 m 1
 370.370117188 185.185546875 l 1
 370.370117188 238.095703125 l 1
 264.549804688 238.095703125 l 1
 264.549804688 185.185546875 l 1025
105.8203125 132.275390625 m 1
 264.549804688 132.275390625 l 1
 264.549804688 185.185546875 l 1
 105.8203125 185.185546875 l 1
 105.8203125 132.275390625 l 1025
317.459960938 132.275390625 m 1
 529.100585938 132.275390625 l 1
 529.100585938 185.185546875 l 1
 317.459960938 185.185546875 l 1
 317.459960938 132.275390625 l 1025
52.91015625 79.365234375 m 1
 158.73046875 79.365234375 l 1
 158.73046875 132.275390625 l 1
 52.91015625 132.275390625 l 1
 52.91015625 79.365234375 l 1025
264.549804688 79.365234375 m 1
 582.010742188 79.365234375 l 1
 582.010742188 132.275390625 l 1
 264.549804688 132.275390625 l 1
 264.549804688 79.365234375 l 1025
264.549804688 26.455078125 m 1
 370.370117188 26.455078125 l 1
 370.370117188 79.365234375 l 1
 264.549804688 79.365234375 l 1
 264.549804688 26.455078125 l 1025
476.190429688 26.455078125 m 1
 582.010742188 26.455078125 l 1
 582.010742188 79.365234375 l 1
 476.190429688 79.365234375 l 1
 476.190429688 26.455078125 l 1025
264.549804688 -26.455078125 m 1
 582.010742188 -26.455078125 l 1
 582.010742188 26.455078125 l 1
 264.549804688 26.455078125 l 1
 264.549804688 -26.455078125 l 1025
317.459960938 -79.365234375 m 1
 529.100585938 -79.365234375 l 1
 529.100585938 -26.455078125 l 1
 317.459960938 -26.455078125 l 1
 317.459960938 -79.365234375 l 1
EndSplineSet
EndChar

StartChar: ampersand
Encoding: 38 38 6
Width: 523
VWidth: 0
Flags: HW
LayerCount: 2
Back
Fore
SplineSet
158.73046875 449.736328125 m 1
 370.370117188 449.736328125 l 1
 370.370117188 502.645507812 l 1
 158.73046875 502.645507812 l 1
 158.73046875 449.736328125 l 1025
423.280273438 449.736328125 m 1
 476.190429688 449.736328125 l 1
 476.190429688 502.645507812 l 1
 423.280273438 502.645507812 l 1
 423.280273438 449.736328125 l 1025
105.8203125 396.826171875 m 1
 476.190429688 396.826171875 l 1
 476.190429688 449.736328125 l 1
 105.8203125 449.736328125 l 1
 105.8203125 396.826171875 l 1025
105.8203125 343.916015625 m 1
 264.549804688 343.916015625 l 1
 264.549804688 396.826171875 l 1
 105.8203125 396.826171875 l 1
 105.8203125 343.916015625 l 1025
370.370117188 343.916015625 m 1
 476.190429688 343.916015625 l 1
 476.190429688 396.826171875 l 1
 370.370117188 396.826171875 l 1
 370.370117188 343.916015625 l 1025
105.8203125 291.005859375 m 1
 264.549804688 291.005859375 l 1
 264.549804688 343.916015625 l 1
 105.8203125 343.916015625 l 1
 105.8203125 291.005859375 l 1025
158.73046875 238.095703125 m 1
 317.459960938 238.095703125 l 1
 317.459960938 291.005859375 l 1
 158.73046875 291.005859375 l 1
 158.73046875 238.095703125 l 1025
423.280273438 238.095703125 m 1
 529.100585938 238.095703125 l 1
 529.100585938 291.005859375 l 1
 423.280273438 291.005859375 l 1
 423.280273438 238.095703125 l 1025
105.8203125 185.185546875 m 1
 370.370117188 185.185546875 l 1
 370.370117188 238.095703125 l 1
 105.8203125 238.095703125 l 1
 105.8203125 185.185546875 l 1025
423.280273438 185.185546875 m 1
 529.100585938 185.185546875 l 1
 529.100585938 238.095703125 l 1
 423.280273438 238.095703125 l 1
 423.280273438 185.185546875 l 1025
52.91015625 132.275390625 m 1
 211.640625 132.275390625 l 1
 211.640625 185.185546875 l 1
 52.91015625 185.185546875 l 1
 52.91015625 132.275390625 l 1025
264.549804688 132.275390625 m 1
 476.190429688 132.275390625 l 1
 476.190429688 185.185546875 l 1
 264.549804688 185.185546875 l 1
 264.549804688 132.275390625 l 1025
52.91015625 79.365234375 m 1
 211.640625 79.365234375 l 1
 211.640625 132.275390625 l 1
 52.91015625 132.275390625 l 1
 52.91015625 79.365234375 l 1025
264.549804688 79.365234375 m 1
 476.190429688 79.365234375 l 1
 476.190429688 132.275390625 l 1
 264.549804688 132.275390625 l 1
 264.549804688 79.365234375 l 1025
52.91015625 26.455078125 m 1
 211.640625 26.455078125 l 1
 211.640625 79.365234375 l 1
 52.91015625 79.365234375 l 1
 52.91015625 26.455078125 l 1025
317.459960938 26.455078125 m 1
 476.190429688 26.455078125 l 1
 476.190429688 79.365234375 l 1
 317.459960938 79.365234375 l 1
 317.459960938 26.455078125 l 1025
52.91015625 -26.455078125 m 1
 529.100585938 -26.455078125 l 1
 529.100585938 26.455078125 l 1
 52.91015625 26.455078125 l 1
 52.91015625 -26.455078125 l 1025
105.8203125 -79.365234375 m 1
 370.370117188 -79.365234375 l 1
 370.370117188 -26.455078125 l 1
 105.8203125 -26.455078125 l 1
 105.8203125 -79.365234375 l 1025
423.280273438 -79.365234375 m 1
 529.100585938 -79.365234375 l 1
 529.100585938 -26.455078125 l 1
 423.280273438 -26.455078125 l 1
 423.280273438 -79.365234375 l 1
EndSplineSet
EndChar

StartChar: quoteright
Encoding: 39 8217 7
Width: 523
VWidth: 0
Flags: HW
LayerCount: 2
Back
Fore
SplineSet
211.640625 555.555664062 m 1
 423.280273438 555.555664062 l 1
 423.280273438 608.465820312 l 1
 211.640625 608.465820312 l 1
 211.640625 555.555664062 l 1025
211.640625 502.645507812 m 1
 370.370117188 502.645507812 l 1
 370.370117188 555.555664062 l 1
 211.640625 555.555664062 l 1
 211.640625 502.645507812 l 1025
211.640625 449.736328125 m 1
 317.459960938 449.736328125 l 1
 317.459960938 502.645507812 l 1
 211.640625 502.645507812 l 1
 211.640625 449.736328125 l 1025
158.73046875 396.826171875 m 1
 317.459960938 396.826171875 l 1
 317.459960938 449.736328125 l 1
 158.73046875 449.736328125 l 1
 158.73046875 396.826171875 l 1025
158.73046875 343.916015625 m 1
 264.549804688 343.916015625 l 1
 264.549804688 396.826171875 l 1
 158.73046875 396.826171875 l 1
 158.73046875 343.916015625 l 1
EndSplineSet
EndChar

StartChar: parenleft
Encoding: 40 40 8
Width: 523
VWidth: 0
Flags: HW
LayerCount: 2
Back
Fore
SplineSet
370.370117188 502.645507812 m 1
 476.190429688 502.645507812 l 1
 476.190429688 555.555664062 l 1
 370.370117188 555.555664062 l 1
 370.370117188 502.645507812 l 1025
317.459960938 449.736328125 m 1
 423.280273438 449.736328125 l 1
 423.280273438 502.645507812 l 1
 317.459960938 502.645507812 l 1
 317.459960938 449.736328125 l 1025
264.549804688 396.826171875 m 1
 423.280273438 396.826171875 l 1
 423.280273438 449.736328125 l 1
 264.549804688 449.736328125 l 1
 264.549804688 396.826171875 l 1025
211.640625 343.916015625 m 1
 370.370117188 343.916015625 l 1
 370.370117188 396.826171875 l 1
 211.640625 396.826171875 l 1
 211.640625 343.916015625 l 1025
211.640625 291.005859375 m 1
 370.370117188 291.005859375 l 1
 370.370117188 343.916015625 l 1
 211.640625 343.916015625 l 1
 211.640625 291.005859375 l 1025
158.73046875 238.095703125 m 1
 317.459960938 238.095703125 l 1
 317.459960938 291.005859375 l 1
 158.73046875 291.005859375 l 1
 158.73046875 238.095703125 l 1025
158.73046875 185.185546875 m 1
 317.459960938 185.185546875 l 1
 317.459960938 238.095703125 l 1
 158.73046875 238.095703125 l 1
 158.73046875 185.185546875 l 1025
158.73046875 132.275390625 m 1
 317.459960938 132.275390625 l 1
 317.459960938 185.185546875 l 1
 158.73046875 185.185546875 l 1
 158.73046875 132.275390625 l 1025
158.73046875 79.365234375 m 1
 317.459960938 79.365234375 l 1
 317.459960938 132.275390625 l 1
 158.73046875 132.275390625 l 1
 158.73046875 79.365234375 l 1025
158.73046875 26.455078125 m 1
 317.459960938 26.455078125 l 1
 317.459960938 79.365234375 l 1
 158.73046875 79.365234375 l 1
 158.73046875 26.455078125 l 1025
158.73046875 -26.455078125 m 1
 317.459960938 -26.455078125 l 1
 317.459960938 26.455078125 l 1
 158.73046875 26.455078125 l 1
 158.73046875 -26.455078125 l 1025
211.640625 -79.365234375 m 1
 370.370117188 -79.365234375 l 1
 370.370117188 -26.455078125 l 1
 211.640625 -26.455078125 l 1
 211.640625 -79.365234375 l 1025
211.640625 -132.275390625 m 1
 370.370117188 -132.275390625 l 1
 370.370117188 -79.365234375 l 1
 211.640625 -79.365234375 l 1
 211.640625 -132.275390625 l 1025
264.549804688 -185.185546875 m 1
 423.280273438 -185.185546875 l 1
 423.280273438 -132.275390625 l 1
 264.549804688 -132.275390625 l 1
 264.549804688 -185.185546875 l 1025
317.459960938 -238.095703125 m 1
 423.280273438 -238.095703125 l 1
 423.280273438 -185.185546875 l 1
 317.459960938 -185.185546875 l 1
 317.459960938 -238.095703125 l 1025
370.370117188 -291.005859375 m 1
 476.190429688 -291.005859375 l 1
 476.190429688 -238.095703125 l 1
 370.370117188 -238.095703125 l 1
 370.370117188 -291.005859375 l 1
EndSplineSet
EndChar

StartChar: parenright
Encoding: 41 41 9
Width: 523
VWidth: 0
Flags: HW
LayerCount: 2
Back
Fore
SplineSet
158.73046875 502.645507812 m 1
 264.549804688 502.645507812 l 1
 264.549804688 555.555664062 l 1
 158.73046875 555.555664062 l 1
 158.73046875 502.645507812 l 1025
211.640625 449.736328125 m 1
 317.459960938 449.736328125 l 1
 317.459960938 502.645507812 l 1
 211.640625 502.645507812 l 1
 211.640625 449.736328125 l 1025
211.640625 396.826171875 m 1
 370.370117188 396.826171875 l 1
 370.370117188 449.736328125 l 1
 211.640625 449.736328125 l 1
 211.640625 396.826171875 l 1025
264.549804688 343.916015625 m 1
 423.280273438 343.916015625 l 1
 423.280273438 396.826171875 l 1
 264.549804688 396.826171875 l 1
 264.549804688 343.916015625 l 1025
264.549804688 291.005859375 m 1
 423.280273438 291.005859375 l 1
 423.280273438 343.916015625 l 1
 264.549804688 343.916015625 l 1
 264.549804688 291.005859375 l 1025
317.459960938 238.095703125 m 1
 476.190429688 238.095703125 l 1
 476.190429688 291.005859375 l 1
 317.459960938 291.005859375 l 1
 317.459960938 238.095703125 l 1025
317.459960938 185.185546875 m 1
 476.190429688 185.185546875 l 1
 476.190429688 238.095703125 l 1
 317.459960938 238.095703125 l 1
 317.459960938 185.185546875 l 1025
317.459960938 132.275390625 m 1
 476.190429688 132.275390625 l 1
 476.190429688 185.185546875 l 1
 317.459960938 185.185546875 l 1
 317.459960938 132.275390625 l 1025
317.459960938 79.365234375 m 1
 476.190429688 79.365234375 l 1
 476.190429688 132.275390625 l 1
 317.459960938 132.275390625 l 1
 317.459960938 79.365234375 l 1025
317.459960938 26.455078125 m 1
 476.190429688 26.455078125 l 1
 476.190429688 79.365234375 l 1
 317.459960938 79.365234375 l 1
 317.459960938 26.455078125 l 1025
317.459960938 -26.455078125 m 1
 476.190429688 -26.455078125 l 1
 476.190429688 26.455078125 l 1
 317.459960938 26.455078125 l 1
 317.459960938 -26.455078125 l 1025
264.549804688 -79.365234375 m 1
 423.280273438 -79.365234375 l 1
 423.280273438 -26.455078125 l 1
 264.549804688 -26.455078125 l 1
 264.549804688 -79.365234375 l 1025
264.549804688 -132.275390625 m 1
 423.280273438 -132.275390625 l 1
 423.280273438 -79.365234375 l 1
 264.549804688 -79.365234375 l 1
 264.549804688 -132.275390625 l 1025
211.640625 -185.185546875 m 1
 370.370117188 -185.185546875 l 1
 370.370117188 -132.275390625 l 1
 211.640625 -132.275390625 l 1
 211.640625 -185.185546875 l 1025
211.640625 -238.095703125 m 1
 317.459960938 -238.095703125 l 1
 317.459960938 -185.185546875 l 1
 211.640625 -185.185546875 l 1
 211.640625 -238.095703125 l 1025
158.73046875 -291.005859375 m 1
 264.549804688 -291.005859375 l 1
 264.549804688 -238.095703125 l 1
 158.73046875 -238.095703125 l 1
 158.73046875 -291.005859375 l 1
EndSplineSet
EndChar

StartChar: asterisk
Encoding: 42 42 10
Width: 523
VWidth: 0
Flags: HW
LayerCount: 2
Back
Fore
SplineSet
264.549804688 343.916015625 m 1
 317.459960938 343.916015625 l 1
 317.459960938 396.826171875 l 1
 264.549804688 396.826171875 l 1
 264.549804688 343.916015625 l 1025
211.640625 291.005859375 m 1
 370.370117188 291.005859375 l 1
 370.370117188 343.916015625 l 1
 211.640625 343.916015625 l 1
 211.640625 291.005859375 l 1025
52.91015625 238.095703125 m 1
 158.73046875 238.095703125 l 1
 158.73046875 291.005859375 l 1
 52.91015625 291.005859375 l 1
 52.91015625 238.095703125 l 1025
211.640625 238.095703125 m 1
 370.370117188 238.095703125 l 1
 370.370117188 291.005859375 l 1
 211.640625 291.005859375 l 1
 211.640625 238.095703125 l 1025
423.280273438 238.095703125 m 1
 529.100585938 238.095703125 l 1
 529.100585938 291.005859375 l 1
 423.280273438 291.005859375 l 1
 423.280273438 238.095703125 l 1025
52.91015625 185.185546875 m 1
 529.100585938 185.185546875 l 1
 529.100585938 238.095703125 l 1
 52.91015625 238.095703125 l 1
 52.91015625 185.185546875 l 1025
158.73046875 132.275390625 m 1
 423.280273438 132.275390625 l 1
 423.280273438 185.185546875 l 1
 158.73046875 185.185546875 l 1
 158.73046875 132.275390625 l 1025
105.8203125 79.365234375 m 1
 264.549804688 79.365234375 l 1
 264.549804688 132.275390625 l 1
 105.8203125 132.275390625 l 1
 105.8203125 79.365234375 l 1025
317.459960938 79.365234375 m 1
 476.190429688 79.365234375 l 1
 476.190429688 132.275390625 l 1
 317.459960938 132.275390625 l 1
 317.459960938 79.365234375 l 1025
105.8203125 26.455078125 m 1
 211.640625 26.455078125 l 1
 211.640625 79.365234375 l 1
 105.8203125 79.365234375 l 1
 105.8203125 26.455078125 l 1025
370.370117188 26.455078125 m 1
 476.190429688 26.455078125 l 1
 476.190429688 79.365234375 l 1
 370.370117188 79.365234375 l 1
 370.370117188 26.455078125 l 1
EndSplineSet
EndChar

StartChar: plus
Encoding: 43 43 11
Width: 523
VWidth: 0
Flags: HW
LayerCount: 2
Back
Fore
SplineSet
211.640625 396.826171875 m 1
 370.370117188 396.826171875 l 1
 370.370117188 449.736328125 l 1
 211.640625 449.736328125 l 1
 211.640625 396.826171875 l 1025
211.640625 343.916015625 m 1
 370.370117188 343.916015625 l 1
 370.370117188 396.826171875 l 1
 211.640625 396.826171875 l 1
 211.640625 343.916015625 l 1025
211.640625 291.005859375 m 1
 370.370117188 291.005859375 l 1
 370.370117188 343.916015625 l 1
 211.640625 343.916015625 l 1
 211.640625 291.005859375 l 1025
211.640625 238.095703125 m 1
 370.370117188 238.095703125 l 1
 370.370117188 291.005859375 l 1
 211.640625 291.005859375 l 1
 211.640625 238.095703125 l 1025
52.91015625 185.185546875 m 1
 529.100585938 185.185546875 l 1
 529.100585938 238.095703125 l 1
 52.91015625 238.095703125 l 1
 52.91015625 185.185546875 l 1025
52.91015625 132.275390625 m 1
 529.100585938 132.275390625 l 1
 529.100585938 185.185546875 l 1
 52.91015625 185.185546875 l 1
 52.91015625 132.275390625 l 1025
211.640625 79.365234375 m 1
 370.370117188 79.365234375 l 1
 370.370117188 132.275390625 l 1
 211.640625 132.275390625 l 1
 211.640625 79.365234375 l 1025
211.640625 26.455078125 m 1
 370.370117188 26.455078125 l 1
 370.370117188 79.365234375 l 1
 211.640625 79.365234375 l 1
 211.640625 26.455078125 l 1025
211.640625 -26.455078125 m 1
 370.370117188 -26.455078125 l 1
 370.370117188 26.455078125 l 1
 211.640625 26.455078125 l 1
 211.640625 -26.455078125 l 1025
211.640625 -79.365234375 m 1
 370.370117188 -79.365234375 l 1
 370.370117188 -26.455078125 l 1
 211.640625 -26.455078125 l 1
 211.640625 -79.365234375 l 1
EndSplineSet
EndChar

StartChar: comma
Encoding: 44 44 12
Width: 523
VWidth: 0
Flags: HW
LayerCount: 2
Back
Fore
SplineSet
211.640625 26.455078125 m 1
 423.280273438 26.455078125 l 1
 423.280273438 79.365234375 l 1
 211.640625 79.365234375 l 1
 211.640625 26.455078125 l 1025
211.640625 -26.455078125 m 1
 370.370117188 -26.455078125 l 1
 370.370117188 26.455078125 l 1
 211.640625 26.455078125 l 1
 211.640625 -26.455078125 l 1025
211.640625 -79.365234375 m 1
 370.370117188 -79.365234375 l 1
 370.370117188 -26.455078125 l 1
 211.640625 -26.455078125 l 1
 211.640625 -79.365234375 l 1025
158.73046875 -132.275390625 m 1
 317.459960938 -132.275390625 l 1
 317.459960938 -79.365234375 l 1
 158.73046875 -79.365234375 l 1
 158.73046875 -132.275390625 l 1025
158.73046875 -185.185546875 m 1
 317.459960938 -185.185546875 l 1
 317.459960938 -132.275390625 l 1
 158.73046875 -132.275390625 l 1
 158.73046875 -185.185546875 l 1025
158.73046875 -238.095703125 m 1
 264.549804688 -238.095703125 l 1
 264.549804688 -185.185546875 l 1
 158.73046875 -185.185546875 l 1
 158.73046875 -238.095703125 l 1
EndSplineSet
EndChar

StartChar: minus
Encoding: 45 8722 13
Width: 523
VWidth: 0
Flags: HW
LayerCount: 2
Back
Fore
SplineSet
52.91015625 185.185546875 m 1
 529.100585938 185.185546875 l 1
 529.100585938 238.095703125 l 1
 52.91015625 238.095703125 l 1
 52.91015625 185.185546875 l 1025
52.91015625 132.275390625 m 1
 529.100585938 132.275390625 l 1
 529.100585938 185.185546875 l 1
 52.91015625 185.185546875 l 1
 52.91015625 132.275390625 l 1
EndSplineSet
EndChar

StartChar: period
Encoding: 46 46 14
Width: 523
VWidth: 0
Flags: HW
LayerCount: 2
Back
Fore
SplineSet
264.549804688 79.365234375 m 1
 370.370117188 79.365234375 l 1
 370.370117188 132.275390625 l 1
 264.549804688 132.275390625 l 1
 264.549804688 79.365234375 l 1025
211.640625 26.455078125 m 1
 423.280273438 26.455078125 l 1
 423.280273438 79.365234375 l 1
 211.640625 79.365234375 l 1
 211.640625 26.455078125 l 1025
211.640625 -26.455078125 m 1
 423.280273438 -26.455078125 l 1
 423.280273438 26.455078125 l 1
 211.640625 26.455078125 l 1
 211.640625 -26.455078125 l 1025
264.549804688 -79.365234375 m 1
 370.370117188 -79.365234375 l 1
 370.370117188 -26.455078125 l 1
 264.549804688 -26.455078125 l 1
 264.549804688 -79.365234375 l 1
EndSplineSet
EndChar

StartChar: slash
Encoding: 47 47 15
Width: 523
VWidth: 0
Flags: HW
LayerCount: 2
Back
Fore
SplineSet
423.280273438 502.645507812 m 1
 529.100585938 502.645507812 l 1
 529.100585938 555.555664062 l 1
 423.280273438 555.555664062 l 1
 423.280273438 502.645507812 l 1025
370.370117188 449.736328125 m 1
 529.100585938 449.736328125 l 1
 529.100585938 502.645507812 l 1
 370.370117188 502.645507812 l 1
 370.370117188 449.736328125 l 1025
370.370117188 396.826171875 m 1
 476.190429688 396.826171875 l 1
 476.190429688 449.736328125 l 1
 370.370117188 449.736328125 l 1
 370.370117188 396.826171875 l 1025
317.459960938 343.916015625 m 1
 476.190429688 343.916015625 l 1
 476.190429688 396.826171875 l 1
 317.459960938 396.826171875 l 1
 317.459960938 343.916015625 l 1025
317.459960938 291.005859375 m 1
 423.280273438 291.005859375 l 1
 423.280273438 343.916015625 l 1
 317.459960938 343.916015625 l 1
 317.459960938 291.005859375 l 1025
264.549804688 238.095703125 m 1
 423.280273438 238.095703125 l 1
 423.280273438 291.005859375 l 1
 264.549804688 291.005859375 l 1
 264.549804688 238.095703125 l 1025
264.549804688 185.185546875 m 1
 370.370117188 185.185546875 l 1
 370.370117188 238.095703125 l 1
 264.549804688 238.095703125 l 1
 264.549804688 185.185546875 l 1025
264.549804688 132.275390625 m 1
 370.370117188 132.275390625 l 1
 370.370117188 185.185546875 l 1
 264.549804688 185.185546875 l 1
 264.549804688 132.275390625 l 1025
211.640625 79.365234375 m 1
 370.370117188 79.365234375 l 1
 370.370117188 132.275390625 l 1
 211.640625 132.275390625 l 1
 211.640625 79.365234375 l 1025
211.640625 26.455078125 m 1
 317.459960938 26.455078125 l 1
 317.459960938 79.365234375 l 1
 211.640625 79.365234375 l 1
 211.640625 26.455078125 l 1025
158.73046875 -26.455078125 m 1
 317.459960938 -26.455078125 l 1
 317.459960938 26.455078125 l 1
 158.73046875 26.455078125 l 1
 158.73046875 -26.455078125 l 1025
158.73046875 -79.365234375 m 1
 264.549804688 -79.365234375 l 1
 264.549804688 -26.455078125 l 1
 158.73046875 -26.455078125 l 1
 158.73046875 -79.365234375 l 1025
105.8203125 -132.275390625 m 1
 264.549804688 -132.275390625 l 1
 264.549804688 -79.365234375 l 1
 105.8203125 -79.365234375 l 1
 105.8203125 -132.275390625 l 1025
105.8203125 -185.185546875 m 1
 211.640625 -185.185546875 l 1
 211.640625 -132.275390625 l 1
 105.8203125 -132.275390625 l 1
 105.8203125 -185.185546875 l 1
EndSplineSet
EndChar

StartChar: zero
Encoding: 48 48 16
Width: 523
VWidth: 0
Flags: HW
LayerCount: 2
Back
Fore
SplineSet
211.640625 449.736328125 m 1
 370.370117188 449.736328125 l 1
 370.370117188 502.645507812 l 1
 211.640625 502.645507812 l 1
 211.640625 449.736328125 l 1025
158.73046875 396.826171875 m 1
 423.280273438 396.826171875 l 1
 423.280273438 449.736328125 l 1
 158.73046875 449.736328125 l 1
 158.73046875 396.826171875 l 1025
105.8203125 343.916015625 m 1
 264.549804688 343.916015625 l 1
 264.549804688 396.826171875 l 1
 105.8203125 396.826171875 l 1
 105.8203125 343.916015625 l 1025
317.459960938 343.916015625 m 1
 476.190429688 343.916015625 l 1
 476.190429688 396.826171875 l 1
 317.459960938 396.826171875 l 1
 317.459960938 343.916015625 l 1025
52.91015625 291.005859375 m 1
 211.640625 291.005859375 l 1
 211.640625 343.916015625 l 1
 52.91015625 343.916015625 l 1
 52.91015625 291.005859375 l 1025
370.370117188 291.005859375 m 1
 529.100585938 291.005859375 l 1
 529.100585938 343.916015625 l 1
 370.370117188 343.916015625 l 1
 370.370117188 291.005859375 l 1025
52.91015625 238.095703125 m 1
 211.640625 238.095703125 l 1
 211.640625 291.005859375 l 1
 52.91015625 291.005859375 l 1
 52.91015625 238.095703125 l 1025
370.370117188 238.095703125 m 1
 529.100585938 238.095703125 l 1
 529.100585938 291.005859375 l 1
 370.370117188 291.005859375 l 1
 370.370117188 238.095703125 l 1025
52.91015625 185.185546875 m 1
 211.640625 185.185546875 l 1
 211.640625 238.095703125 l 1
 52.91015625 238.095703125 l 1
 52.91015625 185.185546875 l 1025
370.370117188 185.185546875 m 1
 529.100585938 185.185546875 l 1
 529.100585938 238.095703125 l 1
 370.370117188 238.095703125 l 1
 370.370117188 185.185546875 l 1025
52.91015625 132.275390625 m 1
 211.640625 132.275390625 l 1
 211.640625 185.185546875 l 1
 52.91015625 185.185546875 l 1
 52.91015625 132.275390625 l 1025
370.370117188 132.275390625 m 1
 529.100585938 132.275390625 l 1
 529.100585938 185.185546875 l 1
 370.370117188 185.185546875 l 1
 370.370117188 132.275390625 l 1025
52.91015625 79.365234375 m 1
 211.640625 79.365234375 l 1
 211.640625 132.275390625 l 1
 52.91015625 132.275390625 l 1
 52.91015625 79.365234375 l 1025
370.370117188 79.365234375 m 1
 529.100585938 79.365234375 l 1
 529.100585938 132.275390625 l 1
 370.370117188 132.275390625 l 1
 370.370117188 79.365234375 l 1025
105.8203125 26.455078125 m 1
 264.549804688 26.455078125 l 1
 264.549804688 79.365234375 l 1
 105.8203125 79.365234375 l 1
 105.8203125 26.455078125 l 1025
317.459960938 26.455078125 m 1
 476.190429688 26.455078125 l 1
 476.190429688 79.365234375 l 1
 317.459960938 79.365234375 l 1
 317.459960938 26.455078125 l 1025
158.73046875 -26.455078125 m 1
 423.280273438 -26.455078125 l 1
 423.280273438 26.455078125 l 1
 158.73046875 26.455078125 l 1
 158.73046875 -26.455078125 l 1025
211.640625 -79.365234375 m 1
 370.370117188 -79.365234375 l 1
 370.370117188 -26.455078125 l 1
 211.640625 -26.455078125 l 1
 211.640625 -79.365234375 l 1
EndSplineSet
EndChar

StartChar: one
Encoding: 49 49 17
Width: 523
VWidth: 0
Flags: HW
LayerCount: 2
Back
Fore
SplineSet
211.640625 449.736328125 m 1
 370.370117188 449.736328125 l 1
 370.370117188 502.645507812 l 1
 211.640625 502.645507812 l 1
 211.640625 449.736328125 l 1025
158.73046875 396.826171875 m 1
 370.370117188 396.826171875 l 1
 370.370117188 449.736328125 l 1
 158.73046875 449.736328125 l 1
 158.73046875 396.826171875 l 1025
105.8203125 343.916015625 m 1
 370.370117188 343.916015625 l 1
 370.370117188 396.826171875 l 1
 105.8203125 396.826171875 l 1
 105.8203125 343.916015625 l 1025
105.8203125 291.005859375 m 1
 158.73046875 291.005859375 l 1
 158.73046875 343.916015625 l 1
 105.8203125 343.916015625 l 1
 105.8203125 291.005859375 l 1025
211.640625 291.005859375 m 1
 370.370117188 291.005859375 l 1
 370.370117188 343.916015625 l 1
 211.640625 343.916015625 l 1
 211.640625 291.005859375 l 1025
211.640625 238.095703125 m 1
 370.370117188 238.095703125 l 1
 370.370117188 291.005859375 l 1
 211.640625 291.005859375 l 1
 211.640625 238.095703125 l 1025
211.640625 185.185546875 m 1
 370.370117188 185.185546875 l 1
 370.370117188 238.095703125 l 1
 211.640625 238.095703125 l 1
 211.640625 185.185546875 l 1025
211.640625 132.275390625 m 1
 370.370117188 132.275390625 l 1
 370.370117188 185.185546875 l 1
 211.640625 185.185546875 l 1
 211.640625 132.275390625 l 1025
211.640625 79.365234375 m 1
 370.370117188 79.365234375 l 1
 370.370117188 132.275390625 l 1
 211.640625 132.275390625 l 1
 211.640625 79.365234375 l 1025
211.640625 26.455078125 m 1
 370.370117188 26.455078125 l 1
 370.370117188 79.365234375 l 1
 211.640625 79.365234375 l 1
 211.640625 26.455078125 l 1025
105.8203125 -26.455078125 m 1
 476.190429688 -26.455078125 l 1
 476.190429688 26.455078125 l 1
 105.8203125 26.455078125 l 1
 105.8203125 -26.455078125 l 1025
105.8203125 -79.365234375 m 1
 476.190429688 -79.365234375 l 1
 476.190429688 -26.455078125 l 1
 105.8203125 -26.455078125 l 1
 105.8203125 -79.365234375 l 1
EndSplineSet
EndChar

StartChar: two
Encoding: 50 50 18
Width: 523
VWidth: 0
Flags: HW
LayerCount: 2
Back
Fore
SplineSet
158.73046875 449.736328125 m 1
 370.370117188 449.736328125 l 1
 370.370117188 502.645507812 l 1
 158.73046875 502.645507812 l 1
 158.73046875 449.736328125 l 1025
52.91015625 396.826171875 m 1
 476.190429688 396.826171875 l 1
 476.190429688 449.736328125 l 1
 52.91015625 449.736328125 l 1
 52.91015625 396.826171875 l 1025
52.91015625 343.916015625 m 1
 211.640625 343.916015625 l 1
 211.640625 396.826171875 l 1
 52.91015625 396.826171875 l 1
 52.91015625 343.916015625 l 1025
317.459960938 343.916015625 m 1
 476.190429688 343.916015625 l 1
 476.190429688 396.826171875 l 1
 317.459960938 396.826171875 l 1
 317.459960938 343.916015625 l 1025
52.91015625 291.005859375 m 1
 158.73046875 291.005859375 l 1
 158.73046875 343.916015625 l 1
 52.91015625 343.916015625 l 1
 52.91015625 291.005859375 l 1025
317.459960938 291.005859375 m 1
 476.190429688 291.005859375 l 1
 476.190429688 343.916015625 l 1
 317.459960938 343.916015625 l 1
 317.459960938 291.005859375 l 1025
317.459960938 238.095703125 m 1
 476.190429688 238.095703125 l 1
 476.190429688 291.005859375 l 1
 317.459960938 291.005859375 l 1
 317.459960938 238.095703125 l 1025
264.549804688 185.185546875 m 1
 423.280273438 185.185546875 l 1
 423.280273438 238.095703125 l 1
 264.549804688 238.095703125 l 1
 264.549804688 185.185546875 l 1025
211.640625 132.275390625 m 1
 370.370117188 132.275390625 l 1
 370.370117188 185.185546875 l 1
 211.640625 185.185546875 l 1
 211.640625 132.275390625 l 1025
158.73046875 79.365234375 m 1
 317.459960938 79.365234375 l 1
 317.459960938 132.275390625 l 1
 158.73046875 132.275390625 l 1
 158.73046875 79.365234375 l 1025
105.8203125 26.455078125 m 1
 264.549804688 26.455078125 l 1
 264.549804688 79.365234375 l 1
 105.8203125 79.365234375 l 1
 105.8203125 26.455078125 l 1025
370.370117188 26.455078125 m 1
 476.190429688 26.455078125 l 1
 476.190429688 79.365234375 l 1
 370.370117188 79.365234375 l 1
 370.370117188 26.455078125 l 1025
52.91015625 -26.455078125 m 1
 476.190429688 -26.455078125 l 1
 476.190429688 26.455078125 l 1
 52.91015625 26.455078125 l 1
 52.91015625 -26.455078125 l 1025
52.91015625 -79.365234375 m 1
 476.190429688 -79.365234375 l 1
 476.190429688 -26.455078125 l 1
 52.91015625 -26.455078125 l 1
 52.91015625 -79.365234375 l 1
EndSplineSet
EndChar

StartChar: three
Encoding: 51 51 19
Width: 523
VWidth: 0
Flags: HW
LayerCount: 2
Back
Fore
SplineSet
158.73046875 449.736328125 m 1
 370.370117188 449.736328125 l 1
 370.370117188 502.645507812 l 1
 158.73046875 502.645507812 l 1
 158.73046875 449.736328125 l 1025
52.91015625 396.826171875 m 1
 476.190429688 396.826171875 l 1
 476.190429688 449.736328125 l 1
 52.91015625 449.736328125 l 1
 52.91015625 396.826171875 l 1025
52.91015625 343.916015625 m 1
 158.73046875 343.916015625 l 1
 158.73046875 396.826171875 l 1
 52.91015625 396.826171875 l 1
 52.91015625 343.916015625 l 1025
317.459960938 343.916015625 m 1
 476.190429688 343.916015625 l 1
 476.190429688 396.826171875 l 1
 317.459960938 396.826171875 l 1
 317.459960938 343.916015625 l 1025
317.459960938 291.005859375 m 1
 476.190429688 291.005859375 l 1
 476.190429688 343.916015625 l 1
 317.459960938 343.916015625 l 1
 317.459960938 291.005859375 l 1025
211.640625 238.095703125 m 1
 423.280273438 238.095703125 l 1
 423.280273438 291.005859375 l 1
 211.640625 291.005859375 l 1
 211.640625 238.095703125 l 1025
211.640625 185.185546875 m 1
 423.280273438 185.185546875 l 1
 423.280273438 238.095703125 l 1
 211.640625 238.095703125 l 1
 211.640625 185.185546875 l 1025
317.459960938 132.275390625 m 1
 476.190429688 132.275390625 l 1
 476.190429688 185.185546875 l 1
 317.459960938 185.185546875 l 1
 317.459960938 132.275390625 l 1025
317.459960938 79.365234375 m 1
 476.190429688 79.365234375 l 1
 476.190429688 132.275390625 l 1
 317.459960938 132.275390625 l 1
 317.459960938 79.365234375 l 1025
52.91015625 26.455078125 m 1
 158.73046875 26.455078125 l 1
 158.73046875 79.365234375 l 1
 52.91015625 79.365234375 l 1
 52.91015625 26.455078125 l 1025
317.459960938 26.455078125 m 1
 476.190429688 26.455078125 l 1
 476.190429688 79.365234375 l 1
 317.459960938 79.365234375 l 1
 317.459960938 26.455078125 l 1025
52.91015625 -26.455078125 m 1
 476.190429688 -26.455078125 l 1
 476.190429688 26.455078125 l 1
 52.91015625 26.455078125 l 1
 52.91015625 -26.455078125 l 1025
105.8203125 -79.365234375 m 1
 370.370117188 -79.365234375 l 1
 370.370117188 -26.455078125 l 1
 105.8203125 -26.455078125 l 1
 105.8203125 -79.365234375 l 1
EndSplineSet
EndChar

StartChar: four
Encoding: 52 52 20
Width: 523
VWidth: 0
Flags: HW
LayerCount: 2
Back
Fore
SplineSet
264.549804688 449.736328125 m 1
 476.190429688 449.736328125 l 1
 476.190429688 502.645507812 l 1
 264.549804688 502.645507812 l 1
 264.549804688 449.736328125 l 1025
211.640625 396.826171875 m 1
 476.190429688 396.826171875 l 1
 476.190429688 449.736328125 l 1
 211.640625 449.736328125 l 1
 211.640625 396.826171875 l 1025
158.73046875 343.916015625 m 1
 476.190429688 343.916015625 l 1
 476.190429688 396.826171875 l 1
 158.73046875 396.826171875 l 1
 158.73046875 343.916015625 l 1025
158.73046875 291.005859375 m 1
 264.549804688 291.005859375 l 1
 264.549804688 343.916015625 l 1
 158.73046875 343.916015625 l 1
 158.73046875 291.005859375 l 1025
317.459960938 291.005859375 m 1
 476.190429688 291.005859375 l 1
 476.190429688 343.916015625 l 1
 317.459960938 343.916015625 l 1
 317.459960938 291.005859375 l 1025
105.8203125 238.095703125 m 1
 211.640625 238.095703125 l 1
 211.640625 291.005859375 l 1
 105.8203125 291.005859375 l 1
 105.8203125 238.095703125 l 1025
317.459960938 238.095703125 m 1
 476.190429688 238.095703125 l 1
 476.190429688 291.005859375 l 1
 317.459960938 291.005859375 l 1
 317.459960938 238.095703125 l 1025
52.91015625 185.185546875 m 1
 211.640625 185.185546875 l 1
 211.640625 238.095703125 l 1
 52.91015625 238.095703125 l 1
 52.91015625 185.185546875 l 1025
317.459960938 185.185546875 m 1
 476.190429688 185.185546875 l 1
 476.190429688 238.095703125 l 1
 317.459960938 238.095703125 l 1
 317.459960938 185.185546875 l 1025
52.91015625 132.275390625 m 1
 529.100585938 132.275390625 l 1
 529.100585938 185.185546875 l 1
 52.91015625 185.185546875 l 1
 52.91015625 132.275390625 l 1025
52.91015625 79.365234375 m 1
 529.100585938 79.365234375 l 1
 529.100585938 132.275390625 l 1
 52.91015625 132.275390625 l 1
 52.91015625 79.365234375 l 1025
317.459960938 26.455078125 m 1
 476.190429688 26.455078125 l 1
 476.190429688 79.365234375 l 1
 317.459960938 79.365234375 l 1
 317.459960938 26.455078125 l 1025
317.459960938 -26.455078125 m 1
 476.190429688 -26.455078125 l 1
 476.190429688 26.455078125 l 1
 317.459960938 26.455078125 l 1
 317.459960938 -26.455078125 l 1025
317.459960938 -79.365234375 m 1
 476.190429688 -79.365234375 l 1
 476.190429688 -26.455078125 l 1
 317.459960938 -26.455078125 l 1
 317.459960938 -79.365234375 l 1
EndSplineSet
EndChar

StartChar: five
Encoding: 53 53 21
Width: 523
VWidth: 0
Flags: HW
LayerCount: 2
Back
Fore
SplineSet
105.8203125 449.736328125 m 1
 529.100585938 449.736328125 l 1
 529.100585938 502.645507812 l 1
 105.8203125 502.645507812 l 1
 105.8203125 449.736328125 l 1025
105.8203125 396.826171875 m 1
 529.100585938 396.826171875 l 1
 529.100585938 449.736328125 l 1
 105.8203125 449.736328125 l 1
 105.8203125 396.826171875 l 1025
105.8203125 343.916015625 m 1
 264.549804688 343.916015625 l 1
 264.549804688 396.826171875 l 1
 105.8203125 396.826171875 l 1
 105.8203125 343.916015625 l 1025
105.8203125 291.005859375 m 1
 264.549804688 291.005859375 l 1
 264.549804688 343.916015625 l 1
 105.8203125 343.916015625 l 1
 105.8203125 291.005859375 l 1025
105.8203125 238.095703125 m 1
 476.190429688 238.095703125 l 1
 476.190429688 291.005859375 l 1
 105.8203125 291.005859375 l 1
 105.8203125 238.095703125 l 1025
105.8203125 185.185546875 m 1
 529.100585938 185.185546875 l 1
 529.100585938 238.095703125 l 1
 105.8203125 238.095703125 l 1
 105.8203125 185.185546875 l 1025
105.8203125 132.275390625 m 1
 211.640625 132.275390625 l 1
 211.640625 185.185546875 l 1
 105.8203125 185.185546875 l 1
 105.8203125 132.275390625 l 1025
370.370117188 132.275390625 m 1
 529.100585938 132.275390625 l 1
 529.100585938 185.185546875 l 1
 370.370117188 185.185546875 l 1
 370.370117188 132.275390625 l 1025
370.370117188 79.365234375 m 1
 529.100585938 79.365234375 l 1
 529.100585938 132.275390625 l 1
 370.370117188 132.275390625 l 1
 370.370117188 79.365234375 l 1025
105.8203125 26.455078125 m 1
 211.640625 26.455078125 l 1
 211.640625 79.365234375 l 1
 105.8203125 79.365234375 l 1
 105.8203125 26.455078125 l 1025
370.370117188 26.455078125 m 1
 529.100585938 26.455078125 l 1
 529.100585938 79.365234375 l 1
 370.370117188 79.365234375 l 1
 370.370117188 26.455078125 l 1025
105.8203125 -26.455078125 m 1
 529.100585938 -26.455078125 l 1
 529.100585938 26.455078125 l 1
 105.8203125 26.455078125 l 1
 105.8203125 -26.455078125 l 1025
158.73046875 -79.365234375 m 1
 476.190429688 -79.365234375 l 1
 476.190429688 -26.455078125 l 1
 158.73046875 -26.455078125 l 1
 158.73046875 -79.365234375 l 1
EndSplineSet
EndChar

StartChar: six
Encoding: 54 54 22
Width: 523
VWidth: 0
Flags: HW
LayerCount: 2
Back
Fore
SplineSet
211.640625 449.736328125 m 1
 476.190429688 449.736328125 l 1
 476.190429688 502.645507812 l 1
 211.640625 502.645507812 l 1
 211.640625 449.736328125 l 1025
105.8203125 396.826171875 m 1
 476.190429688 396.826171875 l 1
 476.190429688 449.736328125 l 1
 105.8203125 449.736328125 l 1
 105.8203125 396.826171875 l 1025
105.8203125 343.916015625 m 1
 264.549804688 343.916015625 l 1
 264.549804688 396.826171875 l 1
 105.8203125 396.826171875 l 1
 105.8203125 343.916015625 l 1025
52.91015625 291.005859375 m 1
 211.640625 291.005859375 l 1
 211.640625 343.916015625 l 1
 52.91015625 343.916015625 l 1
 52.91015625 291.005859375 l 1025
52.91015625 238.095703125 m 1
 211.640625 238.095703125 l 1
 211.640625 291.005859375 l 1
 52.91015625 291.005859375 l 1
 52.91015625 238.095703125 l 1025
264.549804688 238.095703125 m 1
 423.280273438 238.095703125 l 1
 423.280273438 291.005859375 l 1
 264.549804688 291.005859375 l 1
 264.549804688 238.095703125 l 1025
52.91015625 185.185546875 m 1
 476.190429688 185.185546875 l 1
 476.190429688 238.095703125 l 1
 52.91015625 238.095703125 l 1
 52.91015625 185.185546875 l 1025
52.91015625 132.275390625 m 1
 211.640625 132.275390625 l 1
 211.640625 185.185546875 l 1
 52.91015625 185.185546875 l 1
 52.91015625 132.275390625 l 1025
370.370117188 132.275390625 m 1
 529.100585938 132.275390625 l 1
 529.100585938 185.185546875 l 1
 370.370117188 185.185546875 l 1
 370.370117188 132.275390625 l 1025
52.91015625 79.365234375 m 1
 211.640625 79.365234375 l 1
 211.640625 132.275390625 l 1
 52.91015625 132.275390625 l 1
 52.91015625 79.365234375 l 1025
370.370117188 79.365234375 m 1
 529.100585938 79.365234375 l 1
 529.100585938 132.275390625 l 1
 370.370117188 132.275390625 l 1
 370.370117188 79.365234375 l 1025
52.91015625 26.455078125 m 1
 211.640625 26.455078125 l 1
 211.640625 79.365234375 l 1
 52.91015625 79.365234375 l 1
 52.91015625 26.455078125 l 1025
370.370117188 26.455078125 m 1
 529.100585938 26.455078125 l 1
 529.100585938 79.365234375 l 1
 370.370117188 79.365234375 l 1
 370.370117188 26.455078125 l 1025
105.8203125 -26.455078125 m 1
 476.190429688 -26.455078125 l 1
 476.190429688 26.455078125 l 1
 105.8203125 26.455078125 l 1
 105.8203125 -26.455078125 l 1025
158.73046875 -79.365234375 m 1
 423.280273438 -79.365234375 l 1
 423.280273438 -26.455078125 l 1
 158.73046875 -26.455078125 l 1
 158.73046875 -79.365234375 l 1
EndSplineSet
EndChar

StartChar: seven
Encoding: 55 55 23
Width: 523
VWidth: 0
Flags: HW
LayerCount: 2
Back
Fore
SplineSet
52.91015625 449.736328125 m 1
 529.100585938 449.736328125 l 1
 529.100585938 502.645507812 l 1
 52.91015625 502.645507812 l 1
 52.91015625 449.736328125 l 1025
52.91015625 396.826171875 m 1
 529.100585938 396.826171875 l 1
 529.100585938 449.736328125 l 1
 52.91015625 449.736328125 l 1
 52.91015625 396.826171875 l 1025
52.91015625 343.916015625 m 1
 158.73046875 343.916015625 l 1
 158.73046875 396.826171875 l 1
 52.91015625 396.826171875 l 1
 52.91015625 343.916015625 l 1025
370.370117188 343.916015625 m 1
 529.100585938 343.916015625 l 1
 529.100585938 396.826171875 l 1
 370.370117188 396.826171875 l 1
 370.370117188 343.916015625 l 1025
317.459960938 291.005859375 m 1
 476.190429688 291.005859375 l 1
 476.190429688 343.916015625 l 1
 317.459960938 343.916015625 l 1
 317.459960938 291.005859375 l 1025
317.459960938 238.095703125 m 1
 476.190429688 238.095703125 l 1
 476.190429688 291.005859375 l 1
 317.459960938 291.005859375 l 1
 317.459960938 238.095703125 l 1025
264.549804688 185.185546875 m 1
 423.280273438 185.185546875 l 1
 423.280273438 238.095703125 l 1
 264.549804688 238.095703125 l 1
 264.549804688 185.185546875 l 1025
264.549804688 132.275390625 m 1
 423.280273438 132.275390625 l 1
 423.280273438 185.185546875 l 1
 264.549804688 185.185546875 l 1
 264.549804688 132.275390625 l 1025
211.640625 79.365234375 m 1
 370.370117188 79.365234375 l 1
 370.370117188 132.275390625 l 1
 211.640625 132.275390625 l 1
 211.640625 79.365234375 l 1025
211.640625 26.455078125 m 1
 370.370117188 26.455078125 l 1
 370.370117188 79.365234375 l 1
 211.640625 79.365234375 l 1
 211.640625 26.455078125 l 1025
158.73046875 -26.455078125 m 1
 317.459960938 -26.455078125 l 1
 317.459960938 26.455078125 l 1
 158.73046875 26.455078125 l 1
 158.73046875 -26.455078125 l 1025
158.73046875 -79.365234375 m 1
 317.459960938 -79.365234375 l 1
 317.459960938 -26.455078125 l 1
 158.73046875 -26.455078125 l 1
 158.73046875 -79.365234375 l 1
EndSplineSet
EndChar

StartChar: eight
Encoding: 56 56 24
Width: 523
VWidth: 0
Flags: HW
LayerCount: 2
Back
Fore
SplineSet
158.73046875 449.736328125 m 1
 423.280273438 449.736328125 l 1
 423.280273438 502.645507812 l 1
 158.73046875 502.645507812 l 1
 158.73046875 449.736328125 l 1025
105.8203125 396.826171875 m 1
 476.190429688 396.826171875 l 1
 476.190429688 449.736328125 l 1
 105.8203125 449.736328125 l 1
 105.8203125 396.826171875 l 1025
52.91015625 343.916015625 m 1
 211.640625 343.916015625 l 1
 211.640625 396.826171875 l 1
 52.91015625 396.826171875 l 1
 52.91015625 343.916015625 l 1025
370.370117188 343.916015625 m 1
 529.100585938 343.916015625 l 1
 529.100585938 396.826171875 l 1
 370.370117188 396.826171875 l 1
 370.370117188 343.916015625 l 1025
52.91015625 291.005859375 m 1
 211.640625 291.005859375 l 1
 211.640625 343.916015625 l 1
 52.91015625 343.916015625 l 1
 52.91015625 291.005859375 l 1025
370.370117188 291.005859375 m 1
 529.100585938 291.005859375 l 1
 529.100585938 343.916015625 l 1
 370.370117188 343.916015625 l 1
 370.370117188 291.005859375 l 1025
105.8203125 238.095703125 m 1
 476.190429688 238.095703125 l 1
 476.190429688 291.005859375 l 1
 105.8203125 291.005859375 l 1
 105.8203125 238.095703125 l 1025
105.8203125 185.185546875 m 1
 476.190429688 185.185546875 l 1
 476.190429688 238.095703125 l 1
 105.8203125 238.095703125 l 1
 105.8203125 185.185546875 l 1025
52.91015625 132.275390625 m 1
 211.640625 132.275390625 l 1
 211.640625 185.185546875 l 1
 52.91015625 185.185546875 l 1
 52.91015625 132.275390625 l 1025
370.370117188 132.275390625 m 1
 529.100585938 132.275390625 l 1
 529.100585938 185.185546875 l 1
 370.370117188 185.185546875 l 1
 370.370117188 132.275390625 l 1025
52.91015625 79.365234375 m 1
 211.640625 79.365234375 l 1
 211.640625 132.275390625 l 1
 52.91015625 132.275390625 l 1
 52.91015625 79.365234375 l 1025
370.370117188 79.365234375 m 1
 529.100585938 79.365234375 l 1
 529.100585938 132.275390625 l 1
 370.370117188 132.275390625 l 1
 370.370117188 79.365234375 l 1025
52.91015625 26.455078125 m 1
 211.640625 26.455078125 l 1
 211.640625 79.365234375 l 1
 52.91015625 79.365234375 l 1
 52.91015625 26.455078125 l 1025
370.370117188 26.455078125 m 1
 529.100585938 26.455078125 l 1
 529.100585938 79.365234375 l 1
 370.370117188 79.365234375 l 1
 370.370117188 26.455078125 l 1025
105.8203125 -26.455078125 m 1
 476.190429688 -26.455078125 l 1
 476.190429688 26.455078125 l 1
 105.8203125 26.455078125 l 1
 105.8203125 -26.455078125 l 1025
158.73046875 -79.365234375 m 1
 423.280273438 -79.365234375 l 1
 423.280273438 -26.455078125 l 1
 158.73046875 -26.455078125 l 1
 158.73046875 -79.365234375 l 1
EndSplineSet
EndChar

StartChar: nine
Encoding: 57 57 25
Width: 523
VWidth: 0
Flags: HW
LayerCount: 2
Back
Fore
SplineSet
158.73046875 449.736328125 m 1
 423.280273438 449.736328125 l 1
 423.280273438 502.645507812 l 1
 158.73046875 502.645507812 l 1
 158.73046875 449.736328125 l 1025
105.8203125 396.826171875 m 1
 476.190429688 396.826171875 l 1
 476.190429688 449.736328125 l 1
 105.8203125 449.736328125 l 1
 105.8203125 396.826171875 l 1025
52.91015625 343.916015625 m 1
 211.640625 343.916015625 l 1
 211.640625 396.826171875 l 1
 52.91015625 396.826171875 l 1
 52.91015625 343.916015625 l 1025
370.370117188 343.916015625 m 1
 529.100585938 343.916015625 l 1
 529.100585938 396.826171875 l 1
 370.370117188 396.826171875 l 1
 370.370117188 343.916015625 l 1025
52.91015625 291.005859375 m 1
 211.640625 291.005859375 l 1
 211.640625 343.916015625 l 1
 52.91015625 343.916015625 l 1
 52.91015625 291.005859375 l 1025
370.370117188 291.005859375 m 1
 529.100585938 291.005859375 l 1
 529.100585938 343.916015625 l 1
 370.370117188 343.916015625 l 1
 370.370117188 291.005859375 l 1025
52.91015625 238.095703125 m 1
 211.640625 238.095703125 l 1
 211.640625 291.005859375 l 1
 52.91015625 291.005859375 l 1
 52.91015625 238.095703125 l 1025
370.370117188 238.095703125 m 1
 529.100585938 238.095703125 l 1
 529.100585938 291.005859375 l 1
 370.370117188 291.005859375 l 1
 370.370117188 238.095703125 l 1025
105.8203125 185.185546875 m 1
 529.100585938 185.185546875 l 1
 529.100585938 238.095703125 l 1
 105.8203125 238.095703125 l 1
 105.8203125 185.185546875 l 1025
158.73046875 132.275390625 m 1
 317.459960938 132.275390625 l 1
 317.459960938 185.185546875 l 1
 158.73046875 185.185546875 l 1
 158.73046875 132.275390625 l 1025
370.370117188 132.275390625 m 1
 529.100585938 132.275390625 l 1
 529.100585938 185.185546875 l 1
 370.370117188 185.185546875 l 1
 370.370117188 132.275390625 l 1025
370.370117188 79.365234375 m 1
 529.100585938 79.365234375 l 1
 529.100585938 132.275390625 l 1
 370.370117188 132.275390625 l 1
 370.370117188 79.365234375 l 1025
317.459960938 26.455078125 m 1
 476.190429688 26.455078125 l 1
 476.190429688 79.365234375 l 1
 317.459960938 79.365234375 l 1
 317.459960938 26.455078125 l 1025
105.8203125 -26.455078125 m 1
 476.190429688 -26.455078125 l 1
 476.190429688 26.455078125 l 1
 105.8203125 26.455078125 l 1
 105.8203125 -26.455078125 l 1025
105.8203125 -79.365234375 m 1
 370.370117188 -79.365234375 l 1
 370.370117188 -26.455078125 l 1
 105.8203125 -26.455078125 l 1
 105.8203125 -79.365234375 l 1
EndSplineSet
EndChar

StartChar: colon
Encoding: 58 58 26
Width: 523
VWidth: 0
Flags: HW
LayerCount: 2
Back
Fore
SplineSet
264.549804688 343.916015625 m 1
 370.370117188 343.916015625 l 1
 370.370117188 396.826171875 l 1
 264.549804688 396.826171875 l 1
 264.549804688 343.916015625 l 1025
211.640625 291.005859375 m 1
 423.280273438 291.005859375 l 1
 423.280273438 343.916015625 l 1
 211.640625 343.916015625 l 1
 211.640625 291.005859375 l 1025
211.640625 238.095703125 m 1
 423.280273438 238.095703125 l 1
 423.280273438 291.005859375 l 1
 211.640625 291.005859375 l 1
 211.640625 238.095703125 l 1025
264.549804688 185.185546875 m 1
 370.370117188 185.185546875 l 1
 370.370117188 238.095703125 l 1
 264.549804688 238.095703125 l 1
 264.549804688 185.185546875 l 1025
264.549804688 79.365234375 m 1
 370.370117188 79.365234375 l 1
 370.370117188 132.275390625 l 1
 264.549804688 132.275390625 l 1
 264.549804688 79.365234375 l 1025
211.640625 26.455078125 m 1
 423.280273438 26.455078125 l 1
 423.280273438 79.365234375 l 1
 211.640625 79.365234375 l 1
 211.640625 26.455078125 l 1025
211.640625 -26.455078125 m 1
 423.280273438 -26.455078125 l 1
 423.280273438 26.455078125 l 1
 211.640625 26.455078125 l 1
 211.640625 -26.455078125 l 1025
264.549804688 -79.365234375 m 1
 370.370117188 -79.365234375 l 1
 370.370117188 -26.455078125 l 1
 264.549804688 -26.455078125 l 1
 264.549804688 -79.365234375 l 1
EndSplineSet
EndChar

StartChar: semicolon
Encoding: 59 59 27
Width: 523
VWidth: 0
Flags: HW
LayerCount: 2
Back
Fore
SplineSet
264.549804688 343.916015625 m 1
 370.370117188 343.916015625 l 1
 370.370117188 396.826171875 l 1
 264.549804688 396.826171875 l 1
 264.549804688 343.916015625 l 1025
211.640625 291.005859375 m 1
 423.280273438 291.005859375 l 1
 423.280273438 343.916015625 l 1
 211.640625 343.916015625 l 1
 211.640625 291.005859375 l 1025
211.640625 238.095703125 m 1
 423.280273438 238.095703125 l 1
 423.280273438 291.005859375 l 1
 211.640625 291.005859375 l 1
 211.640625 238.095703125 l 1025
264.549804688 185.185546875 m 1
 370.370117188 185.185546875 l 1
 370.370117188 238.095703125 l 1
 264.549804688 238.095703125 l 1
 264.549804688 185.185546875 l 1025
211.640625 26.455078125 m 1
 423.280273438 26.455078125 l 1
 423.280273438 79.365234375 l 1
 211.640625 79.365234375 l 1
 211.640625 26.455078125 l 1025
211.640625 -26.455078125 m 1
 370.370117188 -26.455078125 l 1
 370.370117188 26.455078125 l 1
 211.640625 26.455078125 l 1
 211.640625 -26.455078125 l 1025
211.640625 -79.365234375 m 1
 370.370117188 -79.365234375 l 1
 370.370117188 -26.455078125 l 1
 211.640625 -26.455078125 l 1
 211.640625 -79.365234375 l 1025
158.73046875 -132.275390625 m 1
 317.459960938 -132.275390625 l 1
 317.459960938 -79.365234375 l 1
 158.73046875 -79.365234375 l 1
 158.73046875 -132.275390625 l 1025
158.73046875 -185.185546875 m 1
 317.459960938 -185.185546875 l 1
 317.459960938 -132.275390625 l 1
 158.73046875 -132.275390625 l 1
 158.73046875 -185.185546875 l 1025
158.73046875 -238.095703125 m 1
 264.549804688 -238.095703125 l 1
 264.549804688 -185.185546875 l 1
 158.73046875 -185.185546875 l 1
 158.73046875 -238.095703125 l 1
EndSplineSet
EndChar

StartChar: less
Encoding: 60 60 28
Width: 523
VWidth: 0
Flags: HW
LayerCount: 2
Back
Fore
SplineSet
423.280273438 396.826171875 m 1
 529.100585938 396.826171875 l 1
 529.100585938 449.736328125 l 1
 423.280273438 449.736328125 l 1
 423.280273438 396.826171875 l 1025
317.459960938 343.916015625 m 1
 529.100585938 343.916015625 l 1
 529.100585938 396.826171875 l 1
 317.459960938 396.826171875 l 1
 317.459960938 343.916015625 l 1025
211.640625 291.005859375 m 1
 476.190429688 291.005859375 l 1
 476.190429688 343.916015625 l 1
 211.640625 343.916015625 l 1
 211.640625 291.005859375 l 1025
105.8203125 238.095703125 m 1
 370.370117188 238.095703125 l 1
 370.370117188 291.005859375 l 1
 105.8203125 291.005859375 l 1
 105.8203125 238.095703125 l 1025
52.91015625 185.185546875 m 1
 264.549804688 185.185546875 l 1
 264.549804688 238.095703125 l 1
 52.91015625 238.095703125 l 1
 52.91015625 185.185546875 l 1025
105.8203125 132.275390625 m 1
 370.370117188 132.275390625 l 1
 370.370117188 185.185546875 l 1
 105.8203125 185.185546875 l 1
 105.8203125 132.275390625 l 1025
211.640625 79.365234375 m 1
 476.190429688 79.365234375 l 1
 476.190429688 132.275390625 l 1
 211.640625 132.275390625 l 1
 211.640625 79.365234375 l 1025
317.459960938 26.455078125 m 1
 529.100585938 26.455078125 l 1
 529.100585938 79.365234375 l 1
 317.459960938 79.365234375 l 1
 317.459960938 26.455078125 l 1025
423.280273438 -26.455078125 m 1
 529.100585938 -26.455078125 l 1
 529.100585938 26.455078125 l 1
 423.280273438 26.455078125 l 1
 423.280273438 -26.455078125 l 1
EndSplineSet
EndChar

StartChar: equal
Encoding: 61 61 29
Width: 523
VWidth: 0
Flags: HW
LayerCount: 2
Back
Fore
SplineSet
52.91015625 291.005859375 m 1
 529.100585938 291.005859375 l 1
 529.100585938 343.916015625 l 1
 52.91015625 343.916015625 l 1
 52.91015625 291.005859375 l 1025
52.91015625 238.095703125 m 1
 529.100585938 238.095703125 l 1
 529.100585938 291.005859375 l 1
 52.91015625 291.005859375 l 1
 52.91015625 238.095703125 l 1025
52.91015625 79.365234375 m 1
 529.100585938 79.365234375 l 1
 529.100585938 132.275390625 l 1
 52.91015625 132.275390625 l 1
 52.91015625 79.365234375 l 1025
52.91015625 26.455078125 m 1
 529.100585938 26.455078125 l 1
 529.100585938 79.365234375 l 1
 52.91015625 79.365234375 l 1
 52.91015625 26.455078125 l 1
EndSplineSet
EndChar

StartChar: greater
Encoding: 62 62 30
Width: 523
VWidth: 0
Flags: HW
LayerCount: 2
Back
Fore
SplineSet
52.91015625 396.826171875 m 1
 158.73046875 396.826171875 l 1
 158.73046875 449.736328125 l 1
 52.91015625 449.736328125 l 1
 52.91015625 396.826171875 l 1025
52.91015625 343.916015625 m 1
 264.549804688 343.916015625 l 1
 264.549804688 396.826171875 l 1
 52.91015625 396.826171875 l 1
 52.91015625 343.916015625 l 1025
105.8203125 291.005859375 m 1
 370.370117188 291.005859375 l 1
 370.370117188 343.916015625 l 1
 105.8203125 343.916015625 l 1
 105.8203125 291.005859375 l 1025
211.640625 238.095703125 m 1
 476.190429688 238.095703125 l 1
 476.190429688 291.005859375 l 1
 211.640625 291.005859375 l 1
 211.640625 238.095703125 l 1025
317.459960938 185.185546875 m 1
 529.100585938 185.185546875 l 1
 529.100585938 238.095703125 l 1
 317.459960938 238.095703125 l 1
 317.459960938 185.185546875 l 1025
211.640625 132.275390625 m 1
 476.190429688 132.275390625 l 1
 476.190429688 185.185546875 l 1
 211.640625 185.185546875 l 1
 211.640625 132.275390625 l 1025
105.8203125 79.365234375 m 1
 370.370117188 79.365234375 l 1
 370.370117188 132.275390625 l 1
 105.8203125 132.275390625 l 1
 105.8203125 79.365234375 l 1025
52.91015625 26.455078125 m 1
 264.549804688 26.455078125 l 1
 264.549804688 79.365234375 l 1
 52.91015625 79.365234375 l 1
 52.91015625 26.455078125 l 1025
52.91015625 -26.455078125 m 1
 158.73046875 -26.455078125 l 1
 158.73046875 26.455078125 l 1
 52.91015625 26.455078125 l 1
 52.91015625 -26.455078125 l 1
EndSplineSet
EndChar

StartChar: question
Encoding: 63 63 31
Width: 523
VWidth: 0
Flags: HW
LayerCount: 2
Back
Fore
SplineSet
158.73046875 449.736328125 m 1
 476.190429688 449.736328125 l 1
 476.190429688 502.645507812 l 1
 158.73046875 502.645507812 l 1
 158.73046875 449.736328125 l 1025
105.8203125 396.826171875 m 1
 529.100585938 396.826171875 l 1
 529.100585938 449.736328125 l 1
 105.8203125 449.736328125 l 1
 105.8203125 396.826171875 l 1025
105.8203125 343.916015625 m 1
 264.549804688 343.916015625 l 1
 264.549804688 396.826171875 l 1
 105.8203125 396.826171875 l 1
 105.8203125 343.916015625 l 1025
370.370117188 343.916015625 m 1
 529.100585938 343.916015625 l 1
 529.100585938 396.826171875 l 1
 370.370117188 396.826171875 l 1
 370.370117188 343.916015625 l 1025
370.370117188 291.005859375 m 1
 529.100585938 291.005859375 l 1
 529.100585938 343.916015625 l 1
 370.370117188 343.916015625 l 1
 370.370117188 291.005859375 l 1025
264.549804688 238.095703125 m 1
 476.190429688 238.095703125 l 1
 476.190429688 291.005859375 l 1
 264.549804688 291.005859375 l 1
 264.549804688 238.095703125 l 1025
211.640625 185.185546875 m 1
 423.280273438 185.185546875 l 1
 423.280273438 238.095703125 l 1
 211.640625 238.095703125 l 1
 211.640625 185.185546875 l 1025
211.640625 132.275390625 m 1
 370.370117188 132.275390625 l 1
 370.370117188 185.185546875 l 1
 211.640625 185.185546875 l 1
 211.640625 132.275390625 l 1025
211.640625 26.455078125 m 1
 370.370117188 26.455078125 l 1
 370.370117188 79.365234375 l 1
 211.640625 79.365234375 l 1
 211.640625 26.455078125 l 1025
158.73046875 -26.455078125 m 1
 423.280273438 -26.455078125 l 1
 423.280273438 26.455078125 l 1
 158.73046875 26.455078125 l 1
 158.73046875 -26.455078125 l 1025
211.640625 -79.365234375 m 1
 370.370117188 -79.365234375 l 1
 370.370117188 -26.455078125 l 1
 211.640625 -26.455078125 l 1
 211.640625 -79.365234375 l 1
EndSplineSet
EndChar

StartChar: at
Encoding: 64 64 32
Width: 523
VWidth: 0
Flags: HW
LayerCount: 2
Back
Fore
SplineSet
211.640625 502.645507812 m 1
 423.280273438 502.645507812 l 1
 423.280273438 555.555664062 l 1
 211.640625 555.555664062 l 1
 211.640625 502.645507812 l 1025
105.8203125 449.736328125 m 1
 476.190429688 449.736328125 l 1
 476.190429688 502.645507812 l 1
 105.8203125 502.645507812 l 1
 105.8203125 449.736328125 l 1025
105.8203125 396.826171875 m 1
 211.640625 396.826171875 l 1
 211.640625 449.736328125 l 1
 105.8203125 449.736328125 l 1
 105.8203125 396.826171875 l 1025
370.370117188 396.826171875 m 1
 529.100585938 396.826171875 l 1
 529.100585938 449.736328125 l 1
 370.370117188 449.736328125 l 1
 370.370117188 396.826171875 l 1025
52.91015625 343.916015625 m 1
 211.640625 343.916015625 l 1
 211.640625 396.826171875 l 1
 52.91015625 396.826171875 l 1
 52.91015625 343.916015625 l 1025
423.280273438 343.916015625 m 1
 529.100585938 343.916015625 l 1
 529.100585938 396.826171875 l 1
 423.280273438 396.826171875 l 1
 423.280273438 343.916015625 l 1025
52.91015625 291.005859375 m 1
 158.73046875 291.005859375 l 1
 158.73046875 343.916015625 l 1
 52.91015625 343.916015625 l 1
 52.91015625 291.005859375 l 1025
264.549804688 291.005859375 m 1
 529.100585938 291.005859375 l 1
 529.100585938 343.916015625 l 1
 264.549804688 343.916015625 l 1
 264.549804688 291.005859375 l 1025
52.91015625 238.095703125 m 1
 158.73046875 238.095703125 l 1
 158.73046875 291.005859375 l 1
 52.91015625 291.005859375 l 1
 52.91015625 238.095703125 l 1025
211.640625 238.095703125 m 1
 529.100585938 238.095703125 l 1
 529.100585938 291.005859375 l 1
 211.640625 291.005859375 l 1
 211.640625 238.095703125 l 1025
52.91015625 185.185546875 m 1
 158.73046875 185.185546875 l 1
 158.73046875 238.095703125 l 1
 52.91015625 238.095703125 l 1
 52.91015625 185.185546875 l 1025
211.640625 185.185546875 m 1
 317.459960938 185.185546875 l 1
 317.459960938 238.095703125 l 1
 211.640625 238.095703125 l 1
 211.640625 185.185546875 l 1025
423.280273438 185.185546875 m 1
 529.100585938 185.185546875 l 1
 529.100585938 238.095703125 l 1
 423.280273438 238.095703125 l 1
 423.280273438 185.185546875 l 1025
52.91015625 132.275390625 m 1
 158.73046875 132.275390625 l 1
 158.73046875 185.185546875 l 1
 52.91015625 185.185546875 l 1
 52.91015625 132.275390625 l 1025
211.640625 132.275390625 m 1
 317.459960938 132.275390625 l 1
 317.459960938 185.185546875 l 1
 211.640625 185.185546875 l 1
 211.640625 132.275390625 l 1025
423.280273438 132.275390625 m 1
 529.100585938 132.275390625 l 1
 529.100585938 185.185546875 l 1
 423.280273438 185.185546875 l 1
 423.280273438 132.275390625 l 1025
52.91015625 79.365234375 m 1
 158.73046875 79.365234375 l 1
 158.73046875 132.275390625 l 1
 52.91015625 132.275390625 l 1
 52.91015625 79.365234375 l 1025
211.640625 79.365234375 m 1
 582.010742188 79.365234375 l 1
 582.010742188 132.275390625 l 1
 211.640625 132.275390625 l 1
 211.640625 79.365234375 l 1025
52.91015625 26.455078125 m 1
 158.73046875 26.455078125 l 1
 158.73046875 79.365234375 l 1
 52.91015625 79.365234375 l 1
 52.91015625 26.455078125 l 1025
264.549804688 26.455078125 m 1
 423.280273438 26.455078125 l 1
 423.280273438 79.365234375 l 1
 264.549804688 79.365234375 l 1
 264.549804688 26.455078125 l 1025
476.190429688 26.455078125 m 1
 582.010742188 26.455078125 l 1
 582.010742188 79.365234375 l 1
 476.190429688 79.365234375 l 1
 476.190429688 26.455078125 l 1025
52.91015625 -26.455078125 m 1
 211.640625 -26.455078125 l 1
 211.640625 26.455078125 l 1
 52.91015625 26.455078125 l 1
 52.91015625 -26.455078125 l 1025
105.8203125 -79.365234375 m 1
 264.549804688 -79.365234375 l 1
 264.549804688 -26.455078125 l 1
 105.8203125 -26.455078125 l 1
 105.8203125 -79.365234375 l 1025
105.8203125 -132.275390625 m 1
 476.190429688 -132.275390625 l 1
 476.190429688 -79.365234375 l 1
 105.8203125 -79.365234375 l 1
 105.8203125 -132.275390625 l 1025
211.640625 -185.185546875 m 1
 476.190429688 -185.185546875 l 1
 476.190429688 -132.275390625 l 1
 211.640625 -132.275390625 l 1
 211.640625 -185.185546875 l 1
EndSplineSet
EndChar

StartChar: A
Encoding: 65 65 33
Width: 523
VWidth: 0
Flags: HW
LayerCount: 2
Back
Fore
SplineSet
211.640625 449.736328125 m 1
 423.280273438 449.736328125 l 1
 423.280273438 502.645507812 l 1
 211.640625 502.645507812 l 1
 211.640625 449.736328125 l 1025
211.640625 396.826171875 m 1
 423.280273438 396.826171875 l 1
 423.280273438 449.736328125 l 1
 211.640625 449.736328125 l 1
 211.640625 396.826171875 l 1025
211.640625 343.916015625 m 1
 423.280273438 343.916015625 l 1
 423.280273438 396.826171875 l 1
 211.640625 396.826171875 l 1
 211.640625 343.916015625 l 1025
158.73046875 291.005859375 m 1
 476.190429688 291.005859375 l 1
 476.190429688 343.916015625 l 1
 158.73046875 343.916015625 l 1
 158.73046875 291.005859375 l 1025
158.73046875 238.095703125 m 1
 264.549804688 238.095703125 l 1
 264.549804688 291.005859375 l 1
 158.73046875 291.005859375 l 1
 158.73046875 238.095703125 l 1025
370.370117188 238.095703125 m 1
 476.190429688 238.095703125 l 1
 476.190429688 291.005859375 l 1
 370.370117188 291.005859375 l 1
 370.370117188 238.095703125 l 1025
158.73046875 185.185546875 m 1
 264.549804688 185.185546875 l 1
 264.549804688 238.095703125 l 1
 158.73046875 238.095703125 l 1
 158.73046875 185.185546875 l 1025
370.370117188 185.185546875 m 1
 476.190429688 185.185546875 l 1
 476.190429688 238.095703125 l 1
 370.370117188 238.095703125 l 1
 370.370117188 185.185546875 l 1025
105.8203125 132.275390625 m 1
 529.100585938 132.275390625 l 1
 529.100585938 185.185546875 l 1
 105.8203125 185.185546875 l 1
 105.8203125 132.275390625 l 1025
105.8203125 79.365234375 m 1
 529.100585938 79.365234375 l 1
 529.100585938 132.275390625 l 1
 105.8203125 132.275390625 l 1
 105.8203125 79.365234375 l 1025
105.8203125 26.455078125 m 1
 211.640625 26.455078125 l 1
 211.640625 79.365234375 l 1
 105.8203125 79.365234375 l 1
 105.8203125 26.455078125 l 1025
423.280273438 26.455078125 m 1
 529.100585938 26.455078125 l 1
 529.100585938 79.365234375 l 1
 423.280273438 79.365234375 l 1
 423.280273438 26.455078125 l 1025
52.91015625 -26.455078125 m 1
 264.549804688 -26.455078125 l 1
 264.549804688 26.455078125 l 1
 52.91015625 26.455078125 l 1
 52.91015625 -26.455078125 l 1025
370.370117188 -26.455078125 m 1
 582.010742188 -26.455078125 l 1
 582.010742188 26.455078125 l 1
 370.370117188 26.455078125 l 1
 370.370117188 -26.455078125 l 1025
52.91015625 -79.365234375 m 1
 264.549804688 -79.365234375 l 1
 264.549804688 -26.455078125 l 1
 52.91015625 -26.455078125 l 1
 52.91015625 -79.365234375 l 1025
370.370117188 -79.365234375 m 1
 582.010742188 -79.365234375 l 1
 582.010742188 -26.455078125 l 1
 370.370117188 -26.455078125 l 1
 370.370117188 -79.365234375 l 1
EndSplineSet
EndChar

StartChar: B
Encoding: 66 66 34
Width: 523
VWidth: 0
Flags: HW
LayerCount: 2
Back
Fore
SplineSet
52.91015625 449.736328125 m 1
 476.190429688 449.736328125 l 1
 476.190429688 502.645507812 l 1
 52.91015625 502.645507812 l 1
 52.91015625 449.736328125 l 1025
52.91015625 396.826171875 m 1
 529.100585938 396.826171875 l 1
 529.100585938 449.736328125 l 1
 52.91015625 449.736328125 l 1
 52.91015625 396.826171875 l 1025
105.8203125 343.916015625 m 1
 264.549804688 343.916015625 l 1
 264.549804688 396.826171875 l 1
 105.8203125 396.826171875 l 1
 105.8203125 343.916015625 l 1025
370.370117188 343.916015625 m 1
 529.100585938 343.916015625 l 1
 529.100585938 396.826171875 l 1
 370.370117188 396.826171875 l 1
 370.370117188 343.916015625 l 1025
105.8203125 291.005859375 m 1
 264.549804688 291.005859375 l 1
 264.549804688 343.916015625 l 1
 105.8203125 343.916015625 l 1
 105.8203125 291.005859375 l 1025
370.370117188 291.005859375 m 1
 529.100585938 291.005859375 l 1
 529.100585938 343.916015625 l 1
 370.370117188 343.916015625 l 1
 370.370117188 291.005859375 l 1025
105.8203125 238.095703125 m 1
 476.190429688 238.095703125 l 1
 476.190429688 291.005859375 l 1
 105.8203125 291.005859375 l 1
 105.8203125 238.095703125 l 1025
105.8203125 185.185546875 m 1
 529.100585938 185.185546875 l 1
 529.100585938 238.095703125 l 1
 105.8203125 238.095703125 l 1
 105.8203125 185.185546875 l 1025
105.8203125 132.275390625 m 1
 264.549804688 132.275390625 l 1
 264.549804688 185.185546875 l 1
 105.8203125 185.185546875 l 1
 105.8203125 132.275390625 l 1025
423.280273438 132.275390625 m 1
 582.010742188 132.275390625 l 1
 582.010742188 185.185546875 l 1
 423.280273438 185.185546875 l 1
 423.280273438 132.275390625 l 1025
105.8203125 79.365234375 m 1
 264.549804688 79.365234375 l 1
 264.549804688 132.275390625 l 1
 105.8203125 132.275390625 l 1
 105.8203125 79.365234375 l 1025
423.280273438 79.365234375 m 1
 582.010742188 79.365234375 l 1
 582.010742188 132.275390625 l 1
 423.280273438 132.275390625 l 1
 423.280273438 79.365234375 l 1025
105.8203125 26.455078125 m 1
 264.549804688 26.455078125 l 1
 264.549804688 79.365234375 l 1
 105.8203125 79.365234375 l 1
 105.8203125 26.455078125 l 1025
423.280273438 26.455078125 m 1
 582.010742188 26.455078125 l 1
 582.010742188 79.365234375 l 1
 423.280273438 79.365234375 l 1
 423.280273438 26.455078125 l 1025
52.91015625 -26.455078125 m 1
 529.100585938 -26.455078125 l 1
 529.100585938 26.455078125 l 1
 52.91015625 26.455078125 l 1
 52.91015625 -26.455078125 l 1025
52.91015625 -79.365234375 m 1
 476.190429688 -79.365234375 l 1
 476.190429688 -26.455078125 l 1
 52.91015625 -26.455078125 l 1
 52.91015625 -79.365234375 l 1
EndSplineSet
EndChar

StartChar: C
Encoding: 67 67 35
Width: 523
VWidth: 0
Flags: HW
LayerCount: 2
Back
Fore
SplineSet
211.640625 449.736328125 m 1
 423.280273438 449.736328125 l 1
 423.280273438 502.645507812 l 1
 211.640625 502.645507812 l 1
 211.640625 449.736328125 l 1025
476.190429688 449.736328125 m 1
 582.010742188 449.736328125 l 1
 582.010742188 502.645507812 l 1
 476.190429688 502.645507812 l 1
 476.190429688 449.736328125 l 1025
105.8203125 396.826171875 m 1
 582.010742188 396.826171875 l 1
 582.010742188 449.736328125 l 1
 105.8203125 449.736328125 l 1
 105.8203125 396.826171875 l 1025
105.8203125 343.916015625 m 1
 264.549804688 343.916015625 l 1
 264.549804688 396.826171875 l 1
 105.8203125 396.826171875 l 1
 105.8203125 343.916015625 l 1025
423.280273438 343.916015625 m 1
 582.010742188 343.916015625 l 1
 582.010742188 396.826171875 l 1
 423.280273438 396.826171875 l 1
 423.280273438 343.916015625 l 1025
52.91015625 291.005859375 m 1
 211.640625 291.005859375 l 1
 211.640625 343.916015625 l 1
 52.91015625 343.916015625 l 1
 52.91015625 291.005859375 l 1025
476.190429688 291.005859375 m 1
 582.010742188 291.005859375 l 1
 582.010742188 343.916015625 l 1
 476.190429688 343.916015625 l 1
 476.190429688 291.005859375 l 1025
52.91015625 238.095703125 m 1
 211.640625 238.095703125 l 1
 211.640625 291.005859375 l 1
 52.91015625 291.005859375 l 1
 52.91015625 238.095703125 l 1025
52.91015625 185.185546875 m 1
 211.640625 185.185546875 l 1
 211.640625 238.095703125 l 1
 52.91015625 238.095703125 l 1
 52.91015625 185.185546875 l 1025
52.91015625 132.275390625 m 1
 211.640625 132.275390625 l 1
 211.640625 185.185546875 l 1
 52.91015625 185.185546875 l 1
 52.91015625 132.275390625 l 1025
52.91015625 79.365234375 m 1
 211.640625 79.365234375 l 1
 211.640625 132.275390625 l 1
 52.91015625 132.275390625 l 1
 52.91015625 79.365234375 l 1025
105.8203125 26.455078125 m 1
 264.549804688 26.455078125 l 1
 264.549804688 79.365234375 l 1
 105.8203125 79.365234375 l 1
 105.8203125 26.455078125 l 1025
423.280273438 26.455078125 m 1
 582.010742188 26.455078125 l 1
 582.010742188 79.365234375 l 1
 423.280273438 79.365234375 l 1
 423.280273438 26.455078125 l 1025
105.8203125 -26.455078125 m 1
 582.010742188 -26.455078125 l 1
 582.010742188 26.455078125 l 1
 105.8203125 26.455078125 l 1
 105.8203125 -26.455078125 l 1025
211.640625 -79.365234375 m 1
 476.190429688 -79.365234375 l 1
 476.190429688 -26.455078125 l 1
 211.640625 -26.455078125 l 1
 211.640625 -79.365234375 l 1
EndSplineSet
EndChar

StartChar: D
Encoding: 68 68 36
Width: 523
VWidth: 0
Flags: HW
LayerCount: 2
Back
Fore
SplineSet
52.91015625 449.736328125 m 1
 423.280273438 449.736328125 l 1
 423.280273438 502.645507812 l 1
 52.91015625 502.645507812 l 1
 52.91015625 449.736328125 l 1025
52.91015625 396.826171875 m 1
 529.100585938 396.826171875 l 1
 529.100585938 449.736328125 l 1
 52.91015625 449.736328125 l 1
 52.91015625 396.826171875 l 1025
105.8203125 343.916015625 m 1
 264.549804688 343.916015625 l 1
 264.549804688 396.826171875 l 1
 105.8203125 396.826171875 l 1
 105.8203125 343.916015625 l 1025
370.370117188 343.916015625 m 1
 529.100585938 343.916015625 l 1
 529.100585938 396.826171875 l 1
 370.370117188 396.826171875 l 1
 370.370117188 343.916015625 l 1025
105.8203125 291.005859375 m 1
 264.549804688 291.005859375 l 1
 264.549804688 343.916015625 l 1
 105.8203125 343.916015625 l 1
 105.8203125 291.005859375 l 1025
423.280273438 291.005859375 m 1
 582.010742188 291.005859375 l 1
 582.010742188 343.916015625 l 1
 423.280273438 343.916015625 l 1
 423.280273438 291.005859375 l 1025
105.8203125 238.095703125 m 1
 264.549804688 238.095703125 l 1
 264.549804688 291.005859375 l 1
 105.8203125 291.005859375 l 1
 105.8203125 238.095703125 l 1025
423.280273438 238.095703125 m 1
 582.010742188 238.095703125 l 1
 582.010742188 291.005859375 l 1
 423.280273438 291.005859375 l 1
 423.280273438 238.095703125 l 1025
105.8203125 185.185546875 m 1
 264.549804688 185.185546875 l 1
 264.549804688 238.095703125 l 1
 105.8203125 238.095703125 l 1
 105.8203125 185.185546875 l 1025
423.280273438 185.185546875 m 1
 582.010742188 185.185546875 l 1
 582.010742188 238.095703125 l 1
 423.280273438 238.095703125 l 1
 423.280273438 185.185546875 l 1025
105.8203125 132.275390625 m 1
 264.549804688 132.275390625 l 1
 264.549804688 185.185546875 l 1
 105.8203125 185.185546875 l 1
 105.8203125 132.275390625 l 1025
423.280273438 132.275390625 m 1
 582.010742188 132.275390625 l 1
 582.010742188 185.185546875 l 1
 423.280273438 185.185546875 l 1
 423.280273438 132.275390625 l 1025
105.8203125 79.365234375 m 1
 264.549804688 79.365234375 l 1
 264.549804688 132.275390625 l 1
 105.8203125 132.275390625 l 1
 105.8203125 79.365234375 l 1025
423.280273438 79.365234375 m 1
 582.010742188 79.365234375 l 1
 582.010742188 132.275390625 l 1
 423.280273438 132.275390625 l 1
 423.280273438 79.365234375 l 1025
105.8203125 26.455078125 m 1
 264.549804688 26.455078125 l 1
 264.549804688 79.365234375 l 1
 105.8203125 79.365234375 l 1
 105.8203125 26.455078125 l 1025
370.370117188 26.455078125 m 1
 529.100585938 26.455078125 l 1
 529.100585938 79.365234375 l 1
 370.370117188 79.365234375 l 1
 370.370117188 26.455078125 l 1025
52.91015625 -26.455078125 m 1
 529.100585938 -26.455078125 l 1
 529.100585938 26.455078125 l 1
 52.91015625 26.455078125 l 1
 52.91015625 -26.455078125 l 1025
52.91015625 -79.365234375 m 1
 423.280273438 -79.365234375 l 1
 423.280273438 -26.455078125 l 1
 52.91015625 -26.455078125 l 1
 52.91015625 -79.365234375 l 1
EndSplineSet
EndChar

StartChar: E
Encoding: 69 69 37
Width: 523
VWidth: 0
Flags: HW
LayerCount: 2
Back
Fore
SplineSet
52.91015625 449.736328125 m 1
 582.010742188 449.736328125 l 1
 582.010742188 502.645507812 l 1
 52.91015625 502.645507812 l 1
 52.91015625 449.736328125 l 1025
52.91015625 396.826171875 m 1
 582.010742188 396.826171875 l 1
 582.010742188 449.736328125 l 1
 52.91015625 449.736328125 l 1
 52.91015625 396.826171875 l 1025
105.8203125 343.916015625 m 1
 264.549804688 343.916015625 l 1
 264.549804688 396.826171875 l 1
 105.8203125 396.826171875 l 1
 105.8203125 343.916015625 l 1025
476.190429688 343.916015625 m 1
 582.010742188 343.916015625 l 1
 582.010742188 396.826171875 l 1
 476.190429688 396.826171875 l 1
 476.190429688 343.916015625 l 1025
105.8203125 291.005859375 m 1
 264.549804688 291.005859375 l 1
 264.549804688 343.916015625 l 1
 105.8203125 343.916015625 l 1
 105.8203125 291.005859375 l 1025
317.459960938 291.005859375 m 1
 423.280273438 291.005859375 l 1
 423.280273438 343.916015625 l 1
 317.459960938 343.916015625 l 1
 317.459960938 291.005859375 l 1025
476.190429688 291.005859375 m 1
 582.010742188 291.005859375 l 1
 582.010742188 343.916015625 l 1
 476.190429688 343.916015625 l 1
 476.190429688 291.005859375 l 1025
105.8203125 238.095703125 m 1
 423.280273438 238.095703125 l 1
 423.280273438 291.005859375 l 1
 105.8203125 291.005859375 l 1
 105.8203125 238.095703125 l 1025
105.8203125 185.185546875 m 1
 423.280273438 185.185546875 l 1
 423.280273438 238.095703125 l 1
 105.8203125 238.095703125 l 1
 105.8203125 185.185546875 l 1025
105.8203125 132.275390625 m 1
 264.549804688 132.275390625 l 1
 264.549804688 185.185546875 l 1
 105.8203125 185.185546875 l 1
 105.8203125 132.275390625 l 1025
317.459960938 132.275390625 m 1
 423.280273438 132.275390625 l 1
 423.280273438 185.185546875 l 1
 317.459960938 185.185546875 l 1
 317.459960938 132.275390625 l 1025
105.8203125 79.365234375 m 1
 264.549804688 79.365234375 l 1
 264.549804688 132.275390625 l 1
 105.8203125 132.275390625 l 1
 105.8203125 79.365234375 l 1025
476.190429688 79.365234375 m 1
 582.010742188 79.365234375 l 1
 582.010742188 132.275390625 l 1
 476.190429688 132.275390625 l 1
 476.190429688 79.365234375 l 1025
105.8203125 26.455078125 m 1
 264.549804688 26.455078125 l 1
 264.549804688 79.365234375 l 1
 105.8203125 79.365234375 l 1
 105.8203125 26.455078125 l 1025
476.190429688 26.455078125 m 1
 582.010742188 26.455078125 l 1
 582.010742188 79.365234375 l 1
 476.190429688 79.365234375 l 1
 476.190429688 26.455078125 l 1025
52.91015625 -26.455078125 m 1
 582.010742188 -26.455078125 l 1
 582.010742188 26.455078125 l 1
 52.91015625 26.455078125 l 1
 52.91015625 -26.455078125 l 1025
52.91015625 -79.365234375 m 1
 582.010742188 -79.365234375 l 1
 582.010742188 -26.455078125 l 1
 52.91015625 -26.455078125 l 1
 52.91015625 -79.365234375 l 1
EndSplineSet
EndChar

StartChar: F
Encoding: 70 70 38
Width: 523
VWidth: 0
Flags: HW
LayerCount: 2
Back
Fore
SplineSet
52.91015625 449.736328125 m 1
 582.010742188 449.736328125 l 1
 582.010742188 502.645507812 l 1
 52.91015625 502.645507812 l 1
 52.91015625 449.736328125 l 1025
52.91015625 396.826171875 m 1
 582.010742188 396.826171875 l 1
 582.010742188 449.736328125 l 1
 52.91015625 449.736328125 l 1
 52.91015625 396.826171875 l 1025
105.8203125 343.916015625 m 1
 264.549804688 343.916015625 l 1
 264.549804688 396.826171875 l 1
 105.8203125 396.826171875 l 1
 105.8203125 343.916015625 l 1025
476.190429688 343.916015625 m 1
 582.010742188 343.916015625 l 1
 582.010742188 396.826171875 l 1
 476.190429688 396.826171875 l 1
 476.190429688 343.916015625 l 1025
105.8203125 291.005859375 m 1
 264.549804688 291.005859375 l 1
 264.549804688 343.916015625 l 1
 105.8203125 343.916015625 l 1
 105.8203125 291.005859375 l 1025
317.459960938 291.005859375 m 1
 423.280273438 291.005859375 l 1
 423.280273438 343.916015625 l 1
 317.459960938 343.916015625 l 1
 317.459960938 291.005859375 l 1025
476.190429688 291.005859375 m 1
 582.010742188 291.005859375 l 1
 582.010742188 343.916015625 l 1
 476.190429688 343.916015625 l 1
 476.190429688 291.005859375 l 1025
105.8203125 238.095703125 m 1
 423.280273438 238.095703125 l 1
 423.280273438 291.005859375 l 1
 105.8203125 291.005859375 l 1
 105.8203125 238.095703125 l 1025
105.8203125 185.185546875 m 1
 423.280273438 185.185546875 l 1
 423.280273438 238.095703125 l 1
 105.8203125 238.095703125 l 1
 105.8203125 185.185546875 l 1025
105.8203125 132.275390625 m 1
 264.549804688 132.275390625 l 1
 264.549804688 185.185546875 l 1
 105.8203125 185.185546875 l 1
 105.8203125 132.275390625 l 1025
317.459960938 132.275390625 m 1
 423.280273438 132.275390625 l 1
 423.280273438 185.185546875 l 1
 317.459960938 185.185546875 l 1
 317.459960938 132.275390625 l 1025
105.8203125 79.365234375 m 1
 264.549804688 79.365234375 l 1
 264.549804688 132.275390625 l 1
 105.8203125 132.275390625 l 1
 105.8203125 79.365234375 l 1025
105.8203125 26.455078125 m 1
 264.549804688 26.455078125 l 1
 264.549804688 79.365234375 l 1
 105.8203125 79.365234375 l 1
 105.8203125 26.455078125 l 1025
52.91015625 -26.455078125 m 1
 317.459960938 -26.455078125 l 1
 317.459960938 26.455078125 l 1
 52.91015625 26.455078125 l 1
 52.91015625 -26.455078125 l 1025
52.91015625 -79.365234375 m 1
 317.459960938 -79.365234375 l 1
 317.459960938 -26.455078125 l 1
 52.91015625 -26.455078125 l 1
 52.91015625 -79.365234375 l 1
EndSplineSet
EndChar

StartChar: G
Encoding: 71 71 39
Width: 523
VWidth: 0
Flags: HW
LayerCount: 2
Back
Fore
SplineSet
211.640625 449.736328125 m 1
 423.280273438 449.736328125 l 1
 423.280273438 502.645507812 l 1
 211.640625 502.645507812 l 1
 211.640625 449.736328125 l 1025
476.190429688 449.736328125 m 1
 582.010742188 449.736328125 l 1
 582.010742188 502.645507812 l 1
 476.190429688 502.645507812 l 1
 476.190429688 449.736328125 l 1025
105.8203125 396.826171875 m 1
 582.010742188 396.826171875 l 1
 582.010742188 449.736328125 l 1
 105.8203125 449.736328125 l 1
 105.8203125 396.826171875 l 1025
105.8203125 343.916015625 m 1
 264.549804688 343.916015625 l 1
 264.549804688 396.826171875 l 1
 105.8203125 396.826171875 l 1
 105.8203125 343.916015625 l 1025
423.280273438 343.916015625 m 1
 582.010742188 343.916015625 l 1
 582.010742188 396.826171875 l 1
 423.280273438 396.826171875 l 1
 423.280273438 343.916015625 l 1025
52.91015625 291.005859375 m 1
 211.640625 291.005859375 l 1
 211.640625 343.916015625 l 1
 52.91015625 343.916015625 l 1
 52.91015625 291.005859375 l 1025
476.190429688 291.005859375 m 1
 582.010742188 291.005859375 l 1
 582.010742188 343.916015625 l 1
 476.190429688 343.916015625 l 1
 476.190429688 291.005859375 l 1025
52.91015625 238.095703125 m 1
 211.640625 238.095703125 l 1
 211.640625 291.005859375 l 1
 52.91015625 291.005859375 l 1
 52.91015625 238.095703125 l 1025
52.91015625 185.185546875 m 1
 211.640625 185.185546875 l 1
 211.640625 238.095703125 l 1
 52.91015625 238.095703125 l 1
 52.91015625 185.185546875 l 1025
317.459960938 185.185546875 m 1
 582.010742188 185.185546875 l 1
 582.010742188 238.095703125 l 1
 317.459960938 238.095703125 l 1
 317.459960938 185.185546875 l 1025
52.91015625 132.275390625 m 1
 211.640625 132.275390625 l 1
 211.640625 185.185546875 l 1
 52.91015625 185.185546875 l 1
 52.91015625 132.275390625 l 1025
317.459960938 132.275390625 m 1
 582.010742188 132.275390625 l 1
 582.010742188 185.185546875 l 1
 317.459960938 185.185546875 l 1
 317.459960938 132.275390625 l 1025
52.91015625 79.365234375 m 1
 211.640625 79.365234375 l 1
 211.640625 132.275390625 l 1
 52.91015625 132.275390625 l 1
 52.91015625 79.365234375 l 1025
423.280273438 79.365234375 m 1
 582.010742188 79.365234375 l 1
 582.010742188 132.275390625 l 1
 423.280273438 132.275390625 l 1
 423.280273438 79.365234375 l 1025
105.8203125 26.455078125 m 1
 264.549804688 26.455078125 l 1
 264.549804688 79.365234375 l 1
 105.8203125 79.365234375 l 1
 105.8203125 26.455078125 l 1025
423.280273438 26.455078125 m 1
 582.010742188 26.455078125 l 1
 582.010742188 79.365234375 l 1
 423.280273438 79.365234375 l 1
 423.280273438 26.455078125 l 1025
105.8203125 -26.455078125 m 1
 582.010742188 -26.455078125 l 1
 582.010742188 26.455078125 l 1
 105.8203125 26.455078125 l 1
 105.8203125 -26.455078125 l 1025
211.640625 -79.365234375 m 1
 476.190429688 -79.365234375 l 1
 476.190429688 -26.455078125 l 1
 211.640625 -26.455078125 l 1
 211.640625 -79.365234375 l 1
EndSplineSet
EndChar

StartChar: H
Encoding: 72 72 40
Width: 523
VWidth: 0
Flags: HW
LayerCount: 2
Back
Fore
SplineSet
52.91015625 449.736328125 m 1
 264.549804688 449.736328125 l 1
 264.549804688 502.645507812 l 1
 52.91015625 502.645507812 l 1
 52.91015625 449.736328125 l 1025
370.370117188 449.736328125 m 1
 582.010742188 449.736328125 l 1
 582.010742188 502.645507812 l 1
 370.370117188 502.645507812 l 1
 370.370117188 449.736328125 l 1025
52.91015625 396.826171875 m 1
 264.549804688 396.826171875 l 1
 264.549804688 449.736328125 l 1
 52.91015625 449.736328125 l 1
 52.91015625 396.826171875 l 1025
370.370117188 396.826171875 m 1
 582.010742188 396.826171875 l 1
 582.010742188 449.736328125 l 1
 370.370117188 449.736328125 l 1
 370.370117188 396.826171875 l 1025
105.8203125 343.916015625 m 1
 264.549804688 343.916015625 l 1
 264.549804688 396.826171875 l 1
 105.8203125 396.826171875 l 1
 105.8203125 343.916015625 l 1025
370.370117188 343.916015625 m 1
 529.100585938 343.916015625 l 1
 529.100585938 396.826171875 l 1
 370.370117188 396.826171875 l 1
 370.370117188 343.916015625 l 1025
105.8203125 291.005859375 m 1
 264.549804688 291.005859375 l 1
 264.549804688 343.916015625 l 1
 105.8203125 343.916015625 l 1
 105.8203125 291.005859375 l 1025
370.370117188 291.005859375 m 1
 529.100585938 291.005859375 l 1
 529.100585938 343.916015625 l 1
 370.370117188 343.916015625 l 1
 370.370117188 291.005859375 l 1025
105.8203125 238.095703125 m 1
 529.100585938 238.095703125 l 1
 529.100585938 291.005859375 l 1
 105.8203125 291.005859375 l 1
 105.8203125 238.095703125 l 1025
105.8203125 185.185546875 m 1
 529.100585938 185.185546875 l 1
 529.100585938 238.095703125 l 1
 105.8203125 238.095703125 l 1
 105.8203125 185.185546875 l 1025
105.8203125 132.275390625 m 1
 264.549804688 132.275390625 l 1
 264.549804688 185.185546875 l 1
 105.8203125 185.185546875 l 1
 105.8203125 132.275390625 l 1025
370.370117188 132.275390625 m 1
 529.100585938 132.275390625 l 1
 529.100585938 185.185546875 l 1
 370.370117188 185.185546875 l 1
 370.370117188 132.275390625 l 1025
105.8203125 79.365234375 m 1
 264.549804688 79.365234375 l 1
 264.549804688 132.275390625 l 1
 105.8203125 132.275390625 l 1
 105.8203125 79.365234375 l 1025
370.370117188 79.365234375 m 1
 529.100585938 79.365234375 l 1
 529.100585938 132.275390625 l 1
 370.370117188 132.275390625 l 1
 370.370117188 79.365234375 l 1025
105.8203125 26.455078125 m 1
 264.549804688 26.455078125 l 1
 264.549804688 79.365234375 l 1
 105.8203125 79.365234375 l 1
 105.8203125 26.455078125 l 1025
370.370117188 26.455078125 m 1
 529.100585938 26.455078125 l 1
 529.100585938 79.365234375 l 1
 370.370117188 79.365234375 l 1
 370.370117188 26.455078125 l 1025
52.91015625 -26.455078125 m 1
 264.549804688 -26.455078125 l 1
 264.549804688 26.455078125 l 1
 52.91015625 26.455078125 l 1
 52.91015625 -26.455078125 l 1025
370.370117188 -26.455078125 m 1
 582.010742188 -26.455078125 l 1
 582.010742188 26.455078125 l 1
 370.370117188 26.455078125 l 1
 370.370117188 -26.455078125 l 1025
52.91015625 -79.365234375 m 1
 264.549804688 -79.365234375 l 1
 264.549804688 -26.455078125 l 1
 52.91015625 -26.455078125 l 1
 52.91015625 -79.365234375 l 1025
370.370117188 -79.365234375 m 1
 582.010742188 -79.365234375 l 1
 582.010742188 -26.455078125 l 1
 370.370117188 -26.455078125 l 1
 370.370117188 -79.365234375 l 1
EndSplineSet
EndChar

StartChar: I
Encoding: 73 73 41
Width: 523
VWidth: 0
Flags: HW
LayerCount: 2
Back
Fore
SplineSet
52.91015625 449.736328125 m 1
 529.100585938 449.736328125 l 1
 529.100585938 502.645507812 l 1
 52.91015625 502.645507812 l 1
 52.91015625 449.736328125 l 1025
52.91015625 396.826171875 m 1
 529.100585938 396.826171875 l 1
 529.100585938 449.736328125 l 1
 52.91015625 449.736328125 l 1
 52.91015625 396.826171875 l 1025
211.640625 343.916015625 m 1
 370.370117188 343.916015625 l 1
 370.370117188 396.826171875 l 1
 211.640625 396.826171875 l 1
 211.640625 343.916015625 l 1025
211.640625 291.005859375 m 1
 370.370117188 291.005859375 l 1
 370.370117188 343.916015625 l 1
 211.640625 343.916015625 l 1
 211.640625 291.005859375 l 1025
211.640625 238.095703125 m 1
 370.370117188 238.095703125 l 1
 370.370117188 291.005859375 l 1
 211.640625 291.005859375 l 1
 211.640625 238.095703125 l 1025
211.640625 185.185546875 m 1
 370.370117188 185.185546875 l 1
 370.370117188 238.095703125 l 1
 211.640625 238.095703125 l 1
 211.640625 185.185546875 l 1025
211.640625 132.275390625 m 1
 370.370117188 132.275390625 l 1
 370.370117188 185.185546875 l 1
 211.640625 185.185546875 l 1
 211.640625 132.275390625 l 1025
211.640625 79.365234375 m 1
 370.370117188 79.365234375 l 1
 370.370117188 132.275390625 l 1
 211.640625 132.275390625 l 1
 211.640625 79.365234375 l 1025
211.640625 26.455078125 m 1
 370.370117188 26.455078125 l 1
 370.370117188 79.365234375 l 1
 211.640625 79.365234375 l 1
 211.640625 26.455078125 l 1025
52.91015625 -26.455078125 m 1
 529.100585938 -26.455078125 l 1
 529.100585938 26.455078125 l 1
 52.91015625 26.455078125 l 1
 52.91015625 -26.455078125 l 1025
52.91015625 -79.365234375 m 1
 529.100585938 -79.365234375 l 1
 529.100585938 -26.455078125 l 1
 52.91015625 -26.455078125 l 1
 52.91015625 -79.365234375 l 1
EndSplineSet
EndChar

StartChar: J
Encoding: 74 74 42
Width: 523
VWidth: 0
Flags: HW
LayerCount: 2
Back
Fore
SplineSet
211.640625 449.736328125 m 1
 582.010742188 449.736328125 l 1
 582.010742188 502.645507812 l 1
 211.640625 502.645507812 l 1
 211.640625 449.736328125 l 1025
211.640625 396.826171875 m 1
 582.010742188 396.826171875 l 1
 582.010742188 449.736328125 l 1
 211.640625 449.736328125 l 1
 211.640625 396.826171875 l 1025
317.459960938 343.916015625 m 1
 476.190429688 343.916015625 l 1
 476.190429688 396.826171875 l 1
 317.459960938 396.826171875 l 1
 317.459960938 343.916015625 l 1025
317.459960938 291.005859375 m 1
 476.190429688 291.005859375 l 1
 476.190429688 343.916015625 l 1
 317.459960938 343.916015625 l 1
 317.459960938 291.005859375 l 1025
317.459960938 238.095703125 m 1
 476.190429688 238.095703125 l 1
 476.190429688 291.005859375 l 1
 317.459960938 291.005859375 l 1
 317.459960938 238.095703125 l 1025
317.459960938 185.185546875 m 1
 476.190429688 185.185546875 l 1
 476.190429688 238.095703125 l 1
 317.459960938 238.095703125 l 1
 317.459960938 185.185546875 l 1025
52.91015625 132.275390625 m 1
 158.73046875 132.275390625 l 1
 158.73046875 185.185546875 l 1
 52.91015625 185.185546875 l 1
 52.91015625 132.275390625 l 1025
317.459960938 132.275390625 m 1
 476.190429688 132.275390625 l 1
 476.190429688 185.185546875 l 1
 317.459960938 185.185546875 l 1
 317.459960938 132.275390625 l 1025
52.91015625 79.365234375 m 1
 158.73046875 79.365234375 l 1
 158.73046875 132.275390625 l 1
 52.91015625 132.275390625 l 1
 52.91015625 79.365234375 l 1025
317.459960938 79.365234375 m 1
 476.190429688 79.365234375 l 1
 476.190429688 132.275390625 l 1
 317.459960938 132.275390625 l 1
 317.459960938 79.365234375 l 1025
52.91015625 26.455078125 m 1
 211.640625 26.455078125 l 1
 211.640625 79.365234375 l 1
 52.91015625 79.365234375 l 1
 52.91015625 26.455078125 l 1025
317.459960938 26.455078125 m 1
 476.190429688 26.455078125 l 1
 476.190429688 79.365234375 l 1
 317.459960938 79.365234375 l 1
 317.459960938 26.455078125 l 1025
52.91015625 -26.455078125 m 1
 476.190429688 -26.455078125 l 1
 476.190429688 26.455078125 l 1
 52.91015625 26.455078125 l 1
 52.91015625 -26.455078125 l 1025
105.8203125 -79.365234375 m 1
 423.280273438 -79.365234375 l 1
 423.280273438 -26.455078125 l 1
 105.8203125 -26.455078125 l 1
 105.8203125 -79.365234375 l 1
EndSplineSet
EndChar

StartChar: K
Encoding: 75 75 43
Width: 523
VWidth: 0
Flags: HW
LayerCount: 2
Back
Fore
SplineSet
52.91015625 449.736328125 m 1
 264.549804688 449.736328125 l 1
 264.549804688 502.645507812 l 1
 52.91015625 502.645507812 l 1
 52.91015625 449.736328125 l 1025
370.370117188 449.736328125 m 1
 582.010742188 449.736328125 l 1
 582.010742188 502.645507812 l 1
 370.370117188 502.645507812 l 1
 370.370117188 449.736328125 l 1025
52.91015625 396.826171875 m 1
 264.549804688 396.826171875 l 1
 264.549804688 449.736328125 l 1
 52.91015625 449.736328125 l 1
 52.91015625 396.826171875 l 1025
370.370117188 396.826171875 m 1
 582.010742188 396.826171875 l 1
 582.010742188 449.736328125 l 1
 370.370117188 449.736328125 l 1
 370.370117188 396.826171875 l 1025
105.8203125 343.916015625 m 1
 264.549804688 343.916015625 l 1
 264.549804688 396.826171875 l 1
 105.8203125 396.826171875 l 1
 105.8203125 343.916015625 l 1025
317.459960938 343.916015625 m 1
 476.190429688 343.916015625 l 1
 476.190429688 396.826171875 l 1
 317.459960938 396.826171875 l 1
 317.459960938 343.916015625 l 1025
105.8203125 291.005859375 m 1
 264.549804688 291.005859375 l 1
 264.549804688 343.916015625 l 1
 105.8203125 343.916015625 l 1
 105.8203125 291.005859375 l 1025
317.459960938 291.005859375 m 1
 423.280273438 291.005859375 l 1
 423.280273438 343.916015625 l 1
 317.459960938 343.916015625 l 1
 317.459960938 291.005859375 l 1025
105.8203125 238.095703125 m 1
 370.370117188 238.095703125 l 1
 370.370117188 291.005859375 l 1
 105.8203125 291.005859375 l 1
 105.8203125 238.095703125 l 1025
105.8203125 185.185546875 m 1
 423.280273438 185.185546875 l 1
 423.280273438 238.095703125 l 1
 105.8203125 238.095703125 l 1
 105.8203125 185.185546875 l 1025
105.8203125 132.275390625 m 1
 423.280273438 132.275390625 l 1
 423.280273438 185.185546875 l 1
 105.8203125 185.185546875 l 1
 105.8203125 132.275390625 l 1025
105.8203125 79.365234375 m 1
 264.549804688 79.365234375 l 1
 264.549804688 132.275390625 l 1
 105.8203125 132.275390625 l 1
 105.8203125 79.365234375 l 1025
317.459960938 79.365234375 m 1
 476.190429688 79.365234375 l 1
 476.190429688 132.275390625 l 1
 317.459960938 132.275390625 l 1
 317.459960938 79.365234375 l 1025
105.8203125 26.455078125 m 1
 264.549804688 26.455078125 l 1
 264.549804688 79.365234375 l 1
 105.8203125 79.365234375 l 1
 105.8203125 26.455078125 l 1025
317.459960938 26.455078125 m 1
 476.190429688 26.455078125 l 1
 476.190429688 79.365234375 l 1
 317.459960938 79.365234375 l 1
 317.459960938 26.455078125 l 1025
52.91015625 -26.455078125 m 1
 264.549804688 -26.455078125 l 1
 264.549804688 26.455078125 l 1
 52.91015625 26.455078125 l 1
 52.91015625 -26.455078125 l 1025
370.370117188 -26.455078125 m 1
 582.010742188 -26.455078125 l 1
 582.010742188 26.455078125 l 1
 370.370117188 26.455078125 l 1
 370.370117188 -26.455078125 l 1025
52.91015625 -79.365234375 m 1
 264.549804688 -79.365234375 l 1
 264.549804688 -26.455078125 l 1
 52.91015625 -26.455078125 l 1
 52.91015625 -79.365234375 l 1025
370.370117188 -79.365234375 m 1
 582.010742188 -79.365234375 l 1
 582.010742188 -26.455078125 l 1
 370.370117188 -26.455078125 l 1
 370.370117188 -79.365234375 l 1
EndSplineSet
EndChar

StartChar: L
Encoding: 76 76 44
Width: 523
VWidth: 0
Flags: HW
LayerCount: 2
Back
Fore
SplineSet
52.91015625 449.736328125 m 1
 317.459960938 449.736328125 l 1
 317.459960938 502.645507812 l 1
 52.91015625 502.645507812 l 1
 52.91015625 449.736328125 l 1025
52.91015625 396.826171875 m 1
 317.459960938 396.826171875 l 1
 317.459960938 449.736328125 l 1
 52.91015625 449.736328125 l 1
 52.91015625 396.826171875 l 1025
105.8203125 343.916015625 m 1
 264.549804688 343.916015625 l 1
 264.549804688 396.826171875 l 1
 105.8203125 396.826171875 l 1
 105.8203125 343.916015625 l 1025
105.8203125 291.005859375 m 1
 264.549804688 291.005859375 l 1
 264.549804688 343.916015625 l 1
 105.8203125 343.916015625 l 1
 105.8203125 291.005859375 l 1025
105.8203125 238.095703125 m 1
 264.549804688 238.095703125 l 1
 264.549804688 291.005859375 l 1
 105.8203125 291.005859375 l 1
 105.8203125 238.095703125 l 1025
105.8203125 185.185546875 m 1
 264.549804688 185.185546875 l 1
 264.549804688 238.095703125 l 1
 105.8203125 238.095703125 l 1
 105.8203125 185.185546875 l 1025
105.8203125 132.275390625 m 1
 264.549804688 132.275390625 l 1
 264.549804688 185.185546875 l 1
 105.8203125 185.185546875 l 1
 105.8203125 132.275390625 l 1025
423.280273438 132.275390625 m 1
 529.100585938 132.275390625 l 1
 529.100585938 185.185546875 l 1
 423.280273438 185.185546875 l 1
 423.280273438 132.275390625 l 1025
105.8203125 79.365234375 m 1
 264.549804688 79.365234375 l 1
 264.549804688 132.275390625 l 1
 105.8203125 132.275390625 l 1
 105.8203125 79.365234375 l 1025
423.280273438 79.365234375 m 1
 529.100585938 79.365234375 l 1
 529.100585938 132.275390625 l 1
 423.280273438 132.275390625 l 1
 423.280273438 79.365234375 l 1025
105.8203125 26.455078125 m 1
 264.549804688 26.455078125 l 1
 264.549804688 79.365234375 l 1
 105.8203125 79.365234375 l 1
 105.8203125 26.455078125 l 1025
423.280273438 26.455078125 m 1
 529.100585938 26.455078125 l 1
 529.100585938 79.365234375 l 1
 423.280273438 79.365234375 l 1
 423.280273438 26.455078125 l 1025
52.91015625 -26.455078125 m 1
 529.100585938 -26.455078125 l 1
 529.100585938 26.455078125 l 1
 52.91015625 26.455078125 l 1
 52.91015625 -26.455078125 l 1025
52.91015625 -79.365234375 m 1
 529.100585938 -79.365234375 l 1
 529.100585938 -26.455078125 l 1
 52.91015625 -26.455078125 l 1
 52.91015625 -79.365234375 l 1
EndSplineSet
EndChar

StartChar: M
Encoding: 77 77 45
Width: 523
VWidth: 0
Flags: HW
LayerCount: 2
Back
Fore
SplineSet
52.91015625 449.736328125 m 1
 211.640625 449.736328125 l 1
 211.640625 502.645507812 l 1
 52.91015625 502.645507812 l 1
 52.91015625 449.736328125 l 1025
423.280273438 449.736328125 m 1
 582.010742188 449.736328125 l 1
 582.010742188 502.645507812 l 1
 423.280273438 502.645507812 l 1
 423.280273438 449.736328125 l 1025
52.91015625 396.826171875 m 1
 211.640625 396.826171875 l 1
 211.640625 449.736328125 l 1
 52.91015625 449.736328125 l 1
 52.91015625 396.826171875 l 1025
423.280273438 396.826171875 m 1
 582.010742188 396.826171875 l 1
 582.010742188 449.736328125 l 1
 423.280273438 449.736328125 l 1
 423.280273438 396.826171875 l 1025
105.8203125 343.916015625 m 1
 264.549804688 343.916015625 l 1
 264.549804688 396.826171875 l 1
 105.8203125 396.826171875 l 1
 105.8203125 343.916015625 l 1025
370.370117188 343.916015625 m 1
 529.100585938 343.916015625 l 1
 529.100585938 396.826171875 l 1
 370.370117188 396.826171875 l 1
 370.370117188 343.916015625 l 1025
105.8203125 291.005859375 m 1
 264.549804688 291.005859375 l 1
 264.549804688 343.916015625 l 1
 105.8203125 343.916015625 l 1
 105.8203125 291.005859375 l 1025
370.370117188 291.005859375 m 1
 529.100585938 291.005859375 l 1
 529.100585938 343.916015625 l 1
 370.370117188 343.916015625 l 1
 370.370117188 291.005859375 l 1025
105.8203125 238.095703125 m 1
 529.100585938 238.095703125 l 1
 529.100585938 291.005859375 l 1
 105.8203125 291.005859375 l 1
 105.8203125 238.095703125 l 1025
105.8203125 185.185546875 m 1
 529.100585938 185.185546875 l 1
 529.100585938 238.095703125 l 1
 105.8203125 238.095703125 l 1
 105.8203125 185.185546875 l 1025
105.8203125 132.275390625 m 1
 211.640625 132.275390625 l 1
 211.640625 185.185546875 l 1
 105.8203125 185.185546875 l 1
 105.8203125 132.275390625 l 1025
264.549804688 132.275390625 m 1
 370.370117188 132.275390625 l 1
 370.370117188 185.185546875 l 1
 264.549804688 185.185546875 l 1
 264.549804688 132.275390625 l 1025
423.280273438 132.275390625 m 1
 529.100585938 132.275390625 l 1
 529.100585938 185.185546875 l 1
 423.280273438 185.185546875 l 1
 423.280273438 132.275390625 l 1025
105.8203125 79.365234375 m 1
 211.640625 79.365234375 l 1
 211.640625 132.275390625 l 1
 105.8203125 132.275390625 l 1
 105.8203125 79.365234375 l 1025
264.549804688 79.365234375 m 1
 370.370117188 79.365234375 l 1
 370.370117188 132.275390625 l 1
 264.549804688 132.275390625 l 1
 264.549804688 79.365234375 l 1025
423.280273438 79.365234375 m 1
 529.100585938 79.365234375 l 1
 529.100585938 132.275390625 l 1
 423.280273438 132.275390625 l 1
 423.280273438 79.365234375 l 1025
105.8203125 26.455078125 m 1
 211.640625 26.455078125 l 1
 211.640625 79.365234375 l 1
 105.8203125 79.365234375 l 1
 105.8203125 26.455078125 l 1025
423.280273438 26.455078125 m 1
 529.100585938 26.455078125 l 1
 529.100585938 79.365234375 l 1
 423.280273438 79.365234375 l 1
 423.280273438 26.455078125 l 1025
52.91015625 -26.455078125 m 1
 211.640625 -26.455078125 l 1
 211.640625 26.455078125 l 1
 52.91015625 26.455078125 l 1
 52.91015625 -26.455078125 l 1025
423.280273438 -26.455078125 m 1
 582.010742188 -26.455078125 l 1
 582.010742188 26.455078125 l 1
 423.280273438 26.455078125 l 1
 423.280273438 -26.455078125 l 1025
52.91015625 -79.365234375 m 1
 211.640625 -79.365234375 l 1
 211.640625 -26.455078125 l 1
 52.91015625 -26.455078125 l 1
 52.91015625 -79.365234375 l 1025
423.280273438 -79.365234375 m 1
 582.010742188 -79.365234375 l 1
 582.010742188 -26.455078125 l 1
 423.280273438 -26.455078125 l 1
 423.280273438 -79.365234375 l 1
EndSplineSet
EndChar

StartChar: N
Encoding: 78 78 46
Width: 523
VWidth: 0
Flags: HW
LayerCount: 2
Back
Fore
SplineSet
52.91015625 449.736328125 m 1
 264.549804688 449.736328125 l 1
 264.549804688 502.645507812 l 1
 52.91015625 502.645507812 l 1
 52.91015625 449.736328125 l 1025
370.370117188 449.736328125 m 1
 582.010742188 449.736328125 l 1
 582.010742188 502.645507812 l 1
 370.370117188 502.645507812 l 1
 370.370117188 449.736328125 l 1025
52.91015625 396.826171875 m 1
 264.549804688 396.826171875 l 1
 264.549804688 449.736328125 l 1
 52.91015625 449.736328125 l 1
 52.91015625 396.826171875 l 1025
370.370117188 396.826171875 m 1
 582.010742188 396.826171875 l 1
 582.010742188 449.736328125 l 1
 370.370117188 449.736328125 l 1
 370.370117188 396.826171875 l 1025
105.8203125 343.916015625 m 1
 264.549804688 343.916015625 l 1
 264.549804688 396.826171875 l 1
 105.8203125 396.826171875 l 1
 105.8203125 343.916015625 l 1025
370.370117188 343.916015625 m 1
 529.100585938 343.916015625 l 1
 529.100585938 396.826171875 l 1
 370.370117188 396.826171875 l 1
 370.370117188 343.916015625 l 1025
105.8203125 291.005859375 m 1
 317.459960938 291.005859375 l 1
 317.459960938 343.916015625 l 1
 105.8203125 343.916015625 l 1
 105.8203125 291.005859375 l 1025
370.370117188 291.005859375 m 1
 529.100585938 291.005859375 l 1
 529.100585938 343.916015625 l 1
 370.370117188 343.916015625 l 1
 370.370117188 291.005859375 l 1025
105.8203125 238.095703125 m 1
 317.459960938 238.095703125 l 1
 317.459960938 291.005859375 l 1
 105.8203125 291.005859375 l 1
 105.8203125 238.095703125 l 1025
370.370117188 238.095703125 m 1
 529.100585938 238.095703125 l 1
 529.100585938 291.005859375 l 1
 370.370117188 291.005859375 l 1
 370.370117188 238.095703125 l 1025
105.8203125 185.185546875 m 1
 529.100585938 185.185546875 l 1
 529.100585938 238.095703125 l 1
 105.8203125 238.095703125 l 1
 105.8203125 185.185546875 l 1025
105.8203125 132.275390625 m 1
 264.549804688 132.275390625 l 1
 264.549804688 185.185546875 l 1
 105.8203125 185.185546875 l 1
 105.8203125 132.275390625 l 1025
317.459960938 132.275390625 m 1
 529.100585938 132.275390625 l 1
 529.100585938 185.185546875 l 1
 317.459960938 185.185546875 l 1
 317.459960938 132.275390625 l 1025
105.8203125 79.365234375 m 1
 264.549804688 79.365234375 l 1
 264.549804688 132.275390625 l 1
 105.8203125 132.275390625 l 1
 105.8203125 79.365234375 l 1025
317.459960938 79.365234375 m 1
 529.100585938 79.365234375 l 1
 529.100585938 132.275390625 l 1
 317.459960938 132.275390625 l 1
 317.459960938 79.365234375 l 1025
105.8203125 26.455078125 m 1
 264.549804688 26.455078125 l 1
 264.549804688 79.365234375 l 1
 105.8203125 79.365234375 l 1
 105.8203125 26.455078125 l 1025
370.370117188 26.455078125 m 1
 529.100585938 26.455078125 l 1
 529.100585938 79.365234375 l 1
 370.370117188 79.365234375 l 1
 370.370117188 26.455078125 l 1025
52.91015625 -26.455078125 m 1
 264.549804688 -26.455078125 l 1
 264.549804688 26.455078125 l 1
 52.91015625 26.455078125 l 1
 52.91015625 -26.455078125 l 1025
370.370117188 -26.455078125 m 1
 529.100585938 -26.455078125 l 1
 529.100585938 26.455078125 l 1
 370.370117188 26.455078125 l 1
 370.370117188 -26.455078125 l 1025
52.91015625 -79.365234375 m 1
 264.549804688 -79.365234375 l 1
 264.549804688 -26.455078125 l 1
 52.91015625 -26.455078125 l 1
 52.91015625 -79.365234375 l 1025
370.370117188 -79.365234375 m 1
 529.100585938 -79.365234375 l 1
 529.100585938 -26.455078125 l 1
 370.370117188 -26.455078125 l 1
 370.370117188 -79.365234375 l 1
EndSplineSet
EndChar

StartChar: O
Encoding: 79 79 47
Width: 523
VWidth: 0
Flags: HW
LayerCount: 2
Back
Fore
SplineSet
158.73046875 449.736328125 m 1
 476.190429688 449.736328125 l 1
 476.190429688 502.645507812 l 1
 158.73046875 502.645507812 l 1
 158.73046875 449.736328125 l 1025
105.8203125 396.826171875 m 1
 529.100585938 396.826171875 l 1
 529.100585938 449.736328125 l 1
 105.8203125 449.736328125 l 1
 105.8203125 396.826171875 l 1025
105.8203125 343.916015625 m 1
 264.549804688 343.916015625 l 1
 264.549804688 396.826171875 l 1
 105.8203125 396.826171875 l 1
 105.8203125 343.916015625 l 1025
370.370117188 343.916015625 m 1
 529.100585938 343.916015625 l 1
 529.100585938 396.826171875 l 1
 370.370117188 396.826171875 l 1
 370.370117188 343.916015625 l 1025
52.91015625 291.005859375 m 1
 211.640625 291.005859375 l 1
 211.640625 343.916015625 l 1
 52.91015625 343.916015625 l 1
 52.91015625 291.005859375 l 1025
423.280273438 291.005859375 m 1
 582.010742188 291.005859375 l 1
 582.010742188 343.916015625 l 1
 423.280273438 343.916015625 l 1
 423.280273438 291.005859375 l 1025
52.91015625 238.095703125 m 1
 211.640625 238.095703125 l 1
 211.640625 291.005859375 l 1
 52.91015625 291.005859375 l 1
 52.91015625 238.095703125 l 1025
423.280273438 238.095703125 m 1
 582.010742188 238.095703125 l 1
 582.010742188 291.005859375 l 1
 423.280273438 291.005859375 l 1
 423.280273438 238.095703125 l 1025
52.91015625 185.185546875 m 1
 211.640625 185.185546875 l 1
 211.640625 238.095703125 l 1
 52.91015625 238.095703125 l 1
 52.91015625 185.185546875 l 1025
423.280273438 185.185546875 m 1
 582.010742188 185.185546875 l 1
 582.010742188 238.095703125 l 1
 423.280273438 238.095703125 l 1
 423.280273438 185.185546875 l 1025
52.91015625 132.275390625 m 1
 211.640625 132.275390625 l 1
 211.640625 185.185546875 l 1
 52.91015625 185.185546875 l 1
 52.91015625 132.275390625 l 1025
423.280273438 132.275390625 m 1
 582.010742188 132.275390625 l 1
 582.010742188 185.185546875 l 1
 423.280273438 185.185546875 l 1
 423.280273438 132.275390625 l 1025
52.91015625 79.365234375 m 1
 211.640625 79.365234375 l 1
 211.640625 132.275390625 l 1
 52.91015625 132.275390625 l 1
 52.91015625 79.365234375 l 1025
423.280273438 79.365234375 m 1
 582.010742188 79.365234375 l 1
 582.010742188 132.275390625 l 1
 423.280273438 132.275390625 l 1
 423.280273438 79.365234375 l 1025
105.8203125 26.455078125 m 1
 264.549804688 26.455078125 l 1
 264.549804688 79.365234375 l 1
 105.8203125 79.365234375 l 1
 105.8203125 26.455078125 l 1025
370.370117188 26.455078125 m 1
 529.100585938 26.455078125 l 1
 529.100585938 79.365234375 l 1
 370.370117188 79.365234375 l 1
 370.370117188 26.455078125 l 1025
105.8203125 -26.455078125 m 1
 529.100585938 -26.455078125 l 1
 529.100585938 26.455078125 l 1
 105.8203125 26.455078125 l 1
 105.8203125 -26.455078125 l 1025
158.73046875 -79.365234375 m 1
 476.190429688 -79.365234375 l 1
 476.190429688 -26.455078125 l 1
 158.73046875 -26.455078125 l 1
 158.73046875 -79.365234375 l 1
EndSplineSet
EndChar

StartChar: P
Encoding: 80 80 48
Width: 523
VWidth: 0
Flags: HW
LayerCount: 2
Back
Fore
SplineSet
52.91015625 449.736328125 m 1
 476.190429688 449.736328125 l 1
 476.190429688 502.645507812 l 1
 52.91015625 502.645507812 l 1
 52.91015625 449.736328125 l 1025
52.91015625 396.826171875 m 1
 529.100585938 396.826171875 l 1
 529.100585938 449.736328125 l 1
 52.91015625 449.736328125 l 1
 52.91015625 396.826171875 l 1025
105.8203125 343.916015625 m 1
 264.549804688 343.916015625 l 1
 264.549804688 396.826171875 l 1
 105.8203125 396.826171875 l 1
 105.8203125 343.916015625 l 1025
370.370117188 343.916015625 m 1
 529.100585938 343.916015625 l 1
 529.100585938 396.826171875 l 1
 370.370117188 396.826171875 l 1
 370.370117188 343.916015625 l 1025
105.8203125 291.005859375 m 1
 264.549804688 291.005859375 l 1
 264.549804688 343.916015625 l 1
 105.8203125 343.916015625 l 1
 105.8203125 291.005859375 l 1025
370.370117188 291.005859375 m 1
 529.100585938 291.005859375 l 1
 529.100585938 343.916015625 l 1
 370.370117188 343.916015625 l 1
 370.370117188 291.005859375 l 1025
105.8203125 238.095703125 m 1
 264.549804688 238.095703125 l 1
 264.549804688 291.005859375 l 1
 105.8203125 291.005859375 l 1
 105.8203125 238.095703125 l 1025
370.370117188 238.095703125 m 1
 529.100585938 238.095703125 l 1
 529.100585938 291.005859375 l 1
 370.370117188 291.005859375 l 1
 370.370117188 238.095703125 l 1025
105.8203125 185.185546875 m 1
 529.100585938 185.185546875 l 1
 529.100585938 238.095703125 l 1
 105.8203125 238.095703125 l 1
 105.8203125 185.185546875 l 1025
105.8203125 132.275390625 m 1
 476.190429688 132.275390625 l 1
 476.190429688 185.185546875 l 1
 105.8203125 185.185546875 l 1
 105.8203125 132.275390625 l 1025
105.8203125 79.365234375 m 1
 264.549804688 79.365234375 l 1
 264.549804688 132.275390625 l 1
 105.8203125 132.275390625 l 1
 105.8203125 79.365234375 l 1025
105.8203125 26.455078125 m 1
 264.549804688 26.455078125 l 1
 264.549804688 79.365234375 l 1
 105.8203125 79.365234375 l 1
 105.8203125 26.455078125 l 1025
52.91015625 -26.455078125 m 1
 317.459960938 -26.455078125 l 1
 317.459960938 26.455078125 l 1
 52.91015625 26.455078125 l 1
 52.91015625 -26.455078125 l 1025
52.91015625 -79.365234375 m 1
 317.459960938 -79.365234375 l 1
 317.459960938 -26.455078125 l 1
 52.91015625 -26.455078125 l 1
 52.91015625 -79.365234375 l 1
EndSplineSet
EndChar

StartChar: Q
Encoding: 81 81 49
Width: 523
VWidth: 0
Flags: HW
LayerCount: 2
Back
Fore
SplineSet
211.640625 449.736328125 m 1
 423.280273438 449.736328125 l 1
 423.280273438 502.645507812 l 1
 211.640625 502.645507812 l 1
 211.640625 449.736328125 l 1025
105.8203125 396.826171875 m 1
 529.100585938 396.826171875 l 1
 529.100585938 449.736328125 l 1
 105.8203125 449.736328125 l 1
 105.8203125 396.826171875 l 1025
105.8203125 343.916015625 m 1
 264.549804688 343.916015625 l 1
 264.549804688 396.826171875 l 1
 105.8203125 396.826171875 l 1
 105.8203125 343.916015625 l 1025
370.370117188 343.916015625 m 1
 529.100585938 343.916015625 l 1
 529.100585938 396.826171875 l 1
 370.370117188 396.826171875 l 1
 370.370117188 343.916015625 l 1025
52.91015625 291.005859375 m 1
 211.640625 291.005859375 l 1
 211.640625 343.916015625 l 1
 52.91015625 343.916015625 l 1
 52.91015625 291.005859375 l 1025
423.280273438 291.005859375 m 1
 582.010742188 291.005859375 l 1
 582.010742188 343.916015625 l 1
 423.280273438 343.916015625 l 1
 423.280273438 291.005859375 l 1025
52.91015625 238.095703125 m 1
 211.640625 238.095703125 l 1
 211.640625 291.005859375 l 1
 52.91015625 291.005859375 l 1
 52.91015625 238.095703125 l 1025
423.280273438 238.095703125 m 1
 582.010742188 238.095703125 l 1
 582.010742188 291.005859375 l 1
 423.280273438 291.005859375 l 1
 423.280273438 238.095703125 l 1025
52.91015625 185.185546875 m 1
 211.640625 185.185546875 l 1
 211.640625 238.095703125 l 1
 52.91015625 238.095703125 l 1
 52.91015625 185.185546875 l 1025
423.280273438 185.185546875 m 1
 582.010742188 185.185546875 l 1
 582.010742188 238.095703125 l 1
 423.280273438 238.095703125 l 1
 423.280273438 185.185546875 l 1025
52.91015625 132.275390625 m 1
 211.640625 132.275390625 l 1
 211.640625 185.185546875 l 1
 52.91015625 185.185546875 l 1
 52.91015625 132.275390625 l 1025
423.280273438 132.275390625 m 1
 582.010742188 132.275390625 l 1
 582.010742188 185.185546875 l 1
 423.280273438 185.185546875 l 1
 423.280273438 132.275390625 l 1025
52.91015625 79.365234375 m 1
 211.640625 79.365234375 l 1
 211.640625 132.275390625 l 1
 52.91015625 132.275390625 l 1
 52.91015625 79.365234375 l 1025
423.280273438 79.365234375 m 1
 582.010742188 79.365234375 l 1
 582.010742188 132.275390625 l 1
 423.280273438 132.275390625 l 1
 423.280273438 79.365234375 l 1025
105.8203125 26.455078125 m 1
 264.549804688 26.455078125 l 1
 264.549804688 79.365234375 l 1
 105.8203125 79.365234375 l 1
 105.8203125 26.455078125 l 1025
370.370117188 26.455078125 m 1
 529.100585938 26.455078125 l 1
 529.100585938 79.365234375 l 1
 370.370117188 79.365234375 l 1
 370.370117188 26.455078125 l 1025
105.8203125 -26.455078125 m 1
 529.100585938 -26.455078125 l 1
 529.100585938 26.455078125 l 1
 105.8203125 26.455078125 l 1
 105.8203125 -26.455078125 l 1025
211.640625 -79.365234375 m 1
 423.280273438 -79.365234375 l 1
 423.280273438 -26.455078125 l 1
 211.640625 -26.455078125 l 1
 211.640625 -79.365234375 l 1025
211.640625 -132.275390625 m 1
 317.459960938 -132.275390625 l 1
 317.459960938 -79.365234375 l 1
 211.640625 -79.365234375 l 1
 211.640625 -132.275390625 l 1025
158.73046875 -185.185546875 m 1
 582.010742188 -185.185546875 l 1
 582.010742188 -132.275390625 l 1
 158.73046875 -132.275390625 l 1
 158.73046875 -185.185546875 l 1025
158.73046875 -238.095703125 m 1
 264.549804688 -238.095703125 l 1
 264.549804688 -185.185546875 l 1
 158.73046875 -185.185546875 l 1
 158.73046875 -238.095703125 l 1025
317.459960938 -238.095703125 m 1
 529.100585938 -238.095703125 l 1
 529.100585938 -185.185546875 l 1
 317.459960938 -185.185546875 l 1
 317.459960938 -238.095703125 l 1
EndSplineSet
EndChar

StartChar: R
Encoding: 82 82 50
Width: 523
VWidth: 0
Flags: HW
LayerCount: 2
Back
Fore
SplineSet
52.91015625 449.736328125 m 1
 476.190429688 449.736328125 l 1
 476.190429688 502.645507812 l 1
 52.91015625 502.645507812 l 1
 52.91015625 449.736328125 l 1025
52.91015625 396.826171875 m 1
 529.100585938 396.826171875 l 1
 529.100585938 449.736328125 l 1
 52.91015625 449.736328125 l 1
 52.91015625 396.826171875 l 1025
105.8203125 343.916015625 m 1
 264.549804688 343.916015625 l 1
 264.549804688 396.826171875 l 1
 105.8203125 396.826171875 l 1
 105.8203125 343.916015625 l 1025
370.370117188 343.916015625 m 1
 529.100585938 343.916015625 l 1
 529.100585938 396.826171875 l 1
 370.370117188 396.826171875 l 1
 370.370117188 343.916015625 l 1025
105.8203125 291.005859375 m 1
 264.549804688 291.005859375 l 1
 264.549804688 343.916015625 l 1
 105.8203125 343.916015625 l 1
 105.8203125 291.005859375 l 1025
370.370117188 291.005859375 m 1
 529.100585938 291.005859375 l 1
 529.100585938 343.916015625 l 1
 370.370117188 343.916015625 l 1
 370.370117188 291.005859375 l 1025
105.8203125 238.095703125 m 1
 476.190429688 238.095703125 l 1
 476.190429688 291.005859375 l 1
 105.8203125 291.005859375 l 1
 105.8203125 238.095703125 l 1025
105.8203125 185.185546875 m 1
 423.280273438 185.185546875 l 1
 423.280273438 238.095703125 l 1
 105.8203125 238.095703125 l 1
 105.8203125 185.185546875 l 1025
105.8203125 132.275390625 m 1
 264.549804688 132.275390625 l 1
 264.549804688 185.185546875 l 1
 105.8203125 185.185546875 l 1
 105.8203125 132.275390625 l 1025
317.459960938 132.275390625 m 1
 476.190429688 132.275390625 l 1
 476.190429688 185.185546875 l 1
 317.459960938 185.185546875 l 1
 317.459960938 132.275390625 l 1025
105.8203125 79.365234375 m 1
 264.549804688 79.365234375 l 1
 264.549804688 132.275390625 l 1
 105.8203125 132.275390625 l 1
 105.8203125 79.365234375 l 1025
317.459960938 79.365234375 m 1
 476.190429688 79.365234375 l 1
 476.190429688 132.275390625 l 1
 317.459960938 132.275390625 l 1
 317.459960938 79.365234375 l 1025
105.8203125 26.455078125 m 1
 264.549804688 26.455078125 l 1
 264.549804688 79.365234375 l 1
 105.8203125 79.365234375 l 1
 105.8203125 26.455078125 l 1025
370.370117188 26.455078125 m 1
 476.190429688 26.455078125 l 1
 476.190429688 79.365234375 l 1
 370.370117188 79.365234375 l 1
 370.370117188 26.455078125 l 1025
52.91015625 -26.455078125 m 1
 264.549804688 -26.455078125 l 1
 264.549804688 26.455078125 l 1
 52.91015625 26.455078125 l 1
 52.91015625 -26.455078125 l 1025
370.370117188 -26.455078125 m 1
 582.010742188 -26.455078125 l 1
 582.010742188 26.455078125 l 1
 370.370117188 26.455078125 l 1
 370.370117188 -26.455078125 l 1025
52.91015625 -79.365234375 m 1
 264.549804688 -79.365234375 l 1
 264.549804688 -26.455078125 l 1
 52.91015625 -26.455078125 l 1
 52.91015625 -79.365234375 l 1025
370.370117188 -79.365234375 m 1
 582.010742188 -79.365234375 l 1
 582.010742188 -26.455078125 l 1
 370.370117188 -26.455078125 l 1
 370.370117188 -79.365234375 l 1
EndSplineSet
EndChar

StartChar: S
Encoding: 83 83 51
Width: 523
VWidth: 0
Flags: HW
LayerCount: 2
Back
Fore
SplineSet
211.640625 449.736328125 m 1
 370.370117188 449.736328125 l 1
 370.370117188 502.645507812 l 1
 211.640625 502.645507812 l 1
 211.640625 449.736328125 l 1025
423.280273438 449.736328125 m 1
 529.100585938 449.736328125 l 1
 529.100585938 502.645507812 l 1
 423.280273438 502.645507812 l 1
 423.280273438 449.736328125 l 1025
105.8203125 396.826171875 m 1
 529.100585938 396.826171875 l 1
 529.100585938 449.736328125 l 1
 105.8203125 449.736328125 l 1
 105.8203125 396.826171875 l 1025
105.8203125 343.916015625 m 1
 264.549804688 343.916015625 l 1
 264.549804688 396.826171875 l 1
 105.8203125 396.826171875 l 1
 105.8203125 343.916015625 l 1025
370.370117188 343.916015625 m 1
 529.100585938 343.916015625 l 1
 529.100585938 396.826171875 l 1
 370.370117188 396.826171875 l 1
 370.370117188 343.916015625 l 1025
105.8203125 291.005859375 m 1
 264.549804688 291.005859375 l 1
 264.549804688 343.916015625 l 1
 105.8203125 343.916015625 l 1
 105.8203125 291.005859375 l 1025
423.280273438 291.005859375 m 1
 529.100585938 291.005859375 l 1
 529.100585938 343.916015625 l 1
 423.280273438 343.916015625 l 1
 423.280273438 291.005859375 l 1025
105.8203125 238.095703125 m 1
 370.370117188 238.095703125 l 1
 370.370117188 291.005859375 l 1
 105.8203125 291.005859375 l 1
 105.8203125 238.095703125 l 1025
158.73046875 185.185546875 m 1
 476.190429688 185.185546875 l 1
 476.190429688 238.095703125 l 1
 158.73046875 238.095703125 l 1
 158.73046875 185.185546875 l 1025
317.459960938 132.275390625 m 1
 529.100585938 132.275390625 l 1
 529.100585938 185.185546875 l 1
 317.459960938 185.185546875 l 1
 317.459960938 132.275390625 l 1025
105.8203125 79.365234375 m 1
 211.640625 79.365234375 l 1
 211.640625 132.275390625 l 1
 105.8203125 132.275390625 l 1
 105.8203125 79.365234375 l 1025
370.370117188 79.365234375 m 1
 529.100585938 79.365234375 l 1
 529.100585938 132.275390625 l 1
 370.370117188 132.275390625 l 1
 370.370117188 79.365234375 l 1025
105.8203125 26.455078125 m 1
 264.549804688 26.455078125 l 1
 264.549804688 79.365234375 l 1
 105.8203125 79.365234375 l 1
 105.8203125 26.455078125 l 1025
370.370117188 26.455078125 m 1
 529.100585938 26.455078125 l 1
 529.100585938 79.365234375 l 1
 370.370117188 79.365234375 l 1
 370.370117188 26.455078125 l 1025
105.8203125 -26.455078125 m 1
 529.100585938 -26.455078125 l 1
 529.100585938 26.455078125 l 1
 105.8203125 26.455078125 l 1
 105.8203125 -26.455078125 l 1025
105.8203125 -79.365234375 m 1
 211.640625 -79.365234375 l 1
 211.640625 -26.455078125 l 1
 105.8203125 -26.455078125 l 1
 105.8203125 -79.365234375 l 1025
264.549804688 -79.365234375 m 1
 476.190429688 -79.365234375 l 1
 476.190429688 -26.455078125 l 1
 264.549804688 -26.455078125 l 1
 264.549804688 -79.365234375 l 1
EndSplineSet
EndChar

StartChar: T
Encoding: 84 84 52
Width: 523
VWidth: 0
Flags: HW
LayerCount: 2
Back
Fore
SplineSet
0 449.736328125 m 1
 582.010742188 449.736328125 l 1
 582.010742188 502.645507812 l 1
 0 502.645507812 l 1
 0 449.736328125 l 1025
0 396.826171875 m 1
 582.010742188 396.826171875 l 1
 582.010742188 449.736328125 l 1
 0 449.736328125 l 1
 0 396.826171875 l 1025
0 343.916015625 m 1
 105.8203125 343.916015625 l 1
 105.8203125 396.826171875 l 1
 0 396.826171875 l 1
 0 343.916015625 l 1025
211.640625 343.916015625 m 1
 370.370117188 343.916015625 l 1
 370.370117188 396.826171875 l 1
 211.640625 396.826171875 l 1
 211.640625 343.916015625 l 1025
476.190429688 343.916015625 m 1
 582.010742188 343.916015625 l 1
 582.010742188 396.826171875 l 1
 476.190429688 396.826171875 l 1
 476.190429688 343.916015625 l 1025
0 291.005859375 m 1
 105.8203125 291.005859375 l 1
 105.8203125 343.916015625 l 1
 0 343.916015625 l 1
 0 291.005859375 l 1025
211.640625 291.005859375 m 1
 370.370117188 291.005859375 l 1
 370.370117188 343.916015625 l 1
 211.640625 343.916015625 l 1
 211.640625 291.005859375 l 1025
476.190429688 291.005859375 m 1
 582.010742188 291.005859375 l 1
 582.010742188 343.916015625 l 1
 476.190429688 343.916015625 l 1
 476.190429688 291.005859375 l 1025
0 238.095703125 m 1
 105.8203125 238.095703125 l 1
 105.8203125 291.005859375 l 1
 0 291.005859375 l 1
 0 238.095703125 l 1025
211.640625 238.095703125 m 1
 370.370117188 238.095703125 l 1
 370.370117188 291.005859375 l 1
 211.640625 291.005859375 l 1
 211.640625 238.095703125 l 1025
476.190429688 238.095703125 m 1
 582.010742188 238.095703125 l 1
 582.010742188 291.005859375 l 1
 476.190429688 291.005859375 l 1
 476.190429688 238.095703125 l 1025
211.640625 185.185546875 m 1
 370.370117188 185.185546875 l 1
 370.370117188 238.095703125 l 1
 211.640625 238.095703125 l 1
 211.640625 185.185546875 l 1025
211.640625 132.275390625 m 1
 370.370117188 132.275390625 l 1
 370.370117188 185.185546875 l 1
 211.640625 185.185546875 l 1
 211.640625 132.275390625 l 1025
211.640625 79.365234375 m 1
 370.370117188 79.365234375 l 1
 370.370117188 132.275390625 l 1
 211.640625 132.275390625 l 1
 211.640625 79.365234375 l 1025
211.640625 26.455078125 m 1
 370.370117188 26.455078125 l 1
 370.370117188 79.365234375 l 1
 211.640625 79.365234375 l 1
 211.640625 26.455078125 l 1025
105.8203125 -26.455078125 m 1
 476.190429688 -26.455078125 l 1
 476.190429688 26.455078125 l 1
 105.8203125 26.455078125 l 1
 105.8203125 -26.455078125 l 1025
105.8203125 -79.365234375 m 1
 476.190429688 -79.365234375 l 1
 476.190429688 -26.455078125 l 1
 105.8203125 -26.455078125 l 1
 105.8203125 -79.365234375 l 1
EndSplineSet
EndChar

StartChar: U
Encoding: 85 85 53
Width: 523
VWidth: 0
Flags: HW
LayerCount: 2
Back
Fore
SplineSet
52.91015625 449.736328125 m 1
 264.549804688 449.736328125 l 1
 264.549804688 502.645507812 l 1
 52.91015625 502.645507812 l 1
 52.91015625 449.736328125 l 1025
370.370117188 449.736328125 m 1
 582.010742188 449.736328125 l 1
 582.010742188 502.645507812 l 1
 370.370117188 502.645507812 l 1
 370.370117188 449.736328125 l 1025
52.91015625 396.826171875 m 1
 264.549804688 396.826171875 l 1
 264.549804688 449.736328125 l 1
 52.91015625 449.736328125 l 1
 52.91015625 396.826171875 l 1025
370.370117188 396.826171875 m 1
 582.010742188 396.826171875 l 1
 582.010742188 449.736328125 l 1
 370.370117188 449.736328125 l 1
 370.370117188 396.826171875 l 1025
105.8203125 343.916015625 m 1
 264.549804688 343.916015625 l 1
 264.549804688 396.826171875 l 1
 105.8203125 396.826171875 l 1
 105.8203125 343.916015625 l 1025
370.370117188 343.916015625 m 1
 529.100585938 343.916015625 l 1
 529.100585938 396.826171875 l 1
 370.370117188 396.826171875 l 1
 370.370117188 343.916015625 l 1025
105.8203125 291.005859375 m 1
 264.549804688 291.005859375 l 1
 264.549804688 343.916015625 l 1
 105.8203125 343.916015625 l 1
 105.8203125 291.005859375 l 1025
370.370117188 291.005859375 m 1
 529.100585938 291.005859375 l 1
 529.100585938 343.916015625 l 1
 370.370117188 343.916015625 l 1
 370.370117188 291.005859375 l 1025
105.8203125 238.095703125 m 1
 264.549804688 238.095703125 l 1
 264.549804688 291.005859375 l 1
 105.8203125 291.005859375 l 1
 105.8203125 238.095703125 l 1025
370.370117188 238.095703125 m 1
 529.100585938 238.095703125 l 1
 529.100585938 291.005859375 l 1
 370.370117188 291.005859375 l 1
 370.370117188 238.095703125 l 1025
105.8203125 185.185546875 m 1
 264.549804688 185.185546875 l 1
 264.549804688 238.095703125 l 1
 105.8203125 238.095703125 l 1
 105.8203125 185.185546875 l 1025
370.370117188 185.185546875 m 1
 529.100585938 185.185546875 l 1
 529.100585938 238.095703125 l 1
 370.370117188 238.095703125 l 1
 370.370117188 185.185546875 l 1025
105.8203125 132.275390625 m 1
 264.549804688 132.275390625 l 1
 264.549804688 185.185546875 l 1
 105.8203125 185.185546875 l 1
 105.8203125 132.275390625 l 1025
370.370117188 132.275390625 m 1
 529.100585938 132.275390625 l 1
 529.100585938 185.185546875 l 1
 370.370117188 185.185546875 l 1
 370.370117188 132.275390625 l 1025
105.8203125 79.365234375 m 1
 264.549804688 79.365234375 l 1
 264.549804688 132.275390625 l 1
 105.8203125 132.275390625 l 1
 105.8203125 79.365234375 l 1025
370.370117188 79.365234375 m 1
 529.100585938 79.365234375 l 1
 529.100585938 132.275390625 l 1
 370.370117188 132.275390625 l 1
 370.370117188 79.365234375 l 1025
105.8203125 26.455078125 m 1
 264.549804688 26.455078125 l 1
 264.549804688 79.365234375 l 1
 105.8203125 79.365234375 l 1
 105.8203125 26.455078125 l 1025
370.370117188 26.455078125 m 1
 529.100585938 26.455078125 l 1
 529.100585938 79.365234375 l 1
 370.370117188 79.365234375 l 1
 370.370117188 26.455078125 l 1025
105.8203125 -26.455078125 m 1
 529.100585938 -26.455078125 l 1
 529.100585938 26.455078125 l 1
 105.8203125 26.455078125 l 1
 105.8203125 -26.455078125 l 1025
158.73046875 -79.365234375 m 1
 476.190429688 -79.365234375 l 1
 476.190429688 -26.455078125 l 1
 158.73046875 -26.455078125 l 1
 158.73046875 -79.365234375 l 1
EndSplineSet
EndChar

StartChar: V
Encoding: 86 86 54
Width: 523
VWidth: 0
Flags: HW
LayerCount: 2
Back
Fore
SplineSet
52.91015625 449.736328125 m 1
 264.549804688 449.736328125 l 1
 264.549804688 502.645507812 l 1
 52.91015625 502.645507812 l 1
 52.91015625 449.736328125 l 1025
370.370117188 449.736328125 m 1
 582.010742188 449.736328125 l 1
 582.010742188 502.645507812 l 1
 370.370117188 502.645507812 l 1
 370.370117188 449.736328125 l 1025
52.91015625 396.826171875 m 1
 264.549804688 396.826171875 l 1
 264.549804688 449.736328125 l 1
 52.91015625 449.736328125 l 1
 52.91015625 396.826171875 l 1025
370.370117188 396.826171875 m 1
 582.010742188 396.826171875 l 1
 582.010742188 449.736328125 l 1
 370.370117188 449.736328125 l 1
 370.370117188 396.826171875 l 1025
105.8203125 343.916015625 m 1
 264.549804688 343.916015625 l 1
 264.549804688 396.826171875 l 1
 105.8203125 396.826171875 l 1
 105.8203125 343.916015625 l 1025
370.370117188 343.916015625 m 1
 529.100585938 343.916015625 l 1
 529.100585938 396.826171875 l 1
 370.370117188 396.826171875 l 1
 370.370117188 343.916015625 l 1025
105.8203125 291.005859375 m 1
 264.549804688 291.005859375 l 1
 264.549804688 343.916015625 l 1
 105.8203125 343.916015625 l 1
 105.8203125 291.005859375 l 1025
370.370117188 291.005859375 m 1
 529.100585938 291.005859375 l 1
 529.100585938 343.916015625 l 1
 370.370117188 343.916015625 l 1
 370.370117188 291.005859375 l 1025
105.8203125 238.095703125 m 1
 264.549804688 238.095703125 l 1
 264.549804688 291.005859375 l 1
 105.8203125 291.005859375 l 1
 105.8203125 238.095703125 l 1025
370.370117188 238.095703125 m 1
 529.100585938 238.095703125 l 1
 529.100585938 291.005859375 l 1
 370.370117188 291.005859375 l 1
 370.370117188 238.095703125 l 1025
158.73046875 185.185546875 m 1
 264.549804688 185.185546875 l 1
 264.549804688 238.095703125 l 1
 158.73046875 238.095703125 l 1
 158.73046875 185.185546875 l 1025
370.370117188 185.185546875 m 1
 476.190429688 185.185546875 l 1
 476.190429688 238.095703125 l 1
 370.370117188 238.095703125 l 1
 370.370117188 185.185546875 l 1025
158.73046875 132.275390625 m 1
 264.549804688 132.275390625 l 1
 264.549804688 185.185546875 l 1
 158.73046875 185.185546875 l 1
 158.73046875 132.275390625 l 1025
370.370117188 132.275390625 m 1
 476.190429688 132.275390625 l 1
 476.190429688 185.185546875 l 1
 370.370117188 185.185546875 l 1
 370.370117188 132.275390625 l 1025
158.73046875 79.365234375 m 1
 476.190429688 79.365234375 l 1
 476.190429688 132.275390625 l 1
 158.73046875 132.275390625 l 1
 158.73046875 79.365234375 l 1025
211.640625 26.455078125 m 1
 423.280273438 26.455078125 l 1
 423.280273438 79.365234375 l 1
 211.640625 79.365234375 l 1
 211.640625 26.455078125 l 1025
211.640625 -26.455078125 m 1
 423.280273438 -26.455078125 l 1
 423.280273438 26.455078125 l 1
 211.640625 26.455078125 l 1
 211.640625 -26.455078125 l 1025
264.549804688 -79.365234375 m 1
 370.370117188 -79.365234375 l 1
 370.370117188 -26.455078125 l 1
 264.549804688 -26.455078125 l 1
 264.549804688 -79.365234375 l 1
EndSplineSet
EndChar

StartChar: W
Encoding: 87 87 55
Width: 523
VWidth: 0
Flags: HW
LayerCount: 2
Back
Fore
SplineSet
52.91015625 449.736328125 m 1
 264.549804688 449.736328125 l 1
 264.549804688 502.645507812 l 1
 52.91015625 502.645507812 l 1
 52.91015625 449.736328125 l 1025
370.370117188 449.736328125 m 1
 582.010742188 449.736328125 l 1
 582.010742188 502.645507812 l 1
 370.370117188 502.645507812 l 1
 370.370117188 449.736328125 l 1025
52.91015625 396.826171875 m 1
 264.549804688 396.826171875 l 1
 264.549804688 449.736328125 l 1
 52.91015625 449.736328125 l 1
 52.91015625 396.826171875 l 1025
370.370117188 396.826171875 m 1
 582.010742188 396.826171875 l 1
 582.010742188 449.736328125 l 1
 370.370117188 449.736328125 l 1
 370.370117188 396.826171875 l 1025
105.8203125 343.916015625 m 1
 211.640625 343.916015625 l 1
 211.640625 396.826171875 l 1
 105.8203125 396.826171875 l 1
 105.8203125 343.916015625 l 1025
423.280273438 343.916015625 m 1
 529.100585938 343.916015625 l 1
 529.100585938 396.826171875 l 1
 423.280273438 396.826171875 l 1
 423.280273438 343.916015625 l 1025
105.8203125 291.005859375 m 1
 211.640625 291.005859375 l 1
 211.640625 343.916015625 l 1
 105.8203125 343.916015625 l 1
 105.8203125 291.005859375 l 1025
423.280273438 291.005859375 m 1
 529.100585938 291.005859375 l 1
 529.100585938 343.916015625 l 1
 423.280273438 343.916015625 l 1
 423.280273438 291.005859375 l 1025
105.8203125 238.095703125 m 1
 211.640625 238.095703125 l 1
 211.640625 291.005859375 l 1
 105.8203125 291.005859375 l 1
 105.8203125 238.095703125 l 1025
264.549804688 238.095703125 m 1
 370.370117188 238.095703125 l 1
 370.370117188 291.005859375 l 1
 264.549804688 291.005859375 l 1
 264.549804688 238.095703125 l 1025
423.280273438 238.095703125 m 1
 529.100585938 238.095703125 l 1
 529.100585938 291.005859375 l 1
 423.280273438 291.005859375 l 1
 423.280273438 238.095703125 l 1025
105.8203125 185.185546875 m 1
 211.640625 185.185546875 l 1
 211.640625 238.095703125 l 1
 105.8203125 238.095703125 l 1
 105.8203125 185.185546875 l 1025
264.549804688 185.185546875 m 1
 370.370117188 185.185546875 l 1
 370.370117188 238.095703125 l 1
 264.549804688 238.095703125 l 1
 264.549804688 185.185546875 l 1025
423.280273438 185.185546875 m 1
 529.100585938 185.185546875 l 1
 529.100585938 238.095703125 l 1
 423.280273438 238.095703125 l 1
 423.280273438 185.185546875 l 1025
105.8203125 132.275390625 m 1
 529.100585938 132.275390625 l 1
 529.100585938 185.185546875 l 1
 105.8203125 185.185546875 l 1
 105.8203125 132.275390625 l 1025
105.8203125 79.365234375 m 1
 529.100585938 79.365234375 l 1
 529.100585938 132.275390625 l 1
 105.8203125 132.275390625 l 1
 105.8203125 79.365234375 l 1025
105.8203125 26.455078125 m 1
 264.549804688 26.455078125 l 1
 264.549804688 79.365234375 l 1
 105.8203125 79.365234375 l 1
 105.8203125 26.455078125 l 1025
370.370117188 26.455078125 m 1
 529.100585938 26.455078125 l 1
 529.100585938 79.365234375 l 1
 370.370117188 79.365234375 l 1
 370.370117188 26.455078125 l 1025
158.73046875 -26.455078125 m 1
 264.549804688 -26.455078125 l 1
 264.549804688 26.455078125 l 1
 158.73046875 26.455078125 l 1
 158.73046875 -26.455078125 l 1025
370.370117188 -26.455078125 m 1
 476.190429688 -26.455078125 l 1
 476.190429688 26.455078125 l 1
 370.370117188 26.455078125 l 1
 370.370117188 -26.455078125 l 1025
158.73046875 -79.365234375 m 1
 264.549804688 -79.365234375 l 1
 264.549804688 -26.455078125 l 1
 158.73046875 -26.455078125 l 1
 158.73046875 -79.365234375 l 1025
370.370117188 -79.365234375 m 1
 476.190429688 -79.365234375 l 1
 476.190429688 -26.455078125 l 1
 370.370117188 -26.455078125 l 1
 370.370117188 -79.365234375 l 1
EndSplineSet
EndChar

StartChar: X
Encoding: 88 88 56
Width: 523
VWidth: 0
Flags: HW
LayerCount: 2
Back
Fore
SplineSet
52.91015625 449.736328125 m 1
 264.549804688 449.736328125 l 1
 264.549804688 502.645507812 l 1
 52.91015625 502.645507812 l 1
 52.91015625 449.736328125 l 1025
370.370117188 449.736328125 m 1
 582.010742188 449.736328125 l 1
 582.010742188 502.645507812 l 1
 370.370117188 502.645507812 l 1
 370.370117188 449.736328125 l 1025
52.91015625 396.826171875 m 1
 264.549804688 396.826171875 l 1
 264.549804688 449.736328125 l 1
 52.91015625 449.736328125 l 1
 52.91015625 396.826171875 l 1025
370.370117188 396.826171875 m 1
 582.010742188 396.826171875 l 1
 582.010742188 449.736328125 l 1
 370.370117188 449.736328125 l 1
 370.370117188 396.826171875 l 1025
105.8203125 343.916015625 m 1
 264.549804688 343.916015625 l 1
 264.549804688 396.826171875 l 1
 105.8203125 396.826171875 l 1
 105.8203125 343.916015625 l 1025
370.370117188 343.916015625 m 1
 529.100585938 343.916015625 l 1
 529.100585938 396.826171875 l 1
 370.370117188 396.826171875 l 1
 370.370117188 343.916015625 l 1025
158.73046875 291.005859375 m 1
 476.190429688 291.005859375 l 1
 476.190429688 343.916015625 l 1
 158.73046875 343.916015625 l 1
 158.73046875 291.005859375 l 1025
211.640625 238.095703125 m 1
 423.280273438 238.095703125 l 1
 423.280273438 291.005859375 l 1
 211.640625 291.005859375 l 1
 211.640625 238.095703125 l 1025
211.640625 185.185546875 m 1
 423.280273438 185.185546875 l 1
 423.280273438 238.095703125 l 1
 211.640625 238.095703125 l 1
 211.640625 185.185546875 l 1025
211.640625 132.275390625 m 1
 423.280273438 132.275390625 l 1
 423.280273438 185.185546875 l 1
 211.640625 185.185546875 l 1
 211.640625 132.275390625 l 1025
158.73046875 79.365234375 m 1
 476.190429688 79.365234375 l 1
 476.190429688 132.275390625 l 1
 158.73046875 132.275390625 l 1
 158.73046875 79.365234375 l 1025
105.8203125 26.455078125 m 1
 264.549804688 26.455078125 l 1
 264.549804688 79.365234375 l 1
 105.8203125 79.365234375 l 1
 105.8203125 26.455078125 l 1025
370.370117188 26.455078125 m 1
 529.100585938 26.455078125 l 1
 529.100585938 79.365234375 l 1
 370.370117188 79.365234375 l 1
 370.370117188 26.455078125 l 1025
52.91015625 -26.455078125 m 1
 264.549804688 -26.455078125 l 1
 264.549804688 26.455078125 l 1
 52.91015625 26.455078125 l 1
 52.91015625 -26.455078125 l 1025
370.370117188 -26.455078125 m 1
 582.010742188 -26.455078125 l 1
 582.010742188 26.455078125 l 1
 370.370117188 26.455078125 l 1
 370.370117188 -26.455078125 l 1025
52.91015625 -79.365234375 m 1
 264.549804688 -79.365234375 l 1
 264.549804688 -26.455078125 l 1
 52.91015625 -26.455078125 l 1
 52.91015625 -79.365234375 l 1025
370.370117188 -79.365234375 m 1
 582.010742188 -79.365234375 l 1
 582.010742188 -26.455078125 l 1
 370.370117188 -26.455078125 l 1
 370.370117188 -79.365234375 l 1
EndSplineSet
EndChar

StartChar: Y
Encoding: 89 89 57
Width: 523
VWidth: 0
Flags: HW
LayerCount: 2
Back
Fore
SplineSet
52.91015625 449.736328125 m 1
 211.640625 449.736328125 l 1
 211.640625 502.645507812 l 1
 52.91015625 502.645507812 l 1
 52.91015625 449.736328125 l 1025
370.370117188 449.736328125 m 1
 529.100585938 449.736328125 l 1
 529.100585938 502.645507812 l 1
 370.370117188 502.645507812 l 1
 370.370117188 449.736328125 l 1025
52.91015625 396.826171875 m 1
 211.640625 396.826171875 l 1
 211.640625 449.736328125 l 1
 52.91015625 449.736328125 l 1
 52.91015625 396.826171875 l 1025
370.370117188 396.826171875 m 1
 529.100585938 396.826171875 l 1
 529.100585938 449.736328125 l 1
 370.370117188 449.736328125 l 1
 370.370117188 396.826171875 l 1025
105.8203125 343.916015625 m 1
 264.549804688 343.916015625 l 1
 264.549804688 396.826171875 l 1
 105.8203125 396.826171875 l 1
 105.8203125 343.916015625 l 1025
317.459960938 343.916015625 m 1
 476.190429688 343.916015625 l 1
 476.190429688 396.826171875 l 1
 317.459960938 396.826171875 l 1
 317.459960938 343.916015625 l 1025
105.8203125 291.005859375 m 1
 264.549804688 291.005859375 l 1
 264.549804688 343.916015625 l 1
 105.8203125 343.916015625 l 1
 105.8203125 291.005859375 l 1025
317.459960938 291.005859375 m 1
 476.190429688 291.005859375 l 1
 476.190429688 343.916015625 l 1
 317.459960938 343.916015625 l 1
 317.459960938 291.005859375 l 1025
158.73046875 238.095703125 m 1
 423.280273438 238.095703125 l 1
 423.280273438 291.005859375 l 1
 158.73046875 291.005859375 l 1
 158.73046875 238.095703125 l 1025
158.73046875 185.185546875 m 1
 423.280273438 185.185546875 l 1
 423.280273438 238.095703125 l 1
 158.73046875 238.095703125 l 1
 158.73046875 185.185546875 l 1025
211.640625 132.275390625 m 1
 370.370117188 132.275390625 l 1
 370.370117188 185.185546875 l 1
 211.640625 185.185546875 l 1
 211.640625 132.275390625 l 1025
211.640625 79.365234375 m 1
 370.370117188 79.365234375 l 1
 370.370117188 132.275390625 l 1
 211.640625 132.275390625 l 1
 211.640625 79.365234375 l 1025
211.640625 26.455078125 m 1
 370.370117188 26.455078125 l 1
 370.370117188 79.365234375 l 1
 211.640625 79.365234375 l 1
 211.640625 26.455078125 l 1025
158.73046875 -26.455078125 m 1
 423.280273438 -26.455078125 l 1
 423.280273438 26.455078125 l 1
 158.73046875 26.455078125 l 1
 158.73046875 -26.455078125 l 1025
158.73046875 -79.365234375 m 1
 423.280273438 -79.365234375 l 1
 423.280273438 -26.455078125 l 1
 158.73046875 -26.455078125 l 1
 158.73046875 -79.365234375 l 1
EndSplineSet
EndChar

StartChar: Z
Encoding: 90 90 58
Width: 523
VWidth: 0
Flags: HW
LayerCount: 2
Back
Fore
SplineSet
105.8203125 449.736328125 m 1
 529.100585938 449.736328125 l 1
 529.100585938 502.645507812 l 1
 105.8203125 502.645507812 l 1
 105.8203125 449.736328125 l 1025
105.8203125 396.826171875 m 1
 529.100585938 396.826171875 l 1
 529.100585938 449.736328125 l 1
 105.8203125 449.736328125 l 1
 105.8203125 396.826171875 l 1025
105.8203125 343.916015625 m 1
 211.640625 343.916015625 l 1
 211.640625 396.826171875 l 1
 105.8203125 396.826171875 l 1
 105.8203125 343.916015625 l 1025
317.459960938 343.916015625 m 1
 476.190429688 343.916015625 l 1
 476.190429688 396.826171875 l 1
 317.459960938 396.826171875 l 1
 317.459960938 343.916015625 l 1025
105.8203125 291.005859375 m 1
 211.640625 291.005859375 l 1
 211.640625 343.916015625 l 1
 105.8203125 343.916015625 l 1
 105.8203125 291.005859375 l 1025
317.459960938 291.005859375 m 1
 476.190429688 291.005859375 l 1
 476.190429688 343.916015625 l 1
 317.459960938 343.916015625 l 1
 317.459960938 291.005859375 l 1025
264.549804688 238.095703125 m 1
 423.280273438 238.095703125 l 1
 423.280273438 291.005859375 l 1
 264.549804688 291.005859375 l 1
 264.549804688 238.095703125 l 1025
264.549804688 185.185546875 m 1
 423.280273438 185.185546875 l 1
 423.280273438 238.095703125 l 1
 264.549804688 238.095703125 l 1
 264.549804688 185.185546875 l 1025
211.640625 132.275390625 m 1
 370.370117188 132.275390625 l 1
 370.370117188 185.185546875 l 1
 211.640625 185.185546875 l 1
 211.640625 132.275390625 l 1025
211.640625 79.365234375 m 1
 370.370117188 79.365234375 l 1
 370.370117188 132.275390625 l 1
 211.640625 132.275390625 l 1
 211.640625 79.365234375 l 1025
423.280273438 79.365234375 m 1
 529.100585938 79.365234375 l 1
 529.100585938 132.275390625 l 1
 423.280273438 132.275390625 l 1
 423.280273438 79.365234375 l 1025
158.73046875 26.455078125 m 1
 317.459960938 26.455078125 l 1
 317.459960938 79.365234375 l 1
 158.73046875 79.365234375 l 1
 158.73046875 26.455078125 l 1025
423.280273438 26.455078125 m 1
 529.100585938 26.455078125 l 1
 529.100585938 79.365234375 l 1
 423.280273438 79.365234375 l 1
 423.280273438 26.455078125 l 1025
158.73046875 -26.455078125 m 1
 529.100585938 -26.455078125 l 1
 529.100585938 26.455078125 l 1
 158.73046875 26.455078125 l 1
 158.73046875 -26.455078125 l 1025
105.8203125 -79.365234375 m 1
 529.100585938 -79.365234375 l 1
 529.100585938 -26.455078125 l 1
 105.8203125 -26.455078125 l 1
 105.8203125 -79.365234375 l 1
EndSplineSet
EndChar

StartChar: bracketleft
Encoding: 91 91 59
Width: 523
VWidth: 0
Flags: HW
LayerCount: 2
Back
Fore
SplineSet
158.73046875 502.645507812 m 1
 423.280273438 502.645507812 l 1
 423.280273438 555.555664062 l 1
 158.73046875 555.555664062 l 1
 158.73046875 502.645507812 l 1025
158.73046875 449.736328125 m 1
 423.280273438 449.736328125 l 1
 423.280273438 502.645507812 l 1
 158.73046875 502.645507812 l 1
 158.73046875 449.736328125 l 1025
158.73046875 396.826171875 m 1
 317.459960938 396.826171875 l 1
 317.459960938 449.736328125 l 1
 158.73046875 449.736328125 l 1
 158.73046875 396.826171875 l 1025
158.73046875 343.916015625 m 1
 317.459960938 343.916015625 l 1
 317.459960938 396.826171875 l 1
 158.73046875 396.826171875 l 1
 158.73046875 343.916015625 l 1025
158.73046875 291.005859375 m 1
 317.459960938 291.005859375 l 1
 317.459960938 343.916015625 l 1
 158.73046875 343.916015625 l 1
 158.73046875 291.005859375 l 1025
158.73046875 238.095703125 m 1
 317.459960938 238.095703125 l 1
 317.459960938 291.005859375 l 1
 158.73046875 291.005859375 l 1
 158.73046875 238.095703125 l 1025
158.73046875 185.185546875 m 1
 317.459960938 185.185546875 l 1
 317.459960938 238.095703125 l 1
 158.73046875 238.095703125 l 1
 158.73046875 185.185546875 l 1025
158.73046875 132.275390625 m 1
 317.459960938 132.275390625 l 1
 317.459960938 185.185546875 l 1
 158.73046875 185.185546875 l 1
 158.73046875 132.275390625 l 1025
158.73046875 79.365234375 m 1
 317.459960938 79.365234375 l 1
 317.459960938 132.275390625 l 1
 158.73046875 132.275390625 l 1
 158.73046875 79.365234375 l 1025
158.73046875 26.455078125 m 1
 317.459960938 26.455078125 l 1
 317.459960938 79.365234375 l 1
 158.73046875 79.365234375 l 1
 158.73046875 26.455078125 l 1025
158.73046875 -26.455078125 m 1
 317.459960938 -26.455078125 l 1
 317.459960938 26.455078125 l 1
 158.73046875 26.455078125 l 1
 158.73046875 -26.455078125 l 1025
158.73046875 -79.365234375 m 1
 317.459960938 -79.365234375 l 1
 317.459960938 -26.455078125 l 1
 158.73046875 -26.455078125 l 1
 158.73046875 -79.365234375 l 1025
158.73046875 -132.275390625 m 1
 317.459960938 -132.275390625 l 1
 317.459960938 -79.365234375 l 1
 158.73046875 -79.365234375 l 1
 158.73046875 -132.275390625 l 1025
158.73046875 -185.185546875 m 1
 423.280273438 -185.185546875 l 1
 423.280273438 -132.275390625 l 1
 158.73046875 -132.275390625 l 1
 158.73046875 -185.185546875 l 1025
158.73046875 -238.095703125 m 1
 423.280273438 -238.095703125 l 1
 423.280273438 -185.185546875 l 1
 158.73046875 -185.185546875 l 1
 158.73046875 -238.095703125 l 1
EndSplineSet
EndChar

StartChar: backslash
Encoding: 92 92 60
Width: 523
VWidth: 0
Flags: HW
LayerCount: 2
Back
Fore
SplineSet
105.8203125 502.645507812 m 1
 211.640625 502.645507812 l 1
 211.640625 555.555664062 l 1
 105.8203125 555.555664062 l 1
 105.8203125 502.645507812 l 1025
105.8203125 449.736328125 m 1
 264.549804688 449.736328125 l 1
 264.549804688 502.645507812 l 1
 105.8203125 502.645507812 l 1
 105.8203125 449.736328125 l 1025
158.73046875 396.826171875 m 1
 264.549804688 396.826171875 l 1
 264.549804688 449.736328125 l 1
 158.73046875 449.736328125 l 1
 158.73046875 396.826171875 l 1025
158.73046875 343.916015625 m 1
 317.459960938 343.916015625 l 1
 317.459960938 396.826171875 l 1
 158.73046875 396.826171875 l 1
 158.73046875 343.916015625 l 1025
211.640625 291.005859375 m 1
 317.459960938 291.005859375 l 1
 317.459960938 343.916015625 l 1
 211.640625 343.916015625 l 1
 211.640625 291.005859375 l 1025
211.640625 238.095703125 m 1
 370.370117188 238.095703125 l 1
 370.370117188 291.005859375 l 1
 211.640625 291.005859375 l 1
 211.640625 238.095703125 l 1025
264.549804688 185.185546875 m 1
 370.370117188 185.185546875 l 1
 370.370117188 238.095703125 l 1
 264.549804688 238.095703125 l 1
 264.549804688 185.185546875 l 1025
264.549804688 132.275390625 m 1
 370.370117188 132.275390625 l 1
 370.370117188 185.185546875 l 1
 264.549804688 185.185546875 l 1
 264.549804688 132.275390625 l 1025
264.549804688 79.365234375 m 1
 423.280273438 79.365234375 l 1
 423.280273438 132.275390625 l 1
 264.549804688 132.275390625 l 1
 264.549804688 79.365234375 l 1025
317.459960938 26.455078125 m 1
 423.280273438 26.455078125 l 1
 423.280273438 79.365234375 l 1
 317.459960938 79.365234375 l 1
 317.459960938 26.455078125 l 1025
317.459960938 -26.455078125 m 1
 476.190429688 -26.455078125 l 1
 476.190429688 26.455078125 l 1
 317.459960938 26.455078125 l 1
 317.459960938 -26.455078125 l 1025
370.370117188 -79.365234375 m 1
 476.190429688 -79.365234375 l 1
 476.190429688 -26.455078125 l 1
 370.370117188 -26.455078125 l 1
 370.370117188 -79.365234375 l 1025
370.370117188 -132.275390625 m 1
 529.100585938 -132.275390625 l 1
 529.100585938 -79.365234375 l 1
 370.370117188 -79.365234375 l 1
 370.370117188 -132.275390625 l 1025
423.280273438 -185.185546875 m 1
 529.100585938 -185.185546875 l 1
 529.100585938 -132.275390625 l 1
 423.280273438 -132.275390625 l 1
 423.280273438 -185.185546875 l 1
EndSplineSet
EndChar

StartChar: bracketright
Encoding: 93 93 61
Width: 523
VWidth: 0
Flags: HW
LayerCount: 2
Back
Fore
SplineSet
158.73046875 502.645507812 m 1
 423.280273438 502.645507812 l 1
 423.280273438 555.555664062 l 1
 158.73046875 555.555664062 l 1
 158.73046875 502.645507812 l 1025
158.73046875 449.736328125 m 1
 423.280273438 449.736328125 l 1
 423.280273438 502.645507812 l 1
 158.73046875 502.645507812 l 1
 158.73046875 449.736328125 l 1025
264.549804688 396.826171875 m 1
 423.280273438 396.826171875 l 1
 423.280273438 449.736328125 l 1
 264.549804688 449.736328125 l 1
 264.549804688 396.826171875 l 1025
264.549804688 343.916015625 m 1
 423.280273438 343.916015625 l 1
 423.280273438 396.826171875 l 1
 264.549804688 396.826171875 l 1
 264.549804688 343.916015625 l 1025
264.549804688 291.005859375 m 1
 423.280273438 291.005859375 l 1
 423.280273438 343.916015625 l 1
 264.549804688 343.916015625 l 1
 264.549804688 291.005859375 l 1025
264.549804688 238.095703125 m 1
 423.280273438 238.095703125 l 1
 423.280273438 291.005859375 l 1
 264.549804688 291.005859375 l 1
 264.549804688 238.095703125 l 1025
264.549804688 185.185546875 m 1
 423.280273438 185.185546875 l 1
 423.280273438 238.095703125 l 1
 264.549804688 238.095703125 l 1
 264.549804688 185.185546875 l 1025
264.549804688 132.275390625 m 1
 423.280273438 132.275390625 l 1
 423.280273438 185.185546875 l 1
 264.549804688 185.185546875 l 1
 264.549804688 132.275390625 l 1025
264.549804688 79.365234375 m 1
 423.280273438 79.365234375 l 1
 423.280273438 132.275390625 l 1
 264.549804688 132.275390625 l 1
 264.549804688 79.365234375 l 1025
264.549804688 26.455078125 m 1
 423.280273438 26.455078125 l 1
 423.280273438 79.365234375 l 1
 264.549804688 79.365234375 l 1
 264.549804688 26.455078125 l 1025
264.549804688 -26.455078125 m 1
 423.280273438 -26.455078125 l 1
 423.280273438 26.455078125 l 1
 264.549804688 26.455078125 l 1
 264.549804688 -26.455078125 l 1025
264.549804688 -79.365234375 m 1
 423.280273438 -79.365234375 l 1
 423.280273438 -26.455078125 l 1
 264.549804688 -26.455078125 l 1
 264.549804688 -79.365234375 l 1025
264.549804688 -132.275390625 m 1
 423.280273438 -132.275390625 l 1
 423.280273438 -79.365234375 l 1
 264.549804688 -79.365234375 l 1
 264.549804688 -132.275390625 l 1025
158.73046875 -185.185546875 m 1
 423.280273438 -185.185546875 l 1
 423.280273438 -132.275390625 l 1
 158.73046875 -132.275390625 l 1
 158.73046875 -185.185546875 l 1025
158.73046875 -238.095703125 m 1
 423.280273438 -238.095703125 l 1
 423.280273438 -185.185546875 l 1
 158.73046875 -185.185546875 l 1
 158.73046875 -238.095703125 l 1
EndSplineSet
EndChar

StartChar: asciicircum
Encoding: 94 94 62
Width: 523
VWidth: 0
Flags: HW
LayerCount: 2
Back
Fore
SplineSet
264.549804688 343.916015625 m 1
 370.370117188 343.916015625 l 1
 370.370117188 396.826171875 l 1
 264.549804688 396.826171875 l 1
 264.549804688 343.916015625 l 1025
211.640625 291.005859375 m 1
 423.280273438 291.005859375 l 1
 423.280273438 343.916015625 l 1
 211.640625 343.916015625 l 1
 211.640625 291.005859375 l 1025
158.73046875 238.095703125 m 1
 476.190429688 238.095703125 l 1
 476.190429688 291.005859375 l 1
 158.73046875 291.005859375 l 1
 158.73046875 238.095703125 l 1025
105.8203125 185.185546875 m 1
 211.640625 185.185546875 l 1
 211.640625 238.095703125 l 1
 105.8203125 238.095703125 l 1
 105.8203125 185.185546875 l 1025
423.280273438 185.185546875 m 1
 529.100585938 185.185546875 l 1
 529.100585938 238.095703125 l 1
 423.280273438 238.095703125 l 1
 423.280273438 185.185546875 l 1
EndSplineSet
EndChar

StartChar: underscore
Encoding: 95 95 63
Width: 523
VWidth: 0
Flags: HW
LayerCount: 2
Back
Fore
SplineSet
52.91015625 -26.455078125 m 1
 582.010742188 -26.455078125 l 1
 582.010742188 26.455078125 l 1
 52.91015625 26.455078125 l 1
 52.91015625 -26.455078125 l 1025
52.91015625 -79.365234375 m 1
 582.010742188 -79.365234375 l 1
 582.010742188 -26.455078125 l 1
 52.91015625 -26.455078125 l 1
 52.91015625 -79.365234375 l 1
EndSplineSet
EndChar

StartChar: quoteleft
Encoding: 96 8216 64
Width: 523
VWidth: 0
Flags: HW
LayerCount: 2
Back
Fore
SplineSet
158.73046875 555.555664062 m 1
 264.549804688 555.555664062 l 1
 264.549804688 608.465820312 l 1
 158.73046875 608.465820312 l 1
 158.73046875 555.555664062 l 1025
158.73046875 502.645507812 m 1
 317.459960938 502.645507812 l 1
 317.459960938 555.555664062 l 1
 158.73046875 555.555664062 l 1
 158.73046875 502.645507812 l 1025
211.640625 449.736328125 m 1
 370.370117188 449.736328125 l 1
 370.370117188 502.645507812 l 1
 211.640625 502.645507812 l 1
 211.640625 449.736328125 l 1025
264.549804688 396.826171875 m 1
 370.370117188 396.826171875 l 1
 370.370117188 449.736328125 l 1
 264.549804688 449.736328125 l 1
 264.549804688 396.826171875 l 1025
317.459960938 343.916015625 m 1
 423.280273438 343.916015625 l 1
 423.280273438 396.826171875 l 1
 317.459960938 396.826171875 l 1
 317.459960938 343.916015625 l 1
EndSplineSet
EndChar

StartChar: a
Encoding: 97 97 65
Width: 523
VWidth: 0
Flags: HW
LayerCount: 2
Back
Fore
SplineSet
158.73046875 343.916015625 m 1
 476.190429688 343.916015625 l 1
 476.190429688 396.826171875 l 1
 158.73046875 396.826171875 l 1
 158.73046875 343.916015625 l 1025
105.8203125 291.005859375 m 1
 529.100585938 291.005859375 l 1
 529.100585938 343.916015625 l 1
 105.8203125 343.916015625 l 1
 105.8203125 291.005859375 l 1025
370.370117188 238.095703125 m 1
 529.100585938 238.095703125 l 1
 529.100585938 291.005859375 l 1
 370.370117188 291.005859375 l 1
 370.370117188 238.095703125 l 1025
158.73046875 185.185546875 m 1
 529.100585938 185.185546875 l 1
 529.100585938 238.095703125 l 1
 158.73046875 238.095703125 l 1
 158.73046875 185.185546875 l 1025
105.8203125 132.275390625 m 1
 529.100585938 132.275390625 l 1
 529.100585938 185.185546875 l 1
 105.8203125 185.185546875 l 1
 105.8203125 132.275390625 l 1025
52.91015625 79.365234375 m 1
 211.640625 79.365234375 l 1
 211.640625 132.275390625 l 1
 52.91015625 132.275390625 l 1
 52.91015625 79.365234375 l 1025
370.370117188 79.365234375 m 1
 529.100585938 79.365234375 l 1
 529.100585938 132.275390625 l 1
 370.370117188 132.275390625 l 1
 370.370117188 79.365234375 l 1025
52.91015625 26.455078125 m 1
 211.640625 26.455078125 l 1
 211.640625 79.365234375 l 1
 52.91015625 79.365234375 l 1
 52.91015625 26.455078125 l 1025
317.459960938 26.455078125 m 1
 529.100585938 26.455078125 l 1
 529.100585938 79.365234375 l 1
 317.459960938 79.365234375 l 1
 317.459960938 26.455078125 l 1025
52.91015625 -26.455078125 m 1
 582.010742188 -26.455078125 l 1
 582.010742188 26.455078125 l 1
 52.91015625 26.455078125 l 1
 52.91015625 -26.455078125 l 1025
105.8203125 -79.365234375 m 1
 317.459960938 -79.365234375 l 1
 317.459960938 -26.455078125 l 1
 105.8203125 -26.455078125 l 1
 105.8203125 -79.365234375 l 1025
370.370117188 -79.365234375 m 1
 582.010742188 -79.365234375 l 1
 582.010742188 -26.455078125 l 1
 370.370117188 -26.455078125 l 1
 370.370117188 -79.365234375 l 1
EndSplineSet
EndChar

StartChar: b
Encoding: 98 98 66
Width: 523
VWidth: 0
Flags: HW
LayerCount: 2
Back
Fore
SplineSet
52.91015625 502.645507812 m 1
 264.549804688 502.645507812 l 1
 264.549804688 555.555664062 l 1
 52.91015625 555.555664062 l 1
 52.91015625 502.645507812 l 1025
52.91015625 449.736328125 m 1
 264.549804688 449.736328125 l 1
 264.549804688 502.645507812 l 1
 52.91015625 502.645507812 l 1
 52.91015625 449.736328125 l 1025
105.8203125 396.826171875 m 1
 264.549804688 396.826171875 l 1
 264.549804688 449.736328125 l 1
 105.8203125 449.736328125 l 1
 105.8203125 396.826171875 l 1025
105.8203125 343.916015625 m 1
 264.549804688 343.916015625 l 1
 264.549804688 396.826171875 l 1
 105.8203125 396.826171875 l 1
 105.8203125 343.916015625 l 1025
317.459960938 343.916015625 m 1
 476.190429688 343.916015625 l 1
 476.190429688 396.826171875 l 1
 317.459960938 396.826171875 l 1
 317.459960938 343.916015625 l 1025
105.8203125 291.005859375 m 1
 529.100585938 291.005859375 l 1
 529.100585938 343.916015625 l 1
 105.8203125 343.916015625 l 1
 105.8203125 291.005859375 l 1025
105.8203125 238.095703125 m 1
 317.459960938 238.095703125 l 1
 317.459960938 291.005859375 l 1
 105.8203125 291.005859375 l 1
 105.8203125 238.095703125 l 1025
370.370117188 238.095703125 m 1
 582.010742188 238.095703125 l 1
 582.010742188 291.005859375 l 1
 370.370117188 291.005859375 l 1
 370.370117188 238.095703125 l 1025
105.8203125 185.185546875 m 1
 264.549804688 185.185546875 l 1
 264.549804688 238.095703125 l 1
 105.8203125 238.095703125 l 1
 105.8203125 185.185546875 l 1025
423.280273438 185.185546875 m 1
 582.010742188 185.185546875 l 1
 582.010742188 238.095703125 l 1
 423.280273438 238.095703125 l 1
 423.280273438 185.185546875 l 1025
105.8203125 132.275390625 m 1
 264.549804688 132.275390625 l 1
 264.549804688 185.185546875 l 1
 105.8203125 185.185546875 l 1
 105.8203125 132.275390625 l 1025
423.280273438 132.275390625 m 1
 582.010742188 132.275390625 l 1
 582.010742188 185.185546875 l 1
 423.280273438 185.185546875 l 1
 423.280273438 132.275390625 l 1025
105.8203125 79.365234375 m 1
 264.549804688 79.365234375 l 1
 264.549804688 132.275390625 l 1
 105.8203125 132.275390625 l 1
 105.8203125 79.365234375 l 1025
423.280273438 79.365234375 m 1
 582.010742188 79.365234375 l 1
 582.010742188 132.275390625 l 1
 423.280273438 132.275390625 l 1
 423.280273438 79.365234375 l 1025
105.8203125 26.455078125 m 1
 317.459960938 26.455078125 l 1
 317.459960938 79.365234375 l 1
 105.8203125 79.365234375 l 1
 105.8203125 26.455078125 l 1025
370.370117188 26.455078125 m 1
 582.010742188 26.455078125 l 1
 582.010742188 79.365234375 l 1
 370.370117188 79.365234375 l 1
 370.370117188 26.455078125 l 1025
52.91015625 -26.455078125 m 1
 529.100585938 -26.455078125 l 1
 529.100585938 26.455078125 l 1
 52.91015625 26.455078125 l 1
 52.91015625 -26.455078125 l 1025
52.91015625 -79.365234375 m 1
 264.549804688 -79.365234375 l 1
 264.549804688 -26.455078125 l 1
 52.91015625 -26.455078125 l 1
 52.91015625 -79.365234375 l 1025
317.459960938 -79.365234375 m 1
 476.190429688 -79.365234375 l 1
 476.190429688 -26.455078125 l 1
 317.459960938 -26.455078125 l 1
 317.459960938 -79.365234375 l 1
EndSplineSet
EndChar

StartChar: c
Encoding: 99 99 67
Width: 523
VWidth: 0
Flags: HW
LayerCount: 2
Back
Fore
SplineSet
158.73046875 343.916015625 m 1
 423.280273438 343.916015625 l 1
 423.280273438 396.826171875 l 1
 158.73046875 396.826171875 l 1
 158.73046875 343.916015625 l 1025
476.190429688 343.916015625 m 1
 582.010742188 343.916015625 l 1
 582.010742188 396.826171875 l 1
 476.190429688 396.826171875 l 1
 476.190429688 343.916015625 l 1025
105.8203125 291.005859375 m 1
 582.010742188 291.005859375 l 1
 582.010742188 343.916015625 l 1
 105.8203125 343.916015625 l 1
 105.8203125 291.005859375 l 1025
52.91015625 238.095703125 m 1
 264.549804688 238.095703125 l 1
 264.549804688 291.005859375 l 1
 52.91015625 291.005859375 l 1
 52.91015625 238.095703125 l 1025
370.370117188 238.095703125 m 1
 582.010742188 238.095703125 l 1
 582.010742188 291.005859375 l 1
 370.370117188 291.005859375 l 1
 370.370117188 238.095703125 l 1025
52.91015625 185.185546875 m 1
 211.640625 185.185546875 l 1
 211.640625 238.095703125 l 1
 52.91015625 238.095703125 l 1
 52.91015625 185.185546875 l 1025
423.280273438 185.185546875 m 1
 582.010742188 185.185546875 l 1
 582.010742188 238.095703125 l 1
 423.280273438 238.095703125 l 1
 423.280273438 185.185546875 l 1025
52.91015625 132.275390625 m 1
 211.640625 132.275390625 l 1
 211.640625 185.185546875 l 1
 52.91015625 185.185546875 l 1
 52.91015625 132.275390625 l 1025
52.91015625 79.365234375 m 1
 211.640625 79.365234375 l 1
 211.640625 132.275390625 l 1
 52.91015625 132.275390625 l 1
 52.91015625 79.365234375 l 1025
52.91015625 26.455078125 m 1
 264.549804688 26.455078125 l 1
 264.549804688 79.365234375 l 1
 52.91015625 79.365234375 l 1
 52.91015625 26.455078125 l 1025
423.280273438 26.455078125 m 1
 582.010742188 26.455078125 l 1
 582.010742188 79.365234375 l 1
 423.280273438 79.365234375 l 1
 423.280273438 26.455078125 l 1025
105.8203125 -26.455078125 m 1
 582.010742188 -26.455078125 l 1
 582.010742188 26.455078125 l 1
 105.8203125 26.455078125 l 1
 105.8203125 -26.455078125 l 1025
158.73046875 -79.365234375 m 1
 476.190429688 -79.365234375 l 1
 476.190429688 -26.455078125 l 1
 158.73046875 -26.455078125 l 1
 158.73046875 -79.365234375 l 1
EndSplineSet
EndChar

StartChar: d
Encoding: 100 100 68
Width: 523
VWidth: 0
Flags: HW
LayerCount: 2
Back
Fore
SplineSet
264.549804688 502.645507812 m 1
 529.100585938 502.645507812 l 1
 529.100585938 555.555664062 l 1
 264.549804688 555.555664062 l 1
 264.549804688 502.645507812 l 1025
264.549804688 449.736328125 m 1
 529.100585938 449.736328125 l 1
 529.100585938 502.645507812 l 1
 264.549804688 502.645507812 l 1
 264.549804688 449.736328125 l 1025
370.370117188 396.826171875 m 1
 529.100585938 396.826171875 l 1
 529.100585938 449.736328125 l 1
 370.370117188 449.736328125 l 1
 370.370117188 396.826171875 l 1025
158.73046875 343.916015625 m 1
 317.459960938 343.916015625 l 1
 317.459960938 396.826171875 l 1
 158.73046875 396.826171875 l 1
 158.73046875 343.916015625 l 1025
370.370117188 343.916015625 m 1
 529.100585938 343.916015625 l 1
 529.100585938 396.826171875 l 1
 370.370117188 396.826171875 l 1
 370.370117188 343.916015625 l 1025
105.8203125 291.005859375 m 1
 529.100585938 291.005859375 l 1
 529.100585938 343.916015625 l 1
 105.8203125 343.916015625 l 1
 105.8203125 291.005859375 l 1025
52.91015625 238.095703125 m 1
 264.549804688 238.095703125 l 1
 264.549804688 291.005859375 l 1
 52.91015625 291.005859375 l 1
 52.91015625 238.095703125 l 1025
317.459960938 238.095703125 m 1
 529.100585938 238.095703125 l 1
 529.100585938 291.005859375 l 1
 317.459960938 291.005859375 l 1
 317.459960938 238.095703125 l 1025
52.91015625 185.185546875 m 1
 211.640625 185.185546875 l 1
 211.640625 238.095703125 l 1
 52.91015625 238.095703125 l 1
 52.91015625 185.185546875 l 1025
370.370117188 185.185546875 m 1
 529.100585938 185.185546875 l 1
 529.100585938 238.095703125 l 1
 370.370117188 238.095703125 l 1
 370.370117188 185.185546875 l 1025
52.91015625 132.275390625 m 1
 211.640625 132.275390625 l 1
 211.640625 185.185546875 l 1
 52.91015625 185.185546875 l 1
 52.91015625 132.275390625 l 1025
370.370117188 132.275390625 m 1
 529.100585938 132.275390625 l 1
 529.100585938 185.185546875 l 1
 370.370117188 185.185546875 l 1
 370.370117188 132.275390625 l 1025
52.91015625 79.365234375 m 1
 211.640625 79.365234375 l 1
 211.640625 132.275390625 l 1
 52.91015625 132.275390625 l 1
 52.91015625 79.365234375 l 1025
370.370117188 79.365234375 m 1
 529.100585938 79.365234375 l 1
 529.100585938 132.275390625 l 1
 370.370117188 132.275390625 l 1
 370.370117188 79.365234375 l 1025
52.91015625 26.455078125 m 1
 264.549804688 26.455078125 l 1
 264.549804688 79.365234375 l 1
 52.91015625 79.365234375 l 1
 52.91015625 26.455078125 l 1025
317.459960938 26.455078125 m 1
 529.100585938 26.455078125 l 1
 529.100585938 79.365234375 l 1
 317.459960938 79.365234375 l 1
 317.459960938 26.455078125 l 1025
105.8203125 -26.455078125 m 1
 582.010742188 -26.455078125 l 1
 582.010742188 26.455078125 l 1
 105.8203125 26.455078125 l 1
 105.8203125 -26.455078125 l 1025
158.73046875 -79.365234375 m 1
 317.459960938 -79.365234375 l 1
 317.459960938 -26.455078125 l 1
 158.73046875 -26.455078125 l 1
 158.73046875 -79.365234375 l 1025
370.370117188 -79.365234375 m 1
 582.010742188 -79.365234375 l 1
 582.010742188 -26.455078125 l 1
 370.370117188 -26.455078125 l 1
 370.370117188 -79.365234375 l 1
EndSplineSet
EndChar

StartChar: e
Encoding: 101 101 69
Width: 523
VWidth: 0
Flags: HW
LayerCount: 2
Back
Fore
SplineSet
158.73046875 343.916015625 m 1
 476.190429688 343.916015625 l 1
 476.190429688 396.826171875 l 1
 158.73046875 396.826171875 l 1
 158.73046875 343.916015625 l 1025
105.8203125 291.005859375 m 1
 529.100585938 291.005859375 l 1
 529.100585938 343.916015625 l 1
 105.8203125 343.916015625 l 1
 105.8203125 291.005859375 l 1025
52.91015625 238.095703125 m 1
 211.640625 238.095703125 l 1
 211.640625 291.005859375 l 1
 52.91015625 291.005859375 l 1
 52.91015625 238.095703125 l 1025
423.280273438 238.095703125 m 1
 582.010742188 238.095703125 l 1
 582.010742188 291.005859375 l 1
 423.280273438 291.005859375 l 1
 423.280273438 238.095703125 l 1025
52.91015625 185.185546875 m 1
 582.010742188 185.185546875 l 1
 582.010742188 238.095703125 l 1
 52.91015625 238.095703125 l 1
 52.91015625 185.185546875 l 1025
52.91015625 132.275390625 m 1
 582.010742188 132.275390625 l 1
 582.010742188 185.185546875 l 1
 52.91015625 185.185546875 l 1
 52.91015625 132.275390625 l 1025
52.91015625 79.365234375 m 1
 211.640625 79.365234375 l 1
 211.640625 132.275390625 l 1
 52.91015625 132.275390625 l 1
 52.91015625 79.365234375 l 1025
52.91015625 26.455078125 m 1
 264.549804688 26.455078125 l 1
 264.549804688 79.365234375 l 1
 52.91015625 79.365234375 l 1
 52.91015625 26.455078125 l 1025
423.280273438 26.455078125 m 1
 582.010742188 26.455078125 l 1
 582.010742188 79.365234375 l 1
 423.280273438 79.365234375 l 1
 423.280273438 26.455078125 l 1025
105.8203125 -26.455078125 m 1
 582.010742188 -26.455078125 l 1
 582.010742188 26.455078125 l 1
 105.8203125 26.455078125 l 1
 105.8203125 -26.455078125 l 1025
158.73046875 -79.365234375 m 1
 476.190429688 -79.365234375 l 1
 476.190429688 -26.455078125 l 1
 158.73046875 -26.455078125 l 1
 158.73046875 -79.365234375 l 1
EndSplineSet
EndChar

StartChar: f
Encoding: 102 102 70
Width: 523
VWidth: 0
Flags: HW
LayerCount: 2
Back
Fore
SplineSet
211.640625 502.645507812 m 1
 529.100585938 502.645507812 l 1
 529.100585938 555.555664062 l 1
 211.640625 555.555664062 l 1
 211.640625 502.645507812 l 1025
158.73046875 449.736328125 m 1
 529.100585938 449.736328125 l 1
 529.100585938 502.645507812 l 1
 158.73046875 502.645507812 l 1
 158.73046875 449.736328125 l 1025
158.73046875 396.826171875 m 1
 317.459960938 396.826171875 l 1
 317.459960938 449.736328125 l 1
 158.73046875 449.736328125 l 1
 158.73046875 396.826171875 l 1025
52.91015625 343.916015625 m 1
 476.190429688 343.916015625 l 1
 476.190429688 396.826171875 l 1
 52.91015625 396.826171875 l 1
 52.91015625 343.916015625 l 1025
52.91015625 291.005859375 m 1
 476.190429688 291.005859375 l 1
 476.190429688 343.916015625 l 1
 52.91015625 343.916015625 l 1
 52.91015625 291.005859375 l 1025
158.73046875 238.095703125 m 1
 317.459960938 238.095703125 l 1
 317.459960938 291.005859375 l 1
 158.73046875 291.005859375 l 1
 158.73046875 238.095703125 l 1025
158.73046875 185.185546875 m 1
 317.459960938 185.185546875 l 1
 317.459960938 238.095703125 l 1
 158.73046875 238.095703125 l 1
 158.73046875 185.185546875 l 1025
158.73046875 132.275390625 m 1
 317.459960938 132.275390625 l 1
 317.459960938 185.185546875 l 1
 158.73046875 185.185546875 l 1
 158.73046875 132.275390625 l 1025
158.73046875 79.365234375 m 1
 317.459960938 79.365234375 l 1
 317.459960938 132.275390625 l 1
 158.73046875 132.275390625 l 1
 158.73046875 79.365234375 l 1025
158.73046875 26.455078125 m 1
 317.459960938 26.455078125 l 1
 317.459960938 79.365234375 l 1
 158.73046875 79.365234375 l 1
 158.73046875 26.455078125 l 1025
52.91015625 -26.455078125 m 1
 476.190429688 -26.455078125 l 1
 476.190429688 26.455078125 l 1
 52.91015625 26.455078125 l 1
 52.91015625 -26.455078125 l 1025
52.91015625 -79.365234375 m 1
 476.190429688 -79.365234375 l 1
 476.190429688 -26.455078125 l 1
 52.91015625 -26.455078125 l 1
 52.91015625 -79.365234375 l 1
EndSplineSet
EndChar

StartChar: g
Encoding: 103 103 71
Width: 523
VWidth: 0
Flags: HW
LayerCount: 2
Back
Fore
SplineSet
158.73046875 343.916015625 m 1
 317.459960938 343.916015625 l 1
 317.459960938 396.826171875 l 1
 158.73046875 396.826171875 l 1
 158.73046875 343.916015625 l 1025
370.370117188 343.916015625 m 1
 582.010742188 343.916015625 l 1
 582.010742188 396.826171875 l 1
 370.370117188 396.826171875 l 1
 370.370117188 343.916015625 l 1025
105.8203125 291.005859375 m 1
 582.010742188 291.005859375 l 1
 582.010742188 343.916015625 l 1
 105.8203125 343.916015625 l 1
 105.8203125 291.005859375 l 1025
52.91015625 238.095703125 m 1
 264.549804688 238.095703125 l 1
 264.549804688 291.005859375 l 1
 52.91015625 291.005859375 l 1
 52.91015625 238.095703125 l 1025
317.459960938 238.095703125 m 1
 529.100585938 238.095703125 l 1
 529.100585938 291.005859375 l 1
 317.459960938 291.005859375 l 1
 317.459960938 238.095703125 l 1025
52.91015625 185.185546875 m 1
 211.640625 185.185546875 l 1
 211.640625 238.095703125 l 1
 52.91015625 238.095703125 l 1
 52.91015625 185.185546875 l 1025
370.370117188 185.185546875 m 1
 529.100585938 185.185546875 l 1
 529.100585938 238.095703125 l 1
 370.370117188 238.095703125 l 1
 370.370117188 185.185546875 l 1025
52.91015625 132.275390625 m 1
 211.640625 132.275390625 l 1
 211.640625 185.185546875 l 1
 52.91015625 185.185546875 l 1
 52.91015625 132.275390625 l 1025
370.370117188 132.275390625 m 1
 529.100585938 132.275390625 l 1
 529.100585938 185.185546875 l 1
 370.370117188 185.185546875 l 1
 370.370117188 132.275390625 l 1025
52.91015625 79.365234375 m 1
 211.640625 79.365234375 l 1
 211.640625 132.275390625 l 1
 52.91015625 132.275390625 l 1
 52.91015625 79.365234375 l 1025
370.370117188 79.365234375 m 1
 529.100585938 79.365234375 l 1
 529.100585938 132.275390625 l 1
 370.370117188 132.275390625 l 1
 370.370117188 79.365234375 l 1025
52.91015625 26.455078125 m 1
 264.549804688 26.455078125 l 1
 264.549804688 79.365234375 l 1
 52.91015625 79.365234375 l 1
 52.91015625 26.455078125 l 1025
317.459960938 26.455078125 m 1
 529.100585938 26.455078125 l 1
 529.100585938 79.365234375 l 1
 317.459960938 79.365234375 l 1
 317.459960938 26.455078125 l 1025
105.8203125 -26.455078125 m 1
 529.100585938 -26.455078125 l 1
 529.100585938 26.455078125 l 1
 105.8203125 26.455078125 l 1
 105.8203125 -26.455078125 l 1025
158.73046875 -79.365234375 m 1
 317.459960938 -79.365234375 l 1
 317.459960938 -26.455078125 l 1
 158.73046875 -26.455078125 l 1
 158.73046875 -79.365234375 l 1025
370.370117188 -79.365234375 m 1
 529.100585938 -79.365234375 l 1
 529.100585938 -26.455078125 l 1
 370.370117188 -26.455078125 l 1
 370.370117188 -79.365234375 l 1025
370.370117188 -132.275390625 m 1
 529.100585938 -132.275390625 l 1
 529.100585938 -79.365234375 l 1
 370.370117188 -79.365234375 l 1
 370.370117188 -132.275390625 l 1025
370.370117188 -185.185546875 m 1
 529.100585938 -185.185546875 l 1
 529.100585938 -132.275390625 l 1
 370.370117188 -132.275390625 l 1
 370.370117188 -185.185546875 l 1025
105.8203125 -238.095703125 m 1
 476.190429688 -238.095703125 l 1
 476.190429688 -185.185546875 l 1
 105.8203125 -185.185546875 l 1
 105.8203125 -238.095703125 l 1025
105.8203125 -291.005859375 m 1
 423.280273438 -291.005859375 l 1
 423.280273438 -238.095703125 l 1
 105.8203125 -238.095703125 l 1
 105.8203125 -291.005859375 l 1
EndSplineSet
EndChar

StartChar: h
Encoding: 104 104 72
Width: 523
VWidth: 0
Flags: HW
LayerCount: 2
Back
Fore
SplineSet
52.91015625 502.645507812 m 1
 264.549804688 502.645507812 l 1
 264.549804688 555.555664062 l 1
 52.91015625 555.555664062 l 1
 52.91015625 502.645507812 l 1025
52.91015625 449.736328125 m 1
 264.549804688 449.736328125 l 1
 264.549804688 502.645507812 l 1
 52.91015625 502.645507812 l 1
 52.91015625 449.736328125 l 1025
105.8203125 396.826171875 m 1
 264.549804688 396.826171875 l 1
 264.549804688 449.736328125 l 1
 105.8203125 449.736328125 l 1
 105.8203125 396.826171875 l 1025
105.8203125 343.916015625 m 1
 264.549804688 343.916015625 l 1
 264.549804688 396.826171875 l 1
 105.8203125 396.826171875 l 1
 105.8203125 343.916015625 l 1025
317.459960938 343.916015625 m 1
 476.190429688 343.916015625 l 1
 476.190429688 396.826171875 l 1
 317.459960938 396.826171875 l 1
 317.459960938 343.916015625 l 1025
105.8203125 291.005859375 m 1
 529.100585938 291.005859375 l 1
 529.100585938 343.916015625 l 1
 105.8203125 343.916015625 l 1
 105.8203125 291.005859375 l 1025
105.8203125 238.095703125 m 1
 317.459960938 238.095703125 l 1
 317.459960938 291.005859375 l 1
 105.8203125 291.005859375 l 1
 105.8203125 238.095703125 l 1025
370.370117188 238.095703125 m 1
 529.100585938 238.095703125 l 1
 529.100585938 291.005859375 l 1
 370.370117188 291.005859375 l 1
 370.370117188 238.095703125 l 1025
105.8203125 185.185546875 m 1
 264.549804688 185.185546875 l 1
 264.549804688 238.095703125 l 1
 105.8203125 238.095703125 l 1
 105.8203125 185.185546875 l 1025
370.370117188 185.185546875 m 1
 529.100585938 185.185546875 l 1
 529.100585938 238.095703125 l 1
 370.370117188 238.095703125 l 1
 370.370117188 185.185546875 l 1025
105.8203125 132.275390625 m 1
 264.549804688 132.275390625 l 1
 264.549804688 185.185546875 l 1
 105.8203125 185.185546875 l 1
 105.8203125 132.275390625 l 1025
370.370117188 132.275390625 m 1
 529.100585938 132.275390625 l 1
 529.100585938 185.185546875 l 1
 370.370117188 185.185546875 l 1
 370.370117188 132.275390625 l 1025
105.8203125 79.365234375 m 1
 264.549804688 79.365234375 l 1
 264.549804688 132.275390625 l 1
 105.8203125 132.275390625 l 1
 105.8203125 79.365234375 l 1025
370.370117188 79.365234375 m 1
 529.100585938 79.365234375 l 1
 529.100585938 132.275390625 l 1
 370.370117188 132.275390625 l 1
 370.370117188 79.365234375 l 1025
105.8203125 26.455078125 m 1
 264.549804688 26.455078125 l 1
 264.549804688 79.365234375 l 1
 105.8203125 79.365234375 l 1
 105.8203125 26.455078125 l 1025
370.370117188 26.455078125 m 1
 529.100585938 26.455078125 l 1
 529.100585938 79.365234375 l 1
 370.370117188 79.365234375 l 1
 370.370117188 26.455078125 l 1025
52.91015625 -26.455078125 m 1
 264.549804688 -26.455078125 l 1
 264.549804688 26.455078125 l 1
 52.91015625 26.455078125 l 1
 52.91015625 -26.455078125 l 1025
370.370117188 -26.455078125 m 1
 582.010742188 -26.455078125 l 1
 582.010742188 26.455078125 l 1
 370.370117188 26.455078125 l 1
 370.370117188 -26.455078125 l 1025
52.91015625 -79.365234375 m 1
 264.549804688 -79.365234375 l 1
 264.549804688 -26.455078125 l 1
 52.91015625 -26.455078125 l 1
 52.91015625 -79.365234375 l 1025
370.370117188 -79.365234375 m 1
 582.010742188 -79.365234375 l 1
 582.010742188 -26.455078125 l 1
 370.370117188 -26.455078125 l 1
 370.370117188 -79.365234375 l 1
EndSplineSet
EndChar

StartChar: i
Encoding: 105 105 73
Width: 523
VWidth: 0
Flags: HW
LayerCount: 2
Back
Fore
SplineSet
211.640625 555.555664062 m 1
 370.370117188 555.555664062 l 1
 370.370117188 608.465820312 l 1
 211.640625 608.465820312 l 1
 211.640625 555.555664062 l 1025
211.640625 502.645507812 m 1
 370.370117188 502.645507812 l 1
 370.370117188 555.555664062 l 1
 211.640625 555.555664062 l 1
 211.640625 502.645507812 l 1025
211.640625 449.736328125 m 1
 370.370117188 449.736328125 l 1
 370.370117188 502.645507812 l 1
 211.640625 502.645507812 l 1
 211.640625 449.736328125 l 1025
105.8203125 343.916015625 m 1
 370.370117188 343.916015625 l 1
 370.370117188 396.826171875 l 1
 105.8203125 396.826171875 l 1
 105.8203125 343.916015625 l 1025
105.8203125 291.005859375 m 1
 370.370117188 291.005859375 l 1
 370.370117188 343.916015625 l 1
 105.8203125 343.916015625 l 1
 105.8203125 291.005859375 l 1025
211.640625 238.095703125 m 1
 370.370117188 238.095703125 l 1
 370.370117188 291.005859375 l 1
 211.640625 291.005859375 l 1
 211.640625 238.095703125 l 1025
211.640625 185.185546875 m 1
 370.370117188 185.185546875 l 1
 370.370117188 238.095703125 l 1
 211.640625 238.095703125 l 1
 211.640625 185.185546875 l 1025
211.640625 132.275390625 m 1
 370.370117188 132.275390625 l 1
 370.370117188 185.185546875 l 1
 211.640625 185.185546875 l 1
 211.640625 132.275390625 l 1025
211.640625 79.365234375 m 1
 370.370117188 79.365234375 l 1
 370.370117188 132.275390625 l 1
 211.640625 132.275390625 l 1
 211.640625 79.365234375 l 1025
211.640625 26.455078125 m 1
 370.370117188 26.455078125 l 1
 370.370117188 79.365234375 l 1
 211.640625 79.365234375 l 1
 211.640625 26.455078125 l 1025
52.91015625 -26.455078125 m 1
 529.100585938 -26.455078125 l 1
 529.100585938 26.455078125 l 1
 52.91015625 26.455078125 l 1
 52.91015625 -26.455078125 l 1025
52.91015625 -79.365234375 m 1
 529.100585938 -79.365234375 l 1
 529.100585938 -26.455078125 l 1
 52.91015625 -26.455078125 l 1
 52.91015625 -79.365234375 l 1
EndSplineSet
EndChar

StartChar: j
Encoding: 106 106 74
Width: 523
VWidth: 0
Flags: HW
LayerCount: 2
Back
Fore
SplineSet
317.459960938 555.555664062 m 1
 476.190429688 555.555664062 l 1
 476.190429688 608.465820312 l 1
 317.459960938 608.465820312 l 1
 317.459960938 555.555664062 l 1025
317.459960938 502.645507812 m 1
 476.190429688 502.645507812 l 1
 476.190429688 555.555664062 l 1
 317.459960938 555.555664062 l 1
 317.459960938 502.645507812 l 1025
317.459960938 449.736328125 m 1
 476.190429688 449.736328125 l 1
 476.190429688 502.645507812 l 1
 317.459960938 502.645507812 l 1
 317.459960938 449.736328125 l 1025
158.73046875 343.916015625 m 1
 476.190429688 343.916015625 l 1
 476.190429688 396.826171875 l 1
 158.73046875 396.826171875 l 1
 158.73046875 343.916015625 l 1025
158.73046875 291.005859375 m 1
 476.190429688 291.005859375 l 1
 476.190429688 343.916015625 l 1
 158.73046875 343.916015625 l 1
 158.73046875 291.005859375 l 1025
317.459960938 238.095703125 m 1
 476.190429688 238.095703125 l 1
 476.190429688 291.005859375 l 1
 317.459960938 291.005859375 l 1
 317.459960938 238.095703125 l 1025
317.459960938 185.185546875 m 1
 476.190429688 185.185546875 l 1
 476.190429688 238.095703125 l 1
 317.459960938 238.095703125 l 1
 317.459960938 185.185546875 l 1025
317.459960938 132.275390625 m 1
 476.190429688 132.275390625 l 1
 476.190429688 185.185546875 l 1
 317.459960938 185.185546875 l 1
 317.459960938 132.275390625 l 1025
317.459960938 79.365234375 m 1
 476.190429688 79.365234375 l 1
 476.190429688 132.275390625 l 1
 317.459960938 132.275390625 l 1
 317.459960938 79.365234375 l 1025
317.459960938 26.455078125 m 1
 476.190429688 26.455078125 l 1
 476.190429688 79.365234375 l 1
 317.459960938 79.365234375 l 1
 317.459960938 26.455078125 l 1025
317.459960938 -26.455078125 m 1
 476.190429688 -26.455078125 l 1
 476.190429688 26.455078125 l 1
 317.459960938 26.455078125 l 1
 317.459960938 -26.455078125 l 1025
317.459960938 -79.365234375 m 1
 476.190429688 -79.365234375 l 1
 476.190429688 -26.455078125 l 1
 317.459960938 -26.455078125 l 1
 317.459960938 -79.365234375 l 1025
317.459960938 -132.275390625 m 1
 476.190429688 -132.275390625 l 1
 476.190429688 -79.365234375 l 1
 317.459960938 -79.365234375 l 1
 317.459960938 -132.275390625 l 1025
317.459960938 -185.185546875 m 1
 476.190429688 -185.185546875 l 1
 476.190429688 -132.275390625 l 1
 317.459960938 -132.275390625 l 1
 317.459960938 -185.185546875 l 1025
105.8203125 -238.095703125 m 1
 423.280273438 -238.095703125 l 1
 423.280273438 -185.185546875 l 1
 105.8203125 -185.185546875 l 1
 105.8203125 -238.095703125 l 1025
105.8203125 -291.005859375 m 1
 370.370117188 -291.005859375 l 1
 370.370117188 -238.095703125 l 1
 105.8203125 -238.095703125 l 1
 105.8203125 -291.005859375 l 1
EndSplineSet
EndChar

StartChar: k
Encoding: 107 107 75
Width: 523
VWidth: 0
Flags: HW
LayerCount: 2
Back
Fore
SplineSet
52.91015625 502.645507812 m 1
 264.549804688 502.645507812 l 1
 264.549804688 555.555664062 l 1
 52.91015625 555.555664062 l 1
 52.91015625 502.645507812 l 1025
52.91015625 449.736328125 m 1
 264.549804688 449.736328125 l 1
 264.549804688 502.645507812 l 1
 52.91015625 502.645507812 l 1
 52.91015625 449.736328125 l 1025
105.8203125 396.826171875 m 1
 264.549804688 396.826171875 l 1
 264.549804688 449.736328125 l 1
 105.8203125 449.736328125 l 1
 105.8203125 396.826171875 l 1025
105.8203125 343.916015625 m 1
 264.549804688 343.916015625 l 1
 264.549804688 396.826171875 l 1
 105.8203125 396.826171875 l 1
 105.8203125 343.916015625 l 1025
370.370117188 343.916015625 m 1
 582.010742188 343.916015625 l 1
 582.010742188 396.826171875 l 1
 370.370117188 396.826171875 l 1
 370.370117188 343.916015625 l 1025
105.8203125 291.005859375 m 1
 264.549804688 291.005859375 l 1
 264.549804688 343.916015625 l 1
 105.8203125 343.916015625 l 1
 105.8203125 291.005859375 l 1025
370.370117188 291.005859375 m 1
 582.010742188 291.005859375 l 1
 582.010742188 343.916015625 l 1
 370.370117188 343.916015625 l 1
 370.370117188 291.005859375 l 1025
105.8203125 238.095703125 m 1
 264.549804688 238.095703125 l 1
 264.549804688 291.005859375 l 1
 105.8203125 291.005859375 l 1
 105.8203125 238.095703125 l 1025
317.459960938 238.095703125 m 1
 476.190429688 238.095703125 l 1
 476.190429688 291.005859375 l 1
 317.459960938 291.005859375 l 1
 317.459960938 238.095703125 l 1025
105.8203125 185.185546875 m 1
 423.280273438 185.185546875 l 1
 423.280273438 238.095703125 l 1
 105.8203125 238.095703125 l 1
 105.8203125 185.185546875 l 1025
105.8203125 132.275390625 m 1
 370.370117188 132.275390625 l 1
 370.370117188 185.185546875 l 1
 105.8203125 185.185546875 l 1
 105.8203125 132.275390625 l 1025
105.8203125 79.365234375 m 1
 264.549804688 79.365234375 l 1
 264.549804688 132.275390625 l 1
 105.8203125 132.275390625 l 1
 105.8203125 79.365234375 l 1025
317.459960938 79.365234375 m 1
 423.280273438 79.365234375 l 1
 423.280273438 132.275390625 l 1
 317.459960938 132.275390625 l 1
 317.459960938 79.365234375 l 1025
105.8203125 26.455078125 m 1
 264.549804688 26.455078125 l 1
 264.549804688 79.365234375 l 1
 105.8203125 79.365234375 l 1
 105.8203125 26.455078125 l 1025
317.459960938 26.455078125 m 1
 476.190429688 26.455078125 l 1
 476.190429688 79.365234375 l 1
 317.459960938 79.365234375 l 1
 317.459960938 26.455078125 l 1025
52.91015625 -26.455078125 m 1
 264.549804688 -26.455078125 l 1
 264.549804688 26.455078125 l 1
 52.91015625 26.455078125 l 1
 52.91015625 -26.455078125 l 1025
370.370117188 -26.455078125 m 1
 582.010742188 -26.455078125 l 1
 582.010742188 26.455078125 l 1
 370.370117188 26.455078125 l 1
 370.370117188 -26.455078125 l 1025
52.91015625 -79.365234375 m 1
 264.549804688 -79.365234375 l 1
 264.549804688 -26.455078125 l 1
 52.91015625 -26.455078125 l 1
 52.91015625 -79.365234375 l 1025
370.370117188 -79.365234375 m 1
 582.010742188 -79.365234375 l 1
 582.010742188 -26.455078125 l 1
 370.370117188 -26.455078125 l 1
 370.370117188 -79.365234375 l 1
EndSplineSet
EndChar

StartChar: l
Encoding: 108 108 76
Width: 523
VWidth: 0
Flags: HW
LayerCount: 2
Back
Fore
SplineSet
105.8203125 502.645507812 m 1
 370.370117188 502.645507812 l 1
 370.370117188 555.555664062 l 1
 105.8203125 555.555664062 l 1
 105.8203125 502.645507812 l 1025
105.8203125 449.736328125 m 1
 370.370117188 449.736328125 l 1
 370.370117188 502.645507812 l 1
 105.8203125 502.645507812 l 1
 105.8203125 449.736328125 l 1025
211.640625 396.826171875 m 1
 370.370117188 396.826171875 l 1
 370.370117188 449.736328125 l 1
 211.640625 449.736328125 l 1
 211.640625 396.826171875 l 1025
211.640625 343.916015625 m 1
 370.370117188 343.916015625 l 1
 370.370117188 396.826171875 l 1
 211.640625 396.826171875 l 1
 211.640625 343.916015625 l 1025
211.640625 291.005859375 m 1
 370.370117188 291.005859375 l 1
 370.370117188 343.916015625 l 1
 211.640625 343.916015625 l 1
 211.640625 291.005859375 l 1025
211.640625 238.095703125 m 1
 370.370117188 238.095703125 l 1
 370.370117188 291.005859375 l 1
 211.640625 291.005859375 l 1
 211.640625 238.095703125 l 1025
211.640625 185.185546875 m 1
 370.370117188 185.185546875 l 1
 370.370117188 238.095703125 l 1
 211.640625 238.095703125 l 1
 211.640625 185.185546875 l 1025
211.640625 132.275390625 m 1
 370.370117188 132.275390625 l 1
 370.370117188 185.185546875 l 1
 211.640625 185.185546875 l 1
 211.640625 132.275390625 l 1025
211.640625 79.365234375 m 1
 370.370117188 79.365234375 l 1
 370.370117188 132.275390625 l 1
 211.640625 132.275390625 l 1
 211.640625 79.365234375 l 1025
211.640625 26.455078125 m 1
 370.370117188 26.455078125 l 1
 370.370117188 79.365234375 l 1
 211.640625 79.365234375 l 1
 211.640625 26.455078125 l 1025
52.91015625 -26.455078125 m 1
 529.100585938 -26.455078125 l 1
 529.100585938 26.455078125 l 1
 52.91015625 26.455078125 l 1
 52.91015625 -26.455078125 l 1025
52.91015625 -79.365234375 m 1
 529.100585938 -79.365234375 l 1
 529.100585938 -26.455078125 l 1
 52.91015625 -26.455078125 l 1
 52.91015625 -79.365234375 l 1
EndSplineSet
EndChar

StartChar: m
Encoding: 109 109 77
Width: 523
VWidth: 0
Flags: HW
LayerCount: 2
Back
Fore
SplineSet
52.91015625 343.916015625 m 1
 158.73046875 343.916015625 l 1
 158.73046875 396.826171875 l 1
 52.91015625 396.826171875 l 1
 52.91015625 343.916015625 l 1025
211.640625 343.916015625 m 1
 370.370117188 343.916015625 l 1
 370.370117188 396.826171875 l 1
 211.640625 396.826171875 l 1
 211.640625 343.916015625 l 1025
423.280273438 343.916015625 m 1
 529.100585938 343.916015625 l 1
 529.100585938 396.826171875 l 1
 423.280273438 396.826171875 l 1
 423.280273438 343.916015625 l 1025
52.91015625 291.005859375 m 1
 582.010742188 291.005859375 l 1
 582.010742188 343.916015625 l 1
 52.91015625 343.916015625 l 1
 52.91015625 291.005859375 l 1025
52.91015625 238.095703125 m 1
 211.640625 238.095703125 l 1
 211.640625 291.005859375 l 1
 52.91015625 291.005859375 l 1
 52.91015625 238.095703125 l 1025
264.549804688 238.095703125 m 1
 370.370117188 238.095703125 l 1
 370.370117188 291.005859375 l 1
 264.549804688 291.005859375 l 1
 264.549804688 238.095703125 l 1025
423.280273438 238.095703125 m 1
 582.010742188 238.095703125 l 1
 582.010742188 291.005859375 l 1
 423.280273438 291.005859375 l 1
 423.280273438 238.095703125 l 1025
52.91015625 185.185546875 m 1
 211.640625 185.185546875 l 1
 211.640625 238.095703125 l 1
 52.91015625 238.095703125 l 1
 52.91015625 185.185546875 l 1025
264.549804688 185.185546875 m 1
 370.370117188 185.185546875 l 1
 370.370117188 238.095703125 l 1
 264.549804688 238.095703125 l 1
 264.549804688 185.185546875 l 1025
423.280273438 185.185546875 m 1
 582.010742188 185.185546875 l 1
 582.010742188 238.095703125 l 1
 423.280273438 238.095703125 l 1
 423.280273438 185.185546875 l 1025
52.91015625 132.275390625 m 1
 211.640625 132.275390625 l 1
 211.640625 185.185546875 l 1
 52.91015625 185.185546875 l 1
 52.91015625 132.275390625 l 1025
264.549804688 132.275390625 m 1
 370.370117188 132.275390625 l 1
 370.370117188 185.185546875 l 1
 264.549804688 185.185546875 l 1
 264.549804688 132.275390625 l 1025
423.280273438 132.275390625 m 1
 582.010742188 132.275390625 l 1
 582.010742188 185.185546875 l 1
 423.280273438 185.185546875 l 1
 423.280273438 132.275390625 l 1025
52.91015625 79.365234375 m 1
 211.640625 79.365234375 l 1
 211.640625 132.275390625 l 1
 52.91015625 132.275390625 l 1
 52.91015625 79.365234375 l 1025
264.549804688 79.365234375 m 1
 370.370117188 79.365234375 l 1
 370.370117188 132.275390625 l 1
 264.549804688 132.275390625 l 1
 264.549804688 79.365234375 l 1025
423.280273438 79.365234375 m 1
 582.010742188 79.365234375 l 1
 582.010742188 132.275390625 l 1
 423.280273438 132.275390625 l 1
 423.280273438 79.365234375 l 1025
52.91015625 26.455078125 m 1
 211.640625 26.455078125 l 1
 211.640625 79.365234375 l 1
 52.91015625 79.365234375 l 1
 52.91015625 26.455078125 l 1025
264.549804688 26.455078125 m 1
 370.370117188 26.455078125 l 1
 370.370117188 79.365234375 l 1
 264.549804688 79.365234375 l 1
 264.549804688 26.455078125 l 1025
423.280273438 26.455078125 m 1
 582.010742188 26.455078125 l 1
 582.010742188 79.365234375 l 1
 423.280273438 79.365234375 l 1
 423.280273438 26.455078125 l 1025
52.91015625 -26.455078125 m 1
 211.640625 -26.455078125 l 1
 211.640625 26.455078125 l 1
 52.91015625 26.455078125 l 1
 52.91015625 -26.455078125 l 1025
264.549804688 -26.455078125 m 1
 370.370117188 -26.455078125 l 1
 370.370117188 26.455078125 l 1
 264.549804688 26.455078125 l 1
 264.549804688 -26.455078125 l 1025
423.280273438 -26.455078125 m 1
 582.010742188 -26.455078125 l 1
 582.010742188 26.455078125 l 1
 423.280273438 26.455078125 l 1
 423.280273438 -26.455078125 l 1025
52.91015625 -79.365234375 m 1
 211.640625 -79.365234375 l 1
 211.640625 -26.455078125 l 1
 52.91015625 -26.455078125 l 1
 52.91015625 -79.365234375 l 1025
423.280273438 -79.365234375 m 1
 582.010742188 -79.365234375 l 1
 582.010742188 -26.455078125 l 1
 423.280273438 -26.455078125 l 1
 423.280273438 -79.365234375 l 1
EndSplineSet
EndChar

StartChar: n
Encoding: 110 110 78
Width: 523
VWidth: 0
Flags: HW
LayerCount: 2
Back
Fore
SplineSet
52.91015625 343.916015625 m 1
 264.549804688 343.916015625 l 1
 264.549804688 396.826171875 l 1
 52.91015625 396.826171875 l 1
 52.91015625 343.916015625 l 1025
317.459960938 343.916015625 m 1
 476.190429688 343.916015625 l 1
 476.190429688 396.826171875 l 1
 317.459960938 396.826171875 l 1
 317.459960938 343.916015625 l 1025
52.91015625 291.005859375 m 1
 529.100585938 291.005859375 l 1
 529.100585938 343.916015625 l 1
 52.91015625 343.916015625 l 1
 52.91015625 291.005859375 l 1025
105.8203125 238.095703125 m 1
 317.459960938 238.095703125 l 1
 317.459960938 291.005859375 l 1
 105.8203125 291.005859375 l 1
 105.8203125 238.095703125 l 1025
370.370117188 238.095703125 m 1
 529.100585938 238.095703125 l 1
 529.100585938 291.005859375 l 1
 370.370117188 291.005859375 l 1
 370.370117188 238.095703125 l 1025
105.8203125 185.185546875 m 1
 264.549804688 185.185546875 l 1
 264.549804688 238.095703125 l 1
 105.8203125 238.095703125 l 1
 105.8203125 185.185546875 l 1025
370.370117188 185.185546875 m 1
 529.100585938 185.185546875 l 1
 529.100585938 238.095703125 l 1
 370.370117188 238.095703125 l 1
 370.370117188 185.185546875 l 1025
105.8203125 132.275390625 m 1
 264.549804688 132.275390625 l 1
 264.549804688 185.185546875 l 1
 105.8203125 185.185546875 l 1
 105.8203125 132.275390625 l 1025
370.370117188 132.275390625 m 1
 529.100585938 132.275390625 l 1
 529.100585938 185.185546875 l 1
 370.370117188 185.185546875 l 1
 370.370117188 132.275390625 l 1025
105.8203125 79.365234375 m 1
 264.549804688 79.365234375 l 1
 264.549804688 132.275390625 l 1
 105.8203125 132.275390625 l 1
 105.8203125 79.365234375 l 1025
370.370117188 79.365234375 m 1
 529.100585938 79.365234375 l 1
 529.100585938 132.275390625 l 1
 370.370117188 132.275390625 l 1
 370.370117188 79.365234375 l 1025
105.8203125 26.455078125 m 1
 264.549804688 26.455078125 l 1
 264.549804688 79.365234375 l 1
 105.8203125 79.365234375 l 1
 105.8203125 26.455078125 l 1025
370.370117188 26.455078125 m 1
 529.100585938 26.455078125 l 1
 529.100585938 79.365234375 l 1
 370.370117188 79.365234375 l 1
 370.370117188 26.455078125 l 1025
52.91015625 -26.455078125 m 1
 264.549804688 -26.455078125 l 1
 264.549804688 26.455078125 l 1
 52.91015625 26.455078125 l 1
 52.91015625 -26.455078125 l 1025
370.370117188 -26.455078125 m 1
 582.010742188 -26.455078125 l 1
 582.010742188 26.455078125 l 1
 370.370117188 26.455078125 l 1
 370.370117188 -26.455078125 l 1025
52.91015625 -79.365234375 m 1
 264.549804688 -79.365234375 l 1
 264.549804688 -26.455078125 l 1
 52.91015625 -26.455078125 l 1
 52.91015625 -79.365234375 l 1025
370.370117188 -79.365234375 m 1
 582.010742188 -79.365234375 l 1
 582.010742188 -26.455078125 l 1
 370.370117188 -26.455078125 l 1
 370.370117188 -79.365234375 l 1
EndSplineSet
EndChar

StartChar: o
Encoding: 111 111 79
Width: 523
VWidth: 0
Flags: HW
LayerCount: 2
Back
Fore
SplineSet
158.73046875 343.916015625 m 1
 476.190429688 343.916015625 l 1
 476.190429688 396.826171875 l 1
 158.73046875 396.826171875 l 1
 158.73046875 343.916015625 l 1025
105.8203125 291.005859375 m 1
 529.100585938 291.005859375 l 1
 529.100585938 343.916015625 l 1
 105.8203125 343.916015625 l 1
 105.8203125 291.005859375 l 1025
52.91015625 238.095703125 m 1
 264.549804688 238.095703125 l 1
 264.549804688 291.005859375 l 1
 52.91015625 291.005859375 l 1
 52.91015625 238.095703125 l 1025
370.370117188 238.095703125 m 1
 582.010742188 238.095703125 l 1
 582.010742188 291.005859375 l 1
 370.370117188 291.005859375 l 1
 370.370117188 238.095703125 l 1025
52.91015625 185.185546875 m 1
 211.640625 185.185546875 l 1
 211.640625 238.095703125 l 1
 52.91015625 238.095703125 l 1
 52.91015625 185.185546875 l 1025
423.280273438 185.185546875 m 1
 582.010742188 185.185546875 l 1
 582.010742188 238.095703125 l 1
 423.280273438 238.095703125 l 1
 423.280273438 185.185546875 l 1025
52.91015625 132.275390625 m 1
 211.640625 132.275390625 l 1
 211.640625 185.185546875 l 1
 52.91015625 185.185546875 l 1
 52.91015625 132.275390625 l 1025
423.280273438 132.275390625 m 1
 582.010742188 132.275390625 l 1
 582.010742188 185.185546875 l 1
 423.280273438 185.185546875 l 1
 423.280273438 132.275390625 l 1025
52.91015625 79.365234375 m 1
 211.640625 79.365234375 l 1
 211.640625 132.275390625 l 1
 52.91015625 132.275390625 l 1
 52.91015625 79.365234375 l 1025
423.280273438 79.365234375 m 1
 582.010742188 79.365234375 l 1
 582.010742188 132.275390625 l 1
 423.280273438 132.275390625 l 1
 423.280273438 79.365234375 l 1025
52.91015625 26.455078125 m 1
 264.549804688 26.455078125 l 1
 264.549804688 79.365234375 l 1
 52.91015625 79.365234375 l 1
 52.91015625 26.455078125 l 1025
370.370117188 26.455078125 m 1
 582.010742188 26.455078125 l 1
 582.010742188 79.365234375 l 1
 370.370117188 79.365234375 l 1
 370.370117188 26.455078125 l 1025
105.8203125 -26.455078125 m 1
 529.100585938 -26.455078125 l 1
 529.100585938 26.455078125 l 1
 105.8203125 26.455078125 l 1
 105.8203125 -26.455078125 l 1025
158.73046875 -79.365234375 m 1
 476.190429688 -79.365234375 l 1
 476.190429688 -26.455078125 l 1
 158.73046875 -26.455078125 l 1
 158.73046875 -79.365234375 l 1
EndSplineSet
EndChar

StartChar: p
Encoding: 112 112 80
Width: 523
VWidth: 0
Flags: HW
LayerCount: 2
Back
Fore
SplineSet
52.91015625 343.916015625 m 1
 264.549804688 343.916015625 l 1
 264.549804688 396.826171875 l 1
 52.91015625 396.826171875 l 1
 52.91015625 343.916015625 l 1025
317.459960938 343.916015625 m 1
 476.190429688 343.916015625 l 1
 476.190429688 396.826171875 l 1
 317.459960938 396.826171875 l 1
 317.459960938 343.916015625 l 1025
52.91015625 291.005859375 m 1
 529.100585938 291.005859375 l 1
 529.100585938 343.916015625 l 1
 52.91015625 343.916015625 l 1
 52.91015625 291.005859375 l 1025
105.8203125 238.095703125 m 1
 317.459960938 238.095703125 l 1
 317.459960938 291.005859375 l 1
 105.8203125 291.005859375 l 1
 105.8203125 238.095703125 l 1025
370.370117188 238.095703125 m 1
 582.010742188 238.095703125 l 1
 582.010742188 291.005859375 l 1
 370.370117188 291.005859375 l 1
 370.370117188 238.095703125 l 1025
105.8203125 185.185546875 m 1
 264.549804688 185.185546875 l 1
 264.549804688 238.095703125 l 1
 105.8203125 238.095703125 l 1
 105.8203125 185.185546875 l 1025
423.280273438 185.185546875 m 1
 582.010742188 185.185546875 l 1
 582.010742188 238.095703125 l 1
 423.280273438 238.095703125 l 1
 423.280273438 185.185546875 l 1025
105.8203125 132.275390625 m 1
 264.549804688 132.275390625 l 1
 264.549804688 185.185546875 l 1
 105.8203125 185.185546875 l 1
 105.8203125 132.275390625 l 1025
423.280273438 132.275390625 m 1
 582.010742188 132.275390625 l 1
 582.010742188 185.185546875 l 1
 423.280273438 185.185546875 l 1
 423.280273438 132.275390625 l 1025
105.8203125 79.365234375 m 1
 264.549804688 79.365234375 l 1
 264.549804688 132.275390625 l 1
 105.8203125 132.275390625 l 1
 105.8203125 79.365234375 l 1025
423.280273438 79.365234375 m 1
 582.010742188 79.365234375 l 1
 582.010742188 132.275390625 l 1
 423.280273438 132.275390625 l 1
 423.280273438 79.365234375 l 1025
105.8203125 26.455078125 m 1
 317.459960938 26.455078125 l 1
 317.459960938 79.365234375 l 1
 105.8203125 79.365234375 l 1
 105.8203125 26.455078125 l 1025
370.370117188 26.455078125 m 1
 582.010742188 26.455078125 l 1
 582.010742188 79.365234375 l 1
 370.370117188 79.365234375 l 1
 370.370117188 26.455078125 l 1025
105.8203125 -26.455078125 m 1
 529.100585938 -26.455078125 l 1
 529.100585938 26.455078125 l 1
 105.8203125 26.455078125 l 1
 105.8203125 -26.455078125 l 1025
105.8203125 -79.365234375 m 1
 264.549804688 -79.365234375 l 1
 264.549804688 -26.455078125 l 1
 105.8203125 -26.455078125 l 1
 105.8203125 -79.365234375 l 1025
317.459960938 -79.365234375 m 1
 476.190429688 -79.365234375 l 1
 476.190429688 -26.455078125 l 1
 317.459960938 -26.455078125 l 1
 317.459960938 -79.365234375 l 1025
105.8203125 -132.275390625 m 1
 264.549804688 -132.275390625 l 1
 264.549804688 -79.365234375 l 1
 105.8203125 -79.365234375 l 1
 105.8203125 -132.275390625 l 1025
105.8203125 -185.185546875 m 1
 264.549804688 -185.185546875 l 1
 264.549804688 -132.275390625 l 1
 105.8203125 -132.275390625 l 1
 105.8203125 -185.185546875 l 1025
52.91015625 -238.095703125 m 1
 370.370117188 -238.095703125 l 1
 370.370117188 -185.185546875 l 1
 52.91015625 -185.185546875 l 1
 52.91015625 -238.095703125 l 1025
52.91015625 -291.005859375 m 1
 370.370117188 -291.005859375 l 1
 370.370117188 -238.095703125 l 1
 52.91015625 -238.095703125 l 1
 52.91015625 -291.005859375 l 1
EndSplineSet
EndChar

